<?xml version="1.0" encoding="utf-8" standalone="no"?>
<!DOCTYPE svg PUBLIC "-//W3C//DTD SVG 1.1//EN"
  "http://www.w3.org/Graphics/SVG/1.1/DTD/svg11.dtd">
<svg xmlns:xlink="http://www.w3.org/1999/xlink" width="706.998514pt" height="218.357597pt" viewBox="0 0 706.998514 218.357597" xmlns="http://www.w3.org/2000/svg" version="1.1">
 <metadata>
  <rdf:RDF xmlns:dc="http://purl.org/dc/elements/1.1/" xmlns:cc="http://creativecommons.org/ns#" xmlns:rdf="http://www.w3.org/1999/02/22-rdf-syntax-ns#">
   <cc:Work>
    <dc:type rdf:resource="http://purl.org/dc/dcmitype/StillImage"/>
    <dc:date>2024-05-19T17:01:26.088360</dc:date>
    <dc:format>image/svg+xml</dc:format>
    <dc:creator>
     <cc:Agent>
      <dc:title>Matplotlib v3.7.5, https://matplotlib.org/</dc:title>
     </cc:Agent>
    </dc:creator>
   </cc:Work>
  </rdf:RDF>
 </metadata>
 <defs>
  <style type="text/css">*{stroke-linejoin: round; stroke-linecap: butt}</style>
 </defs>
 <g id="figure_1">
  <g id="patch_1">
   <path d="M 0 218.357597 
L 706.998514 218.357597 
L 706.998514 0 
L 0 0 
z
" style="fill: #ffffff"/>
  </g>
  <g id="axes_1">
   <g id="line2d_1">
    <path d="M 87.925722 44.2832 
L 695.163114 44.2832 
" clip-path="url(#p16fa6652ec)" style="fill: none; stroke: #000000; stroke-width: 2; stroke-linecap: square"/>
   </g>
   <g id="line2d_2">
    <path d="M 87.925722 90.637199 
L 695.163114 90.637199 
" clip-path="url(#p16fa6652ec)" style="fill: none; stroke: #000000; stroke-width: 2; stroke-linecap: square"/>
   </g>
   <g id="line2d_3">
    <path d="M 87.925722 136.991198 
L 695.163114 136.991198 
" clip-path="url(#p16fa6652ec)" style="fill: none; stroke: #000000; stroke-width: 2; stroke-linecap: square"/>
   </g>
   <g id="line2d_4">
    <path d="M 97.196522 187.980598 
L 101.831922 178.709798 
" clip-path="url(#p16fa6652ec)" style="fill: none; stroke: #778899; stroke-width: 1.5; stroke-linecap: square"/>
   </g>
   <g id="line2d_5">
    <path d="M 87.925722 181.838693 
L 695.163114 181.838693 
" clip-path="url(#p16fa6652ec)" style="fill: none; stroke: #778899; stroke-width: 2; stroke-linecap: square"/>
   </g>
   <g id="line2d_6">
    <path d="M 87.925722 184.851703 
L 695.163114 184.851703 
" clip-path="url(#p16fa6652ec)" style="fill: none; stroke: #778899; stroke-width: 2; stroke-linecap: square"/>
   </g>
   <g id="patch_2">
    <path d="M 570.470855 172.799663 
L 582.522895 172.799663 
L 576.496875 181.491038 
z
" clip-path="url(#p16fa6652ec)" style="fill: #778899"/>
   </g>
   <g id="patch_3">
    <path d="M 616.824855 172.799663 
L 628.876895 172.799663 
L 622.850875 181.491038 
z
" clip-path="url(#p16fa6652ec)" style="fill: #778899"/>
   </g>
   <g id="patch_4">
    <path d="M 663.178854 172.799663 
L 675.230894 172.799663 
L 669.204874 181.491038 
z
" clip-path="url(#p16fa6652ec)" style="fill: #778899"/>
   </g>
   <g id="patch_5">
    <path d="M 83.290322 21.1062 
L -1075.559663 21.1062 
L -1075.559663 252.876197 
L 83.290322 252.876197 
z
" clip-path="url(#p16fa6652ec)" style="fill: #ffffff; stroke: #ffffff; stroke-width: 1.5; stroke-linejoin: miter"/>
   </g>
   <g id="line2d_7">
    <path d="M 578.00338 44.2832 
L 578.00338 172.799663 
" clip-path="url(#p16fa6652ec)" style="fill: none; stroke: #778899; stroke-width: 2; stroke-linecap: square"/>
   </g>
   <g id="line2d_8">
    <path d="M 574.99037 44.2832 
L 574.99037 172.799663 
" clip-path="url(#p16fa6652ec)" style="fill: none; stroke: #778899; stroke-width: 2; stroke-linecap: square"/>
   </g>
   <g id="line2d_9">
    <path d="M 624.35738 90.637199 
L 624.35738 172.799663 
" clip-path="url(#p16fa6652ec)" style="fill: none; stroke: #778899; stroke-width: 2; stroke-linecap: square"/>
   </g>
   <g id="line2d_10">
    <path d="M 621.34437 90.637199 
L 621.34437 172.799663 
" clip-path="url(#p16fa6652ec)" style="fill: none; stroke: #778899; stroke-width: 2; stroke-linecap: square"/>
   </g>
   <g id="line2d_11">
    <path d="M 670.711379 136.991198 
L 670.711379 172.799663 
" clip-path="url(#p16fa6652ec)" style="fill: none; stroke: #778899; stroke-width: 2; stroke-linecap: square"/>
   </g>
   <g id="line2d_12">
    <path d="M 667.698369 136.991198 
L 667.698369 172.799663 
" clip-path="url(#p16fa6652ec)" style="fill: none; stroke: #778899; stroke-width: 2; stroke-linecap: square"/>
   </g>
   <g id="patch_6">
    <path d="M 150.271851 67.460199 
L 168.349911 67.460199 
L 168.349911 21.1062 
L 150.271851 21.1062 
z
" clip-path="url(#p16fa6652ec)" style="fill: #a8a8a8; opacity: 0.6"/>
   </g>
   <g id="patch_7">
    <path d="M 150.271851 113.814199 
L 168.349911 113.814199 
L 168.349911 67.460199 
L 150.271851 67.460199 
z
" clip-path="url(#p16fa6652ec)" style="fill: #a8a8a8; opacity: 0.6"/>
   </g>
   <g id="patch_8">
    <path d="M 150.271851 160.168198 
L 168.349911 160.168198 
L 168.349911 113.814199 
L 150.271851 113.814199 
z
" clip-path="url(#p16fa6652ec)" style="fill: #a8a8a8; opacity: 0.6"/>
   </g>
   <g id="patch_9">
    <path d="M 335.687848 67.460199 
L 353.765908 67.460199 
L 353.765908 21.1062 
L 335.687848 21.1062 
z
" clip-path="url(#p16fa6652ec)" style="fill: #a8a8a8; opacity: 0.6"/>
   </g>
   <g id="patch_10">
    <path d="M 335.687848 113.814199 
L 353.765908 113.814199 
L 353.765908 67.460199 
L 335.687848 67.460199 
z
" clip-path="url(#p16fa6652ec)" style="fill: #a8a8a8; opacity: 0.6"/>
   </g>
   <g id="patch_11">
    <path d="M 335.687848 160.168198 
L 353.765908 160.168198 
L 353.765908 113.814199 
L 335.687848 113.814199 
z
" clip-path="url(#p16fa6652ec)" style="fill: #a8a8a8; opacity: 0.6"/>
   </g>
   <g id="patch_12">
    <path d="M 521.103846 67.460199 
L 539.181906 67.460199 
L 539.181906 21.1062 
L 521.103846 21.1062 
z
" clip-path="url(#p16fa6652ec)" style="fill: #a8a8a8; opacity: 0.6"/>
   </g>
   <g id="patch_13">
    <path d="M 521.103846 113.814199 
L 539.181906 113.814199 
L 539.181906 67.460199 
L 521.103846 67.460199 
z
" clip-path="url(#p16fa6652ec)" style="fill: #a8a8a8; opacity: 0.6"/>
   </g>
   <g id="patch_14">
    <path d="M 521.103846 160.168198 
L 539.181906 160.168198 
L 539.181906 113.814199 
L 521.103846 113.814199 
z
" clip-path="url(#p16fa6652ec)" style="fill: #a8a8a8; opacity: 0.6"/>
   </g>
   <g id="patch_15">
    <path d="M 97.891832 59.348249 
L 128.021931 59.348249 
L 128.021931 29.21815 
L 97.891832 29.21815 
z
" clip-path="url(#p16fa6652ec)" style="fill: #fa4d56; stroke: #fa4d56; stroke-width: 1.5; stroke-linejoin: miter"/>
   </g>
   <g id="patch_16">
    <path d="M 97.891832 105.702249 
L 128.021931 105.702249 
L 128.021931 75.572149 
L 97.891832 75.572149 
z
" clip-path="url(#p16fa6652ec)" style="fill: #fa4d56; stroke: #fa4d56; stroke-width: 1.5; stroke-linejoin: miter"/>
   </g>
   <g id="patch_17">
    <path d="M 97.891832 152.056248 
L 128.021931 152.056248 
L 128.021931 121.926148 
L 97.891832 121.926148 
z
" clip-path="url(#p16fa6652ec)" style="fill: #fa4d56; stroke: #fa4d56; stroke-width: 1.5; stroke-linejoin: miter"/>
   </g>
   <g id="patch_18">
    <path d="M 198.48001 152.056248 
L 259.203749 152.056248 
L 259.203749 29.21815 
L 198.48001 29.21815 
z
" clip-path="url(#p16fa6652ec)" style="fill: #9f1853; stroke: #9f1853; stroke-width: 1.5; stroke-linejoin: miter"/>
   </g>
   <g id="patch_19">
    <path d="M 283.307829 59.348249 
L 313.437929 59.348249 
L 313.437929 29.21815 
L 283.307829 29.21815 
z
" clip-path="url(#p16fa6652ec)" style="fill: #9f1853; stroke: #9f1853; stroke-width: 1.5; stroke-linejoin: miter"/>
   </g>
   <g id="patch_20">
    <path d="M 283.307829 105.702249 
L 313.437929 105.702249 
L 313.437929 75.572149 
L 283.307829 75.572149 
z
" clip-path="url(#p16fa6652ec)" style="fill: #9f1853; stroke: #9f1853; stroke-width: 1.5; stroke-linejoin: miter"/>
   </g>
   <g id="patch_21">
    <path d="M 283.307829 152.056248 
L 313.437929 152.056248 
L 313.437929 121.926148 
L 283.307829 121.926148 
z
" clip-path="url(#p16fa6652ec)" style="fill: #9f1853; stroke: #9f1853; stroke-width: 1.5; stroke-linejoin: miter"/>
   </g>
   <g id="patch_22">
    <path d="M 383.896008 152.056248 
L 444.619747 152.056248 
L 444.619747 29.21815 
L 383.896008 29.21815 
z
" clip-path="url(#p16fa6652ec)" style="fill: #9f1853; stroke: #9f1853; stroke-width: 1.5; stroke-linejoin: miter"/>
   </g>
   <g id="patch_23">
    <path d="M 468.723827 59.348249 
L 498.853926 59.348249 
L 498.853926 29.21815 
L 468.723827 29.21815 
z
" clip-path="url(#p16fa6652ec)" style="fill: #9f1853; stroke: #9f1853; stroke-width: 1.5; stroke-linejoin: miter"/>
   </g>
   <g id="patch_24">
    <path d="M 468.723827 105.702249 
L 498.853926 105.702249 
L 498.853926 75.572149 
L 468.723827 75.572149 
z
" clip-path="url(#p16fa6652ec)" style="fill: #9f1853; stroke: #9f1853; stroke-width: 1.5; stroke-linejoin: miter"/>
   </g>
   <g id="patch_25">
    <path d="M 468.723827 152.056248 
L 498.853926 152.056248 
L 498.853926 121.926148 
L 468.723827 121.926148 
z
" clip-path="url(#p16fa6652ec)" style="fill: #9f1853; stroke: #9f1853; stroke-width: 1.5; stroke-linejoin: miter"/>
   </g>
   <g id="patch_26">
    <path d="M 561.431825 59.348249 
L 591.561925 59.348249 
L 591.561925 29.21815 
L 561.431825 29.21815 
z
" clip-path="url(#p16fa6652ec)" style="fill: #a8a8a8; stroke: #a8a8a8; stroke-width: 1.5; stroke-linejoin: miter"/>
   </g>
   <g id="patch_27">
    <path d="M 587.04241 48.802714 
C 587.04241 46.006937 585.930607 43.322808 583.953694 41.345895 
C 581.976781 39.368982 579.292652 38.25718 576.496875 38.25718 
C 573.701098 38.25718 571.016969 39.368982 569.040056 41.345895 
C 567.063143 43.322808 565.95134 46.006937 565.95134 48.802714 
" clip-path="url(#p16fa6652ec)" style="fill: none; stroke: #000000; stroke-width: 2; stroke-linejoin: miter"/>
   </g>
   <g id="line2d_13">
    <path d="M 576.496875 48.802714 
L 587.04241 38.25718 
" clip-path="url(#p16fa6652ec)" style="fill: none; stroke: #000000; stroke-width: 2; stroke-linecap: square"/>
   </g>
   <g id="patch_28">
    <path d="M 607.785825 105.702249 
L 637.915924 105.702249 
L 637.915924 75.572149 
L 607.785825 75.572149 
z
" clip-path="url(#p16fa6652ec)" style="fill: #a8a8a8; stroke: #a8a8a8; stroke-width: 1.5; stroke-linejoin: miter"/>
   </g>
   <g id="patch_29">
    <path d="M 633.396409 95.156714 
C 633.396409 92.360937 632.284607 89.676808 630.307694 87.699895 
C 628.330781 85.722982 625.646652 84.611179 622.850875 84.611179 
C 620.055098 84.611179 617.370968 85.722982 615.394055 87.699895 
C 613.417142 89.676808 612.30534 92.360937 612.30534 95.156714 
" clip-path="url(#p16fa6652ec)" style="fill: none; stroke: #000000; stroke-width: 2; stroke-linejoin: miter"/>
   </g>
   <g id="line2d_14">
    <path d="M 622.850875 95.156714 
L 633.396409 84.611179 
" clip-path="url(#p16fa6652ec)" style="fill: none; stroke: #000000; stroke-width: 2; stroke-linecap: square"/>
   </g>
   <g id="patch_30">
    <path d="M 654.139824 152.056248 
L 684.269924 152.056248 
L 684.269924 121.926148 
L 654.139824 121.926148 
z
" clip-path="url(#p16fa6652ec)" style="fill: #a8a8a8; stroke: #a8a8a8; stroke-width: 1.5; stroke-linejoin: miter"/>
   </g>
   <g id="patch_31">
    <path d="M 679.750409 141.510713 
C 679.750409 138.714936 678.638606 136.030807 676.661693 134.053894 
C 674.68478 132.076981 672.000651 130.965178 669.204874 130.965178 
C 666.409097 130.965178 663.724968 132.076981 661.748055 134.053894 
C 659.771142 136.030807 658.659339 138.714936 658.659339 141.510713 
" clip-path="url(#p16fa6652ec)" style="fill: none; stroke: #000000; stroke-width: 2; stroke-linejoin: miter"/>
   </g>
   <g id="line2d_15">
    <path d="M 669.204874 141.510713 
L 679.750409 130.965178 
" clip-path="url(#p16fa6652ec)" style="fill: none; stroke: #000000; stroke-width: 2; stroke-linecap: square"/>
   </g>
   <g id="text_1">
    <g clip-path="url(#p16fa6652ec)">
     <!-- ${q}_{0}$ -->
     <g transform="translate(60.617422 48.187008) scale(0.1625 -0.1625)">
      <defs>
       <path id="DejaVuSans-Oblique-71" d="M 2669 525 
Q 2438 222 2123 65 
Q 1809 -91 1428 -91 
Q 897 -91 595 267 
Q 294 625 294 1253 
Q 294 1759 480 2231 
Q 666 2703 1013 3078 
Q 1238 3322 1530 3453 
Q 1822 3584 2144 3584 
Q 2531 3584 2781 3431 
Q 3031 3278 3144 2969 
L 3244 3494 
L 3822 3494 
L 2888 -1319 
L 2309 -1319 
L 2669 525 
z
M 891 1338 
Q 891 875 1084 633 
Q 1278 391 1644 391 
Q 2188 391 2572 911 
Q 2956 1431 2956 2175 
Q 2956 2625 2757 2864 
Q 2559 3103 2188 3103 
Q 1916 3103 1684 2976 
Q 1453 2850 1281 2606 
Q 1100 2350 995 2006 
Q 891 1663 891 1338 
z
" transform="scale(0.015625)"/>
       <path id="DejaVuSans-30" d="M 2034 4250 
Q 1547 4250 1301 3770 
Q 1056 3291 1056 2328 
Q 1056 1369 1301 889 
Q 1547 409 2034 409 
Q 2525 409 2770 889 
Q 3016 1369 3016 2328 
Q 3016 3291 2770 3770 
Q 2525 4250 2034 4250 
z
M 2034 4750 
Q 2819 4750 3233 4129 
Q 3647 3509 3647 2328 
Q 3647 1150 3233 529 
Q 2819 -91 2034 -91 
Q 1250 -91 836 529 
Q 422 1150 422 2328 
Q 422 3509 836 4129 
Q 1250 4750 2034 4750 
z
" transform="scale(0.015625)"/>
      </defs>
      <use xlink:href="#DejaVuSans-Oblique-71"/>
      <use xlink:href="#DejaVuSans-30" transform="translate(63.476562 -16.40625) scale(0.7)"/>
     </g>
    </g>
   </g>
   <g id="text_2">
    <g clip-path="url(#p16fa6652ec)">
     <!-- ${q}_{1}$ -->
     <g transform="translate(60.617422 94.541007) scale(0.1625 -0.1625)">
      <defs>
       <path id="DejaVuSans-31" d="M 794 531 
L 1825 531 
L 1825 4091 
L 703 3866 
L 703 4441 
L 1819 4666 
L 2450 4666 
L 2450 531 
L 3481 531 
L 3481 0 
L 794 0 
L 794 531 
z
" transform="scale(0.015625)"/>
      </defs>
      <use xlink:href="#DejaVuSans-Oblique-71"/>
      <use xlink:href="#DejaVuSans-31" transform="translate(63.476562 -16.40625) scale(0.7)"/>
     </g>
    </g>
   </g>
   <g id="text_3">
    <g clip-path="url(#p16fa6652ec)">
     <!-- ${q}_{2}$ -->
     <g transform="translate(60.617422 140.895007) scale(0.1625 -0.1625)">
      <defs>
       <path id="DejaVuSans-32" d="M 1228 531 
L 3431 531 
L 3431 0 
L 469 0 
L 469 531 
Q 828 903 1448 1529 
Q 2069 2156 2228 2338 
Q 2531 2678 2651 2914 
Q 2772 3150 2772 3378 
Q 2772 3750 2511 3984 
Q 2250 4219 1831 4219 
Q 1534 4219 1204 4116 
Q 875 4013 500 3803 
L 500 4441 
Q 881 4594 1212 4672 
Q 1544 4750 1819 4750 
Q 2544 4750 2975 4387 
Q 3406 4025 3406 3419 
Q 3406 3131 3298 2873 
Q 3191 2616 2906 2266 
Q 2828 2175 2409 1742 
Q 1991 1309 1228 531 
z
" transform="scale(0.015625)"/>
      </defs>
      <use xlink:href="#DejaVuSans-Oblique-71"/>
      <use xlink:href="#DejaVuSans-32" transform="translate(63.476562 -16.40625) scale(0.7)"/>
     </g>
    </g>
   </g>
   <g id="text_4">
    <g clip-path="url(#p16fa6652ec)">
     <!-- 3 -->
     <g transform="translate(92.561122 176.485173) scale(0.104 -0.104)">
      <defs>
       <path id="TimesNewRomanPSMT-33" d="M 325 3431 
Q 506 3859 782 4092 
Q 1059 4325 1472 4325 
Q 1981 4325 2253 3994 
Q 2459 3747 2459 3466 
Q 2459 3003 1878 2509 
Q 2269 2356 2469 2072 
Q 2669 1788 2669 1403 
Q 2669 853 2319 450 
Q 1863 -75 997 -75 
Q 569 -75 414 31 
Q 259 138 259 259 
Q 259 350 332 419 
Q 406 488 509 488 
Q 588 488 669 463 
Q 722 447 909 348 
Q 1097 250 1169 231 
Q 1284 197 1416 197 
Q 1734 197 1970 444 
Q 2206 691 2206 1028 
Q 2206 1275 2097 1509 
Q 2016 1684 1919 1775 
Q 1784 1900 1550 2001 
Q 1316 2103 1072 2103 
L 972 2103 
L 972 2197 
Q 1219 2228 1467 2375 
Q 1716 2522 1828 2728 
Q 1941 2934 1941 3181 
Q 1941 3503 1739 3701 
Q 1538 3900 1238 3900 
Q 753 3900 428 3381 
L 325 3431 
z
" transform="scale(0.015625)"/>
      </defs>
      <use xlink:href="#TimesNewRomanPSMT-33"/>
     </g>
    </g>
   </g>
   <g id="text_5">
    <g clip-path="url(#p16fa6652ec)">
     <!-- meas -->
     <g transform="translate(45.263711 187.249006) scale(0.1625 -0.1625)">
      <defs>
       <path id="TimesNewRomanPSMT-6d" d="M 1050 2338 
Q 1363 2650 1419 2697 
Q 1559 2816 1721 2881 
Q 1884 2947 2044 2947 
Q 2313 2947 2506 2790 
Q 2700 2634 2766 2338 
Q 3088 2713 3309 2830 
Q 3531 2947 3766 2947 
Q 3994 2947 4170 2830 
Q 4347 2713 4450 2447 
Q 4519 2266 4519 1878 
L 4519 647 
Q 4519 378 4559 278 
Q 4591 209 4675 161 
Q 4759 113 4950 113 
L 4950 0 
L 3538 0 
L 3538 113 
L 3597 113 
Q 3781 113 3884 184 
Q 3956 234 3988 344 
Q 4000 397 4000 647 
L 4000 1878 
Q 4000 2228 3916 2372 
Q 3794 2572 3525 2572 
Q 3359 2572 3192 2489 
Q 3025 2406 2788 2181 
L 2781 2147 
L 2788 2013 
L 2788 647 
Q 2788 353 2820 281 
Q 2853 209 2943 161 
Q 3034 113 3253 113 
L 3253 0 
L 1806 0 
L 1806 113 
Q 2044 113 2133 169 
Q 2222 225 2256 338 
Q 2272 391 2272 647 
L 2272 1878 
Q 2272 2228 2169 2381 
Q 2031 2581 1784 2581 
Q 1616 2581 1450 2491 
Q 1191 2353 1050 2181 
L 1050 647 
Q 1050 366 1089 281 
Q 1128 197 1204 155 
Q 1281 113 1516 113 
L 1516 0 
L 100 0 
L 100 113 
Q 297 113 375 155 
Q 453 197 493 289 
Q 534 381 534 647 
L 534 1741 
Q 534 2213 506 2350 
Q 484 2453 437 2492 
Q 391 2531 309 2531 
Q 222 2531 100 2484 
L 53 2597 
L 916 2947 
L 1050 2947 
L 1050 2338 
z
" transform="scale(0.015625)"/>
       <path id="TimesNewRomanPSMT-65" d="M 681 1784 
Q 678 1147 991 784 
Q 1303 422 1725 422 
Q 2006 422 2214 576 
Q 2422 731 2563 1106 
L 2659 1044 
Q 2594 616 2278 264 
Q 1963 -88 1488 -88 
Q 972 -88 605 314 
Q 238 716 238 1394 
Q 238 2128 614 2539 
Q 991 2950 1559 2950 
Q 2041 2950 2350 2633 
Q 2659 2316 2659 1784 
L 681 1784 
z
M 681 1966 
L 2006 1966 
Q 1991 2241 1941 2353 
Q 1863 2528 1708 2628 
Q 1553 2728 1384 2728 
Q 1125 2728 920 2526 
Q 716 2325 681 1966 
z
" transform="scale(0.015625)"/>
       <path id="TimesNewRomanPSMT-61" d="M 1822 413 
Q 1381 72 1269 19 
Q 1100 -59 909 -59 
Q 613 -59 420 144 
Q 228 347 228 678 
Q 228 888 322 1041 
Q 450 1253 767 1440 
Q 1084 1628 1822 1897 
L 1822 2009 
Q 1822 2438 1686 2597 
Q 1550 2756 1291 2756 
Q 1094 2756 978 2650 
Q 859 2544 859 2406 
L 866 2225 
Q 866 2081 792 2003 
Q 719 1925 600 1925 
Q 484 1925 411 2006 
Q 338 2088 338 2228 
Q 338 2497 613 2722 
Q 888 2947 1384 2947 
Q 1766 2947 2009 2819 
Q 2194 2722 2281 2516 
Q 2338 2381 2338 1966 
L 2338 994 
Q 2338 584 2353 492 
Q 2369 400 2405 369 
Q 2441 338 2488 338 
Q 2538 338 2575 359 
Q 2641 400 2828 588 
L 2828 413 
Q 2478 -56 2159 -56 
Q 2006 -56 1915 50 
Q 1825 156 1822 413 
z
M 1822 616 
L 1822 1706 
Q 1350 1519 1213 1441 
Q 966 1303 859 1153 
Q 753 1003 753 825 
Q 753 600 887 451 
Q 1022 303 1197 303 
Q 1434 303 1822 616 
z
" transform="scale(0.015625)"/>
       <path id="TimesNewRomanPSMT-73" d="M 2050 2947 
L 2050 1972 
L 1947 1972 
Q 1828 2431 1642 2597 
Q 1456 2763 1169 2763 
Q 950 2763 815 2647 
Q 681 2531 681 2391 
Q 681 2216 781 2091 
Q 878 1963 1175 1819 
L 1631 1597 
Q 2266 1288 2266 781 
Q 2266 391 1970 151 
Q 1675 -88 1309 -88 
Q 1047 -88 709 6 
Q 606 38 541 38 
Q 469 38 428 -44 
L 325 -44 
L 325 978 
L 428 978 
Q 516 541 762 319 
Q 1009 97 1316 97 
Q 1531 97 1667 223 
Q 1803 350 1803 528 
Q 1803 744 1651 891 
Q 1500 1038 1047 1263 
Q 594 1488 453 1669 
Q 313 1847 313 2119 
Q 313 2472 555 2709 
Q 797 2947 1181 2947 
Q 1350 2947 1591 2875 
Q 1750 2828 1803 2828 
Q 1853 2828 1881 2850 
Q 1909 2872 1947 2947 
L 2050 2947 
z
" transform="scale(0.015625)"/>
      </defs>
      <use xlink:href="#TimesNewRomanPSMT-6d"/>
      <use xlink:href="#TimesNewRomanPSMT-65" x="77.783203"/>
      <use xlink:href="#TimesNewRomanPSMT-61" x="122.167969"/>
      <use xlink:href="#TimesNewRomanPSMT-73" x="166.552734"/>
     </g>
    </g>
   </g>
   <g id="text_6">
    <g clip-path="url(#p16fa6652ec)">
     <!-- H -->
     <g transform="translate(108.262663 47.406246) scale(0.13 -0.13)">
      <defs>
       <path id="TimesNewRomanPSMT-48" d="M 1316 2272 
L 3284 2272 
L 3284 3484 
Q 3284 3809 3244 3913 
Q 3213 3991 3113 4047 
Q 2978 4122 2828 4122 
L 2678 4122 
L 2678 4238 
L 4491 4238 
L 4491 4122 
L 4341 4122 
Q 4191 4122 4056 4050 
Q 3956 4000 3920 3898 
Q 3884 3797 3884 3484 
L 3884 750 
Q 3884 428 3925 325 
Q 3956 247 4053 191 
Q 4191 116 4341 116 
L 4491 116 
L 4491 0 
L 2678 0 
L 2678 116 
L 2828 116 
Q 3088 116 3206 269 
Q 3284 369 3284 750 
L 3284 2041 
L 1316 2041 
L 1316 750 
Q 1316 428 1356 325 
Q 1388 247 1488 191 
Q 1622 116 1772 116 
L 1925 116 
L 1925 0 
L 109 0 
L 109 116 
L 259 116 
Q 522 116 641 269 
Q 716 369 716 750 
L 716 3484 
Q 716 3809 675 3913 
Q 644 3991 547 4047 
Q 409 4122 259 4122 
L 109 4122 
L 109 4238 
L 1925 4238 
L 1925 4122 
L 1772 4122 
Q 1622 4122 1488 4050 
Q 1391 4000 1353 3898 
Q 1316 3797 1316 3484 
L 1316 2272 
z
" transform="scale(0.015625)"/>
      </defs>
      <use xlink:href="#TimesNewRomanPSMT-48"/>
     </g>
    </g>
   </g>
   <g id="text_7">
    <g clip-path="url(#p16fa6652ec)">
     <!-- H -->
     <g transform="translate(108.262663 93.760246) scale(0.13 -0.13)">
      <use xlink:href="#TimesNewRomanPSMT-48"/>
     </g>
    </g>
   </g>
   <g id="text_8">
    <g clip-path="url(#p16fa6652ec)">
     <!-- H -->
     <g transform="translate(108.262663 140.114245) scale(0.13 -0.13)">
      <use xlink:href="#TimesNewRomanPSMT-48"/>
     </g>
    </g>
   </g>
   <g id="line2d_16">
    <path d="M 159.310881 21.1062 
L 159.310881 67.460199 
" clip-path="url(#p16fa6652ec)" style="fill: none; stroke-dasharray: 3.7,1.6; stroke-dashoffset: 0; stroke: #000000"/>
   </g>
   <g id="line2d_17">
    <path d="M 159.310881 67.460199 
L 159.310881 113.814199 
" clip-path="url(#p16fa6652ec)" style="fill: none; stroke-dasharray: 3.7,1.6; stroke-dashoffset: 0; stroke: #000000"/>
   </g>
   <g id="line2d_18">
    <path d="M 159.310881 113.814199 
L 159.310881 160.168198 
" clip-path="url(#p16fa6652ec)" style="fill: none; stroke-dasharray: 3.7,1.6; stroke-dashoffset: 0; stroke: #000000"/>
   </g>
   <g id="text_9">
    <g clip-path="url(#p16fa6652ec)">
     <!-- 0 -->
     <g style="fill: #ffffff" transform="translate(201.72479 47.406246) scale(0.13 -0.13)">
      <defs>
       <path id="TimesNewRomanPSMT-30" d="M 231 2094 
Q 231 2819 450 3342 
Q 669 3866 1031 4122 
Q 1313 4325 1613 4325 
Q 2100 4325 2488 3828 
Q 2972 3213 2972 2159 
Q 2972 1422 2759 906 
Q 2547 391 2217 158 
Q 1888 -75 1581 -75 
Q 975 -75 572 641 
Q 231 1244 231 2094 
z
M 844 2016 
Q 844 1141 1059 588 
Q 1238 122 1591 122 
Q 1759 122 1940 273 
Q 2122 425 2216 781 
Q 2359 1319 2359 2297 
Q 2359 3022 2209 3506 
Q 2097 3866 1919 4016 
Q 1791 4119 1609 4119 
Q 1397 4119 1231 3928 
Q 1006 3669 925 3112 
Q 844 2556 844 2016 
z
" transform="scale(0.015625)"/>
      </defs>
      <use xlink:href="#TimesNewRomanPSMT-30"/>
     </g>
    </g>
   </g>
   <g id="text_10">
    <g clip-path="url(#p16fa6652ec)">
     <!-- 1 -->
     <g style="fill: #ffffff" transform="translate(201.72479 93.760246) scale(0.13 -0.13)">
      <defs>
       <path id="TimesNewRomanPSMT-31" d="M 750 3822 
L 1781 4325 
L 1884 4325 
L 1884 747 
Q 1884 391 1914 303 
Q 1944 216 2037 169 
Q 2131 122 2419 116 
L 2419 0 
L 825 0 
L 825 116 
Q 1125 122 1212 167 
Q 1300 213 1334 289 
Q 1369 366 1369 747 
L 1369 3034 
Q 1369 3497 1338 3628 
Q 1316 3728 1258 3775 
Q 1200 3822 1119 3822 
Q 1003 3822 797 3725 
L 750 3822 
z
" transform="scale(0.015625)"/>
      </defs>
      <use xlink:href="#TimesNewRomanPSMT-31"/>
     </g>
    </g>
   </g>
   <g id="text_11">
    <g clip-path="url(#p16fa6652ec)">
     <!-- 2 -->
     <g style="fill: #ffffff" transform="translate(201.72479 140.114245) scale(0.13 -0.13)">
      <defs>
       <path id="TimesNewRomanPSMT-32" d="M 2934 816 
L 2638 0 
L 138 0 
L 138 116 
Q 1241 1122 1691 1759 
Q 2141 2397 2141 2925 
Q 2141 3328 1894 3587 
Q 1647 3847 1303 3847 
Q 991 3847 742 3664 
Q 494 3481 375 3128 
L 259 3128 
Q 338 3706 661 4015 
Q 984 4325 1469 4325 
Q 1984 4325 2329 3994 
Q 2675 3663 2675 3213 
Q 2675 2891 2525 2569 
Q 2294 2063 1775 1497 
Q 997 647 803 472 
L 1909 472 
Q 2247 472 2383 497 
Q 2519 522 2628 598 
Q 2738 675 2819 816 
L 2934 816 
z
" transform="scale(0.015625)"/>
      </defs>
      <use xlink:href="#TimesNewRomanPSMT-32"/>
     </g>
    </g>
   </g>
   <g id="text_12">
    <g clip-path="url(#p16fa6652ec)">
     <!-- Unitary -->
     <g style="fill: #ffffff" transform="translate(214.085351 93.748058) scale(0.13 -0.13)">
      <defs>
       <path id="TimesNewRomanPSMT-55" d="M 3053 4122 
L 3053 4238 
L 4553 4238 
L 4553 4122 
L 4394 4122 
Q 4144 4122 4009 3913 
Q 3944 3816 3944 3463 
L 3944 1744 
Q 3944 1106 3817 754 
Q 3691 403 3320 151 
Q 2950 -100 2313 -100 
Q 1619 -100 1259 140 
Q 900 381 750 788 
Q 650 1066 650 1831 
L 650 3488 
Q 650 3878 542 4000 
Q 434 4122 194 4122 
L 34 4122 
L 34 4238 
L 1866 4238 
L 1866 4122 
L 1703 4122 
Q 1441 4122 1328 3956 
Q 1250 3844 1250 3488 
L 1250 1641 
Q 1250 1394 1295 1075 
Q 1341 756 1459 578 
Q 1578 400 1801 284 
Q 2025 169 2350 169 
Q 2766 169 3094 350 
Q 3422 531 3542 814 
Q 3663 1097 3663 1772 
L 3663 3488 
Q 3663 3884 3575 3984 
Q 3453 4122 3213 4122 
L 3053 4122 
z
" transform="scale(0.015625)"/>
       <path id="TimesNewRomanPSMT-6e" d="M 1034 2341 
Q 1538 2947 1994 2947 
Q 2228 2947 2397 2830 
Q 2566 2713 2666 2444 
Q 2734 2256 2734 1869 
L 2734 647 
Q 2734 375 2778 278 
Q 2813 200 2889 156 
Q 2966 113 3172 113 
L 3172 0 
L 1756 0 
L 1756 113 
L 1816 113 
Q 2016 113 2095 173 
Q 2175 234 2206 353 
Q 2219 400 2219 647 
L 2219 1819 
Q 2219 2209 2117 2386 
Q 2016 2563 1775 2563 
Q 1403 2563 1034 2156 
L 1034 647 
Q 1034 356 1069 288 
Q 1113 197 1189 155 
Q 1266 113 1500 113 
L 1500 0 
L 84 0 
L 84 113 
L 147 113 
Q 366 113 442 223 
Q 519 334 519 647 
L 519 1709 
Q 519 2225 495 2337 
Q 472 2450 423 2490 
Q 375 2531 294 2531 
Q 206 2531 84 2484 
L 38 2597 
L 900 2947 
L 1034 2947 
L 1034 2341 
z
" transform="scale(0.015625)"/>
       <path id="TimesNewRomanPSMT-69" d="M 928 4444 
Q 1059 4444 1151 4351 
Q 1244 4259 1244 4128 
Q 1244 3997 1151 3903 
Q 1059 3809 928 3809 
Q 797 3809 703 3903 
Q 609 3997 609 4128 
Q 609 4259 701 4351 
Q 794 4444 928 4444 
z
M 1188 2947 
L 1188 647 
Q 1188 378 1227 289 
Q 1266 200 1342 156 
Q 1419 113 1622 113 
L 1622 0 
L 231 0 
L 231 113 
Q 441 113 512 153 
Q 584 194 626 287 
Q 669 381 669 647 
L 669 1750 
Q 669 2216 641 2353 
Q 619 2453 572 2492 
Q 525 2531 444 2531 
Q 356 2531 231 2484 
L 188 2597 
L 1050 2947 
L 1188 2947 
z
" transform="scale(0.015625)"/>
       <path id="TimesNewRomanPSMT-74" d="M 1031 3803 
L 1031 2863 
L 1700 2863 
L 1700 2644 
L 1031 2644 
L 1031 788 
Q 1031 509 1111 412 
Q 1191 316 1316 316 
Q 1419 316 1516 380 
Q 1613 444 1666 569 
L 1788 569 
Q 1678 263 1478 108 
Q 1278 -47 1066 -47 
Q 922 -47 784 33 
Q 647 113 581 261 
Q 516 409 516 719 
L 516 2644 
L 63 2644 
L 63 2747 
Q 234 2816 414 2980 
Q 594 3144 734 3369 
Q 806 3488 934 3803 
L 1031 3803 
z
" transform="scale(0.015625)"/>
       <path id="TimesNewRomanPSMT-72" d="M 1038 2947 
L 1038 2303 
Q 1397 2947 1775 2947 
Q 1947 2947 2059 2842 
Q 2172 2738 2172 2600 
Q 2172 2478 2090 2393 
Q 2009 2309 1897 2309 
Q 1788 2309 1652 2417 
Q 1516 2525 1450 2525 
Q 1394 2525 1328 2463 
Q 1188 2334 1038 2041 
L 1038 669 
Q 1038 431 1097 309 
Q 1138 225 1241 169 
Q 1344 113 1538 113 
L 1538 0 
L 72 0 
L 72 113 
Q 291 113 397 181 
Q 475 231 506 341 
Q 522 394 522 644 
L 522 1753 
Q 522 2253 501 2348 
Q 481 2444 426 2487 
Q 372 2531 291 2531 
Q 194 2531 72 2484 
L 41 2597 
L 906 2947 
L 1038 2947 
z
" transform="scale(0.015625)"/>
       <path id="TimesNewRomanPSMT-79" d="M 38 2863 
L 1372 2863 
L 1372 2747 
L 1306 2747 
Q 1166 2747 1095 2686 
Q 1025 2625 1025 2534 
Q 1025 2413 1128 2197 
L 1825 753 
L 2466 2334 
Q 2519 2463 2519 2588 
Q 2519 2644 2497 2672 
Q 2472 2706 2419 2726 
Q 2366 2747 2231 2747 
L 2231 2863 
L 3163 2863 
L 3163 2747 
Q 3047 2734 2984 2696 
Q 2922 2659 2847 2556 
Q 2819 2513 2741 2316 
L 1575 -541 
Q 1406 -956 1132 -1168 
Q 859 -1381 606 -1381 
Q 422 -1381 303 -1275 
Q 184 -1169 184 -1031 
Q 184 -900 270 -820 
Q 356 -741 506 -741 
Q 609 -741 788 -809 
Q 913 -856 944 -856 
Q 1038 -856 1148 -759 
Q 1259 -663 1372 -384 
L 1575 113 
L 547 2272 
Q 500 2369 397 2513 
Q 319 2622 269 2659 
Q 197 2709 38 2747 
L 38 2863 
z
" transform="scale(0.015625)"/>
      </defs>
      <use xlink:href="#TimesNewRomanPSMT-55"/>
      <use xlink:href="#TimesNewRomanPSMT-6e" x="72.216797"/>
      <use xlink:href="#TimesNewRomanPSMT-69" x="122.216797"/>
      <use xlink:href="#TimesNewRomanPSMT-74" x="150"/>
      <use xlink:href="#TimesNewRomanPSMT-61" x="177.783203"/>
      <use xlink:href="#TimesNewRomanPSMT-72" x="222.167969"/>
      <use xlink:href="#TimesNewRomanPSMT-79" x="255.46875"/>
     </g>
    </g>
   </g>
   <g id="text_13">
    <g clip-path="url(#p16fa6652ec)">
     <!-- $\pi$/3 -->
     <g style="fill: #ffffff" transform="translate(292.852879 55.244104) scale(0.08 -0.08)">
      <defs>
       <path id="DejaVuSans-Oblique-3c0" d="M 584 3500 
L 3938 3500 
L 3825 2925 
L 3384 2925 
L 2966 775 
Q 2922 550 2981 450 
Q 3038 353 3209 353 
Q 3256 353 3325 363 
Q 3397 369 3419 372 
L 3338 -44 
Q 3222 -84 3103 -103 
Q 2981 -122 2866 -122 
Q 2491 -122 2388 81 
Q 2284 288 2391 838 
L 2797 2925 
L 1506 2925 
L 938 0 
L 350 0 
L 919 2925 
L 472 2925 
L 584 3500 
z
" transform="scale(0.015625)"/>
       <path id="TimesNewRomanPSMT-2f" d="M 1794 4444 
L 259 -88 
L 9 -88 
L 1544 4444 
L 1794 4444 
z
" transform="scale(0.015625)"/>
      </defs>
      <use xlink:href="#DejaVuSans-Oblique-3c0" transform="translate(0 0.5625)"/>
      <use xlink:href="#TimesNewRomanPSMT-2f" transform="translate(60.205078 0.5625)"/>
      <use xlink:href="#TimesNewRomanPSMT-33" transform="translate(87.988281 0.5625)"/>
     </g>
    </g>
   </g>
   <g id="text_14">
    <g clip-path="url(#p16fa6652ec)">
     <!-- $\mathrm{R_X}$ -->
     <g style="fill: #ffffff" transform="translate(290.442879 42.886731) scale(0.13 -0.13)">
      <defs>
       <path id="DejaVuSans-52" d="M 2841 2188 
Q 3044 2119 3236 1894 
Q 3428 1669 3622 1275 
L 4263 0 
L 3584 0 
L 2988 1197 
Q 2756 1666 2539 1819 
Q 2322 1972 1947 1972 
L 1259 1972 
L 1259 0 
L 628 0 
L 628 4666 
L 2053 4666 
Q 2853 4666 3247 4331 
Q 3641 3997 3641 3322 
Q 3641 2881 3436 2590 
Q 3231 2300 2841 2188 
z
M 1259 4147 
L 1259 2491 
L 2053 2491 
Q 2509 2491 2742 2702 
Q 2975 2913 2975 3322 
Q 2975 3731 2742 3939 
Q 2509 4147 2053 4147 
L 1259 4147 
z
" transform="scale(0.015625)"/>
       <path id="DejaVuSans-58" d="M 403 4666 
L 1081 4666 
L 2241 2931 
L 3406 4666 
L 4084 4666 
L 2584 2425 
L 4184 0 
L 3506 0 
L 2194 1984 
L 872 0 
L 191 0 
L 1856 2491 
L 403 4666 
z
" transform="scale(0.015625)"/>
      </defs>
      <use xlink:href="#DejaVuSans-52" transform="translate(0 0.09375)"/>
      <use xlink:href="#DejaVuSans-58" transform="translate(70.439453 -16.3125) scale(0.7)"/>
     </g>
    </g>
   </g>
   <g id="text_15">
    <g clip-path="url(#p16fa6652ec)">
     <!-- $\pi$/3 -->
     <g style="fill: #ffffff" transform="translate(292.852879 101.598104) scale(0.08 -0.08)">
      <use xlink:href="#DejaVuSans-Oblique-3c0" transform="translate(0 0.5625)"/>
      <use xlink:href="#TimesNewRomanPSMT-2f" transform="translate(60.205078 0.5625)"/>
      <use xlink:href="#TimesNewRomanPSMT-33" transform="translate(87.988281 0.5625)"/>
     </g>
    </g>
   </g>
   <g id="text_16">
    <g clip-path="url(#p16fa6652ec)">
     <!-- $\mathrm{R_X}$ -->
     <g style="fill: #ffffff" transform="translate(290.442879 89.240731) scale(0.13 -0.13)">
      <use xlink:href="#DejaVuSans-52" transform="translate(0 0.09375)"/>
      <use xlink:href="#DejaVuSans-58" transform="translate(70.439453 -16.3125) scale(0.7)"/>
     </g>
    </g>
   </g>
   <g id="text_17">
    <g clip-path="url(#p16fa6652ec)">
     <!-- $\pi$/3 -->
     <g style="fill: #ffffff" transform="translate(292.852879 147.952103) scale(0.08 -0.08)">
      <use xlink:href="#DejaVuSans-Oblique-3c0" transform="translate(0 0.5625)"/>
      <use xlink:href="#TimesNewRomanPSMT-2f" transform="translate(60.205078 0.5625)"/>
      <use xlink:href="#TimesNewRomanPSMT-33" transform="translate(87.988281 0.5625)"/>
     </g>
    </g>
   </g>
   <g id="text_18">
    <g clip-path="url(#p16fa6652ec)">
     <!-- $\mathrm{R_X}$ -->
     <g style="fill: #ffffff" transform="translate(290.442879 135.59473) scale(0.13 -0.13)">
      <use xlink:href="#DejaVuSans-52" transform="translate(0 0.09375)"/>
      <use xlink:href="#DejaVuSans-58" transform="translate(70.439453 -16.3125) scale(0.7)"/>
     </g>
    </g>
   </g>
   <g id="line2d_19">
    <path d="M 344.726878 21.1062 
L 344.726878 67.460199 
" clip-path="url(#p16fa6652ec)" style="fill: none; stroke-dasharray: 3.7,1.6; stroke-dashoffset: 0; stroke: #000000"/>
   </g>
   <g id="line2d_20">
    <path d="M 344.726878 67.460199 
L 344.726878 113.814199 
" clip-path="url(#p16fa6652ec)" style="fill: none; stroke-dasharray: 3.7,1.6; stroke-dashoffset: 0; stroke: #000000"/>
   </g>
   <g id="line2d_21">
    <path d="M 344.726878 113.814199 
L 344.726878 160.168198 
" clip-path="url(#p16fa6652ec)" style="fill: none; stroke-dasharray: 3.7,1.6; stroke-dashoffset: 0; stroke: #000000"/>
   </g>
   <g id="text_19">
    <g clip-path="url(#p16fa6652ec)">
     <!-- 0 -->
     <g style="fill: #ffffff" transform="translate(387.140788 47.406246) scale(0.13 -0.13)">
      <use xlink:href="#TimesNewRomanPSMT-30"/>
     </g>
    </g>
   </g>
   <g id="text_20">
    <g clip-path="url(#p16fa6652ec)">
     <!-- 1 -->
     <g style="fill: #ffffff" transform="translate(387.140788 93.760246) scale(0.13 -0.13)">
      <use xlink:href="#TimesNewRomanPSMT-31"/>
     </g>
    </g>
   </g>
   <g id="text_21">
    <g clip-path="url(#p16fa6652ec)">
     <!-- 2 -->
     <g style="fill: #ffffff" transform="translate(387.140788 140.114245) scale(0.13 -0.13)">
      <use xlink:href="#TimesNewRomanPSMT-32"/>
     </g>
    </g>
   </g>
   <g id="text_22">
    <g clip-path="url(#p16fa6652ec)">
     <!-- Unitary -->
     <g style="fill: #ffffff" transform="translate(399.501349 93.748058) scale(0.13 -0.13)">
      <use xlink:href="#TimesNewRomanPSMT-55"/>
      <use xlink:href="#TimesNewRomanPSMT-6e" x="72.216797"/>
      <use xlink:href="#TimesNewRomanPSMT-69" x="122.216797"/>
      <use xlink:href="#TimesNewRomanPSMT-74" x="150"/>
      <use xlink:href="#TimesNewRomanPSMT-61" x="177.783203"/>
      <use xlink:href="#TimesNewRomanPSMT-72" x="222.167969"/>
      <use xlink:href="#TimesNewRomanPSMT-79" x="255.46875"/>
     </g>
    </g>
   </g>
   <g id="text_23">
    <g clip-path="url(#p16fa6652ec)">
     <!-- $\pi$/3 -->
     <g style="fill: #ffffff" transform="translate(478.268876 55.244104) scale(0.08 -0.08)">
      <use xlink:href="#DejaVuSans-Oblique-3c0" transform="translate(0 0.5625)"/>
      <use xlink:href="#TimesNewRomanPSMT-2f" transform="translate(60.205078 0.5625)"/>
      <use xlink:href="#TimesNewRomanPSMT-33" transform="translate(87.988281 0.5625)"/>
     </g>
    </g>
   </g>
   <g id="text_24">
    <g clip-path="url(#p16fa6652ec)">
     <!-- $\mathrm{R_X}$ -->
     <g style="fill: #ffffff" transform="translate(475.858876 42.886731) scale(0.13 -0.13)">
      <use xlink:href="#DejaVuSans-52" transform="translate(0 0.09375)"/>
      <use xlink:href="#DejaVuSans-58" transform="translate(70.439453 -16.3125) scale(0.7)"/>
     </g>
    </g>
   </g>
   <g id="text_25">
    <g clip-path="url(#p16fa6652ec)">
     <!-- $\pi$/3 -->
     <g style="fill: #ffffff" transform="translate(478.268876 101.598104) scale(0.08 -0.08)">
      <use xlink:href="#DejaVuSans-Oblique-3c0" transform="translate(0 0.5625)"/>
      <use xlink:href="#TimesNewRomanPSMT-2f" transform="translate(60.205078 0.5625)"/>
      <use xlink:href="#TimesNewRomanPSMT-33" transform="translate(87.988281 0.5625)"/>
     </g>
    </g>
   </g>
   <g id="text_26">
    <g clip-path="url(#p16fa6652ec)">
     <!-- $\mathrm{R_X}$ -->
     <g style="fill: #ffffff" transform="translate(475.858876 89.240731) scale(0.13 -0.13)">
      <use xlink:href="#DejaVuSans-52" transform="translate(0 0.09375)"/>
      <use xlink:href="#DejaVuSans-58" transform="translate(70.439453 -16.3125) scale(0.7)"/>
     </g>
    </g>
   </g>
   <g id="text_27">
    <g clip-path="url(#p16fa6652ec)">
     <!-- $\pi$/3 -->
     <g style="fill: #ffffff" transform="translate(478.268876 147.952103) scale(0.08 -0.08)">
      <use xlink:href="#DejaVuSans-Oblique-3c0" transform="translate(0 0.5625)"/>
      <use xlink:href="#TimesNewRomanPSMT-2f" transform="translate(60.205078 0.5625)"/>
      <use xlink:href="#TimesNewRomanPSMT-33" transform="translate(87.988281 0.5625)"/>
     </g>
    </g>
   </g>
   <g id="text_28">
    <g clip-path="url(#p16fa6652ec)">
     <!-- $\mathrm{R_X}$ -->
     <g style="fill: #ffffff" transform="translate(475.858876 135.59473) scale(0.13 -0.13)">
      <use xlink:href="#DejaVuSans-52" transform="translate(0 0.09375)"/>
      <use xlink:href="#DejaVuSans-58" transform="translate(70.439453 -16.3125) scale(0.7)"/>
     </g>
    </g>
   </g>
   <g id="line2d_22">
    <path d="M 530.142876 21.1062 
L 530.142876 67.460199 
" clip-path="url(#p16fa6652ec)" style="fill: none; stroke-dasharray: 3.7,1.6; stroke-dashoffset: 0; stroke: #000000"/>
   </g>
   <g id="line2d_23">
    <path d="M 530.142876 67.460199 
L 530.142876 113.814199 
" clip-path="url(#p16fa6652ec)" style="fill: none; stroke-dasharray: 3.7,1.6; stroke-dashoffset: 0; stroke: #000000"/>
   </g>
   <g id="line2d_24">
    <path d="M 530.142876 113.814199 
L 530.142876 160.168198 
" clip-path="url(#p16fa6652ec)" style="fill: none; stroke-dasharray: 3.7,1.6; stroke-dashoffset: 0; stroke: #000000"/>
   </g>
   <g id="text_29">
    <g clip-path="url(#p16fa6652ec)">
     <!-- 0 -->
     <g transform="translate(588.085375 176.485173) scale(0.104 -0.104)">
      <use xlink:href="#TimesNewRomanPSMT-30"/>
     </g>
    </g>
   </g>
   <g id="text_30">
    <g clip-path="url(#p16fa6652ec)">
     <!-- 1 -->
     <g transform="translate(634.439374 176.485173) scale(0.104 -0.104)">
      <use xlink:href="#TimesNewRomanPSMT-31"/>
     </g>
    </g>
   </g>
   <g id="text_31">
    <g clip-path="url(#p16fa6652ec)">
     <!-- 2 -->
     <g transform="translate(680.793374 176.485173) scale(0.104 -0.104)">
      <use xlink:href="#TimesNewRomanPSMT-32"/>
     </g>
    </g>
   </g>
  </g>
 </g>
 <defs>
  <clipPath id="p16fa6652ec">
   <rect x="7.2" y="7.2" width="692.598514" height="203.957597"/>
  </clipPath>
 </defs>
</svg>
