<?xml version="1.0" encoding="utf-8" standalone="no"?>
<!DOCTYPE svg PUBLIC "-//W3C//DTD SVG 1.1//EN"
  "http://www.w3.org/Graphics/SVG/1.1/DTD/svg11.dtd">
<svg xmlns:xlink="http://www.w3.org/1999/xlink" width="180pt" height="180pt" viewBox="0 0 180 180" xmlns="http://www.w3.org/2000/svg" version="1.1">
 <metadata>
  <rdf:RDF xmlns:dc="http://purl.org/dc/elements/1.1/" xmlns:cc="http://creativecommons.org/ns#" xmlns:rdf="http://www.w3.org/1999/02/22-rdf-syntax-ns#">
   <cc:Work>
    <dc:type rdf:resource="http://purl.org/dc/dcmitype/StillImage"/>
    <dc:date>2024-06-03T19:39:40.103872</dc:date>
    <dc:format>image/svg+xml</dc:format>
    <dc:creator>
     <cc:Agent>
      <dc:title>Matplotlib v3.7.5, https://matplotlib.org/</dc:title>
     </cc:Agent>
    </dc:creator>
   </cc:Work>
  </rdf:RDF>
 </metadata>
 <defs>
  <style type="text/css">*{stroke-linejoin: round; stroke-linecap: butt}</style>
 </defs>
 <g id="figure_1">
  <g id="patch_1">
   <path d="M 0 180 
L 180 180 
L 180 0 
L 0 0 
z
" style="fill: #ffffff"/>
  </g>
  <g id="axes_1">
   <g id="LineCollection_1">
    <path d="M 164.380165 89.999997 
L 15.619835 15.619835 
" clip-path="url(#p3456760072)" style="fill: none; stroke: #000000"/>
    <path d="M 164.380165 89.999997 
L 15.619849 164.380165 
" clip-path="url(#p3456760072)" style="fill: none; stroke: #000000"/>
    <path d="M 15.619835 15.619835 
L 15.619849 164.380165 
" clip-path="url(#p3456760072)" style="fill: none; stroke: #000000"/>
   </g>
   <g id="text_1">
    <g id="patch_2">
     <path d="M 83.648868 58.398689 
L 89.339661 61.244085 
Q 92.022943 62.585726 93.364584 59.902444 
L 97.692773 51.246066 
Q 99.034413 48.562784 96.351132 47.221144 
L 90.660339 44.375747 
Q 87.977057 43.034106 86.635416 45.717388 
L 82.307227 54.373766 
Q 80.965587 57.057048 83.648868 58.398689 
z
" clip-path="url(#p3456760072)" style="fill: #ffffff; stroke: #ffffff; stroke-linejoin: miter"/>
    </g>
    <g clip-path="url(#p3456760072)">
     <!-- 1 -->
     <g transform="translate(85.920573 53.855278) rotate(-333.43495) scale(0.1 -0.1)">
      <defs>
       <path id="DejaVuSans-31" d="M 794 531 
L 1825 531 
L 1825 4091 
L 703 3866 
L 703 4441 
L 1819 4666 
L 2450 4666 
L 2450 531 
L 3481 531 
L 3481 0 
L 794 0 
L 794 531 
z
" transform="scale(0.015625)"/>
      </defs>
      <use xlink:href="#DejaVuSans-31"/>
     </g>
    </g>
   </g>
   <g id="text_2">
    <g id="patch_3">
     <path d="M 90.660347 135.62425 
L 96.35114 132.778853 
Q 99.034421 131.437212 97.69278 128.753931 
L 93.364591 120.097553 
Q 92.02295 117.414272 89.339668 118.755912 
L 83.648875 121.601309 
Q 80.965594 122.94295 82.307235 125.626232 
L 86.635424 134.28261 
Q 87.977065 136.965891 90.660347 135.62425 
z
" clip-path="url(#p3456760072)" style="fill: #ffffff; stroke: #ffffff; stroke-linejoin: miter"/>
    </g>
    <g clip-path="url(#p3456760072)">
     <!-- 1 -->
     <g transform="translate(88.388641 131.08084) rotate(-26.565054) scale(0.1 -0.1)">
      <use xlink:href="#DejaVuSans-31"/>
     </g>
    </g>
   </g>
   <g id="text_3">
    <g id="patch_4">
     <path d="M 7.780779 86.818751 
L 7.78078 93.181251 
Q 7.78078 96.181251 10.78078 96.18125 
L 20.458905 96.18125 
Q 23.458905 96.181249 23.458905 93.181249 
L 23.458904 86.818749 
Q 23.458904 83.818749 20.458904 83.81875 
L 10.780779 83.81875 
Q 7.780779 83.818751 7.780779 86.818751 
z
" clip-path="url(#p3456760072)" style="fill: #ffffff; stroke: #ffffff; stroke-linejoin: miter"/>
    </g>
    <g clip-path="url(#p3456760072)">
     <!-- 1 -->
     <g transform="translate(12.860467 86.81875) rotate(-270.000006) scale(0.1 -0.1)">
      <use xlink:href="#DejaVuSans-31"/>
     </g>
    </g>
   </g>
   <g id="PathCollection_1">
    <defs>
     <path id="C0_0_879c0ebbf0" d="M 0 13.228757 
C 3.508307 13.228757 6.873396 11.834891 9.354143 9.354143 
C 11.834891 6.873396 13.228757 3.508307 13.228757 -0 
C 13.228757 -3.508307 11.834891 -6.873396 9.354143 -9.354143 
C 6.873396 -11.834891 3.508307 -13.228757 0 -13.228757 
C -3.508307 -13.228757 -6.873396 -11.834891 -9.354143 -9.354143 
C -11.834891 -6.873396 -13.228757 -3.508307 -13.228757 0 
C -13.228757 3.508307 -11.834891 6.873396 -9.354143 9.354143 
C -6.873396 11.834891 -3.508307 13.228757 0 13.228757 
z
"/>
    </defs>
    <g clip-path="url(#p3456760072)">
     <use xlink:href="#C0_0_879c0ebbf0" x="164.380165" y="89.999997" style="fill: #add8e6"/>
    </g>
    <g clip-path="url(#p3456760072)">
     <use xlink:href="#C0_0_879c0ebbf0" x="15.619835" y="15.619835" style="fill: #add8e6"/>
    </g>
    <g clip-path="url(#p3456760072)">
     <use xlink:href="#C0_0_879c0ebbf0" x="15.619849" y="164.380165" style="fill: #add8e6"/>
    </g>
   </g>
   <g id="text_4">
    <g clip-path="url(#p3456760072)">
     <!-- 0 -->
     <g transform="translate(160.562665 93.311247) scale(0.12 -0.12)">
      <defs>
       <path id="DejaVuSans-30" d="M 2034 4250 
Q 1547 4250 1301 3770 
Q 1056 3291 1056 2328 
Q 1056 1369 1301 889 
Q 1547 409 2034 409 
Q 2525 409 2770 889 
Q 3016 1369 3016 2328 
Q 3016 3291 2770 3770 
Q 2525 4250 2034 4250 
z
M 2034 4750 
Q 2819 4750 3233 4129 
Q 3647 3509 3647 2328 
Q 3647 1150 3233 529 
Q 2819 -91 2034 -91 
Q 1250 -91 836 529 
Q 422 1150 422 2328 
Q 422 3509 836 4129 
Q 1250 4750 2034 4750 
z
" transform="scale(0.015625)"/>
      </defs>
      <use xlink:href="#DejaVuSans-30"/>
     </g>
    </g>
   </g>
   <g id="text_5">
    <g clip-path="url(#p3456760072)">
     <!-- 1 -->
     <g transform="translate(11.802335 18.931085) scale(0.12 -0.12)">
      <use xlink:href="#DejaVuSans-31"/>
     </g>
    </g>
   </g>
   <g id="text_6">
    <g clip-path="url(#p3456760072)">
     <!-- 2 -->
     <g transform="translate(11.802349 167.691415) scale(0.12 -0.12)">
      <defs>
       <path id="DejaVuSans-32" d="M 1228 531 
L 3431 531 
L 3431 0 
L 469 0 
L 469 531 
Q 828 903 1448 1529 
Q 2069 2156 2228 2338 
Q 2531 2678 2651 2914 
Q 2772 3150 2772 3378 
Q 2772 3750 2511 3984 
Q 2250 4219 1831 4219 
Q 1534 4219 1204 4116 
Q 875 4013 500 3803 
L 500 4441 
Q 881 4594 1212 4672 
Q 1544 4750 1819 4750 
Q 2544 4750 2975 4387 
Q 3406 4025 3406 3419 
Q 3406 3131 3298 2873 
Q 3191 2616 2906 2266 
Q 2828 2175 2409 1742 
Q 1991 1309 1228 531 
z
" transform="scale(0.015625)"/>
      </defs>
      <use xlink:href="#DejaVuSans-32"/>
     </g>
    </g>
   </g>
  </g>
 </g>
 <defs>
  <clipPath id="p3456760072">
   <rect x="0" y="0" width="180" height="180"/>
  </clipPath>
 </defs>
</svg>
