<?xml version="1.0" encoding="utf-8" standalone="no"?>
<!DOCTYPE svg PUBLIC "-//W3C//DTD SVG 1.1//EN"
  "http://www.w3.org/Graphics/SVG/1.1/DTD/svg11.dtd">
<svg xmlns:xlink="http://www.w3.org/1999/xlink" width="1840.846875pt" height="1036.054231pt" viewBox="0 0 1840.846875 1036.054231" xmlns="http://www.w3.org/2000/svg" version="1.1">
 <metadata>
  <rdf:RDF xmlns:dc="http://purl.org/dc/elements/1.1/" xmlns:cc="http://creativecommons.org/ns#" xmlns:rdf="http://www.w3.org/1999/02/22-rdf-syntax-ns#">
   <cc:Work>
    <dc:type rdf:resource="http://purl.org/dc/dcmitype/StillImage"/>
    <dc:date>2024-07-24T10:54:07.820321</dc:date>
    <dc:format>image/svg+xml</dc:format>
    <dc:creator>
     <cc:Agent>
      <dc:title>Matplotlib v3.9.0, https://matplotlib.org/</dc:title>
     </cc:Agent>
    </dc:creator>
   </cc:Work>
  </rdf:RDF>
 </metadata>
 <defs>
  <style type="text/css">*{stroke-linejoin: round; stroke-linecap: butt}</style>
 </defs>
 <g id="figure_1">
  <g id="patch_1">
   <path d="M 0 1036.054231 
L 1840.846875 1036.054231 
L 1840.846875 0 
L 0 0 
z
" style="fill: #ffffff"/>
  </g>
  <g id="axes_1">
   <g id="patch_2">
    <path d="M 164.423438 946.194075 
L 1676.423438 946.194075 
L 1676.423438 610.530075 
L 164.423438 610.530075 
z
" style="fill: #fffef8; fill-opacity: 0.466667"/>
   </g>
   <g id="patch_3">
    <path d="M 185.423438 946.194075 
L 210.623438 946.194075 
L 210.623438 873.610481 
L 185.423438 873.610481 
z
" clip-path="url(#pb429540c33)" style="fill: #7cbeec"/>
   </g>
   <g id="patch_4">
    <path d="M 353.423438 946.194075 
L 378.623438 946.194075 
L 378.623438 934.487044 
L 353.423438 934.487044 
z
" clip-path="url(#pb429540c33)" style="fill: #7cbeec"/>
   </g>
   <g id="patch_5">
    <path d="M 521.423438 946.194075 
L 546.623438 946.194075 
L 546.623438 929.804231 
L 521.423438 929.804231 
z
" clip-path="url(#pb429540c33)" style="fill: #7cbeec"/>
   </g>
   <g id="patch_6">
    <path d="M 689.423437 946.194075 
L 714.623437 946.194075 
L 714.623437 894.683137 
L 689.423437 894.683137 
z
" clip-path="url(#pb429540c33)" style="fill: #7cbeec"/>
   </g>
   <g id="patch_7">
    <path d="M 857.423437 946.194075 
L 882.623438 946.194075 
L 882.623438 939.169856 
L 857.423437 939.169856 
z
" clip-path="url(#pb429540c33)" style="fill: #7cbeec"/>
   </g>
   <g id="patch_8">
    <path d="M 1025.423438 946.194075 
L 1050.623438 946.194075 
L 1050.623438 925.121419 
L 1025.423438 925.121419 
z
" clip-path="url(#pb429540c33)" style="fill: #7cbeec"/>
   </g>
   <g id="patch_9">
    <path d="M 1193.423437 946.194075 
L 1218.623437 946.194075 
L 1218.623437 908.731575 
L 1193.423437 908.731575 
z
" clip-path="url(#pb429540c33)" style="fill: #7cbeec"/>
   </g>
   <g id="patch_10">
    <path d="M 1361.423437 946.194075 
L 1386.623437 946.194075 
L 1386.623437 946.194075 
L 1361.423437 946.194075 
z
" clip-path="url(#pb429540c33)" style="fill: #7cbeec"/>
   </g>
   <g id="patch_11">
    <path d="M 1529.423438 946.194075 
L 1554.623438 946.194075 
L 1554.623438 932.145637 
L 1529.423438 932.145637 
z
" clip-path="url(#pb429540c33)" style="fill: #7cbeec"/>
   </g>
   <g id="patch_12">
    <path d="M 210.623438 946.194075 
L 235.823438 946.194075 
L 235.823438 904.048762 
L 210.623438 904.048762 
z
" clip-path="url(#pb429540c33)" style="fill: #7eb57e"/>
   </g>
   <g id="patch_13">
    <path d="M 378.623438 946.194075 
L 403.823438 946.194075 
L 403.823438 932.145637 
L 378.623438 932.145637 
z
" clip-path="url(#pb429540c33)" style="fill: #7eb57e"/>
   </g>
   <g id="patch_14">
    <path d="M 546.623438 946.194075 
L 571.823437 946.194075 
L 571.823437 934.487044 
L 546.623438 934.487044 
z
" clip-path="url(#pb429540c33)" style="fill: #7eb57e"/>
   </g>
   <g id="patch_15">
    <path d="M 714.623438 946.194075 
L 739.823437 946.194075 
L 739.823437 880.6347 
L 714.623438 880.6347 
z
" clip-path="url(#pb429540c33)" style="fill: #7eb57e"/>
   </g>
   <g id="patch_16">
    <path d="M 882.623438 946.194075 
L 907.823437 946.194075 
L 907.823437 936.82845 
L 882.623438 936.82845 
z
" clip-path="url(#pb429540c33)" style="fill: #7eb57e"/>
   </g>
   <g id="patch_17">
    <path d="M 1050.623438 946.194075 
L 1075.823437 946.194075 
L 1075.823437 927.462825 
L 1050.623438 927.462825 
z
" clip-path="url(#pb429540c33)" style="fill: #7eb57e"/>
   </g>
   <g id="patch_18">
    <path d="M 1218.623437 946.194075 
L 1243.823437 946.194075 
L 1243.823437 882.976106 
L 1218.623437 882.976106 
z
" clip-path="url(#pb429540c33)" style="fill: #7eb57e"/>
   </g>
   <g id="patch_19">
    <path d="M 1386.623437 946.194075 
L 1411.823437 946.194075 
L 1411.823437 934.487044 
L 1386.623437 934.487044 
z
" clip-path="url(#pb429540c33)" style="fill: #7eb57e"/>
   </g>
   <g id="patch_20">
    <path d="M 1554.623438 946.194075 
L 1579.823438 946.194075 
L 1579.823438 939.169856 
L 1554.623438 939.169856 
z
" clip-path="url(#pb429540c33)" style="fill: #7eb57e"/>
   </g>
   <g id="patch_21">
    <path d="M 235.823438 946.194075 
L 261.023438 946.194075 
L 261.023438 859.562044 
L 235.823438 859.562044 
z
" clip-path="url(#pb429540c33)" style="fill: #ff6f45"/>
   </g>
   <g id="patch_22">
    <path d="M 403.823438 946.194075 
L 429.023438 946.194075 
L 429.023438 939.169856 
L 403.823438 939.169856 
z
" clip-path="url(#pb429540c33)" style="fill: #ff6f45"/>
   </g>
   <g id="patch_23">
    <path d="M 571.823438 946.194075 
L 597.023438 946.194075 
L 597.023438 929.804231 
L 571.823438 929.804231 
z
" clip-path="url(#pb429540c33)" style="fill: #ff6f45"/>
   </g>
   <g id="patch_24">
    <path d="M 739.823438 946.194075 
L 765.023438 946.194075 
L 765.023438 906.390169 
L 739.823438 906.390169 
z
" clip-path="url(#pb429540c33)" style="fill: #ff6f45"/>
   </g>
   <g id="patch_25">
    <path d="M 907.823438 946.194075 
L 933.023438 946.194075 
L 933.023438 946.194075 
L 907.823438 946.194075 
z
" clip-path="url(#pb429540c33)" style="fill: #ff6f45"/>
   </g>
   <g id="patch_26">
    <path d="M 1075.823438 946.194075 
L 1101.023438 946.194075 
L 1101.023438 932.145637 
L 1075.823438 932.145637 
z
" clip-path="url(#pb429540c33)" style="fill: #ff6f45"/>
   </g>
   <g id="patch_27">
    <path d="M 1243.823438 946.194075 
L 1269.023438 946.194075 
L 1269.023438 911.072981 
L 1243.823438 911.072981 
z
" clip-path="url(#pb429540c33)" style="fill: #ff6f45"/>
   </g>
   <g id="patch_28">
    <path d="M 1411.823438 946.194075 
L 1437.023438 946.194075 
L 1437.023438 943.852669 
L 1411.823438 943.852669 
z
" clip-path="url(#pb429540c33)" style="fill: #ff6f45"/>
   </g>
   <g id="patch_29">
    <path d="M 1579.823438 946.194075 
L 1605.023438 946.194075 
L 1605.023438 927.462825 
L 1579.823438 927.462825 
z
" clip-path="url(#pb429540c33)" style="fill: #ff6f45"/>
   </g>
   <g id="patch_30">
    <path d="M 261.023438 946.194075 
L 286.223438 946.194075 
L 286.223438 824.44095 
L 261.023438 824.44095 
z
" clip-path="url(#pb429540c33)" style="fill: #3274a1"/>
   </g>
   <g id="patch_31">
    <path d="M 429.023438 946.194075 
L 454.223437 946.194075 
L 454.223437 922.780012 
L 429.023438 922.780012 
z
" clip-path="url(#pb429540c33)" style="fill: #3274a1"/>
   </g>
   <g id="patch_32">
    <path d="M 597.023438 946.194075 
L 622.223437 946.194075 
L 622.223437 911.072981 
L 597.023438 911.072981 
z
" clip-path="url(#pb429540c33)" style="fill: #3274a1"/>
   </g>
   <g id="patch_33">
    <path d="M 765.023438 946.194075 
L 790.223438 946.194075 
L 790.223438 779.954231 
L 765.023438 779.954231 
z
" clip-path="url(#pb429540c33)" style="fill: #3274a1"/>
   </g>
   <g id="patch_34">
    <path d="M 933.023438 946.194075 
L 958.223438 946.194075 
L 958.223438 939.169856 
L 933.023438 939.169856 
z
" clip-path="url(#pb429540c33)" style="fill: #3274a1"/>
   </g>
   <g id="patch_35">
    <path d="M 1101.023438 946.194075 
L 1126.223438 946.194075 
L 1126.223438 913.414387 
L 1101.023438 913.414387 
z
" clip-path="url(#pb429540c33)" style="fill: #3274a1"/>
   </g>
   <g id="patch_36">
    <path d="M 1269.023438 946.194075 
L 1294.223438 946.194075 
L 1294.223438 796.344075 
L 1269.023438 796.344075 
z
" clip-path="url(#pb429540c33)" style="fill: #3274a1"/>
   </g>
   <g id="patch_37">
    <path d="M 1437.023438 946.194075 
L 1462.223438 946.194075 
L 1462.223438 936.82845 
L 1437.023438 936.82845 
z
" clip-path="url(#pb429540c33)" style="fill: #3274a1"/>
   </g>
   <g id="patch_38">
    <path d="M 1605.023438 946.194075 
L 1630.223438 946.194075 
L 1630.223438 927.462825 
L 1605.023438 927.462825 
z
" clip-path="url(#pb429540c33)" style="fill: #3274a1"/>
   </g>
   <g id="matplotlib.axis_1">
    <g id="xtick_1">
     <g id="line2d_1">
      <defs>
       <path id="m8124f41bd4" d="M 0 0 
L 0 20 
" style="stroke: #000000; stroke-width: 5"/>
      </defs>
      <g>
       <use xlink:href="#m8124f41bd4" x="403.823438" y="946.194075" style="stroke: #000000; stroke-width: 5"/>
      </g>
     </g>
     <g id="text_1">
      <!-- ibm_fez -->
      <g transform="translate(297.340234 1014.82845) scale(0.65 -0.65)">
       <defs>
        <path id="TimesNewRomanPSMT-69" d="M 928 4444 
Q 1059 4444 1151 4351 
Q 1244 4259 1244 4128 
Q 1244 3997 1151 3903 
Q 1059 3809 928 3809 
Q 797 3809 703 3903 
Q 609 3997 609 4128 
Q 609 4259 701 4351 
Q 794 4444 928 4444 
z
M 1188 2947 
L 1188 647 
Q 1188 378 1227 289 
Q 1266 200 1342 156 
Q 1419 113 1622 113 
L 1622 0 
L 231 0 
L 231 113 
Q 441 113 512 153 
Q 584 194 626 287 
Q 669 381 669 647 
L 669 1750 
Q 669 2216 641 2353 
Q 619 2453 572 2492 
Q 525 2531 444 2531 
Q 356 2531 231 2484 
L 188 2597 
L 1050 2947 
L 1188 2947 
z
" transform="scale(0.015625)"/>
        <path id="TimesNewRomanPSMT-62" d="M 984 2369 
Q 1400 2947 1881 2947 
Q 2322 2947 2650 2570 
Q 2978 2194 2978 1541 
Q 2978 778 2472 313 
Q 2038 -88 1503 -88 
Q 1253 -88 995 3 
Q 738 94 469 275 
L 469 3241 
Q 469 3728 445 3840 
Q 422 3953 372 3993 
Q 322 4034 247 4034 
Q 159 4034 28 3984 
L -16 4094 
L 844 4444 
L 984 4444 
L 984 2369 
z
M 984 2169 
L 984 456 
Q 1144 300 1314 220 
Q 1484 141 1663 141 
Q 1947 141 2192 453 
Q 2438 766 2438 1363 
Q 2438 1913 2192 2208 
Q 1947 2503 1634 2503 
Q 1469 2503 1303 2419 
Q 1178 2356 984 2169 
z
" transform="scale(0.015625)"/>
        <path id="TimesNewRomanPSMT-6d" d="M 1050 2338 
Q 1363 2650 1419 2697 
Q 1559 2816 1721 2881 
Q 1884 2947 2044 2947 
Q 2313 2947 2506 2790 
Q 2700 2634 2766 2338 
Q 3088 2713 3309 2830 
Q 3531 2947 3766 2947 
Q 3994 2947 4170 2830 
Q 4347 2713 4450 2447 
Q 4519 2266 4519 1878 
L 4519 647 
Q 4519 378 4559 278 
Q 4591 209 4675 161 
Q 4759 113 4950 113 
L 4950 0 
L 3538 0 
L 3538 113 
L 3597 113 
Q 3781 113 3884 184 
Q 3956 234 3988 344 
Q 4000 397 4000 647 
L 4000 1878 
Q 4000 2228 3916 2372 
Q 3794 2572 3525 2572 
Q 3359 2572 3192 2489 
Q 3025 2406 2788 2181 
L 2781 2147 
L 2788 2013 
L 2788 647 
Q 2788 353 2820 281 
Q 2853 209 2943 161 
Q 3034 113 3253 113 
L 3253 0 
L 1806 0 
L 1806 113 
Q 2044 113 2133 169 
Q 2222 225 2256 338 
Q 2272 391 2272 647 
L 2272 1878 
Q 2272 2228 2169 2381 
Q 2031 2581 1784 2581 
Q 1616 2581 1450 2491 
Q 1191 2353 1050 2181 
L 1050 647 
Q 1050 366 1089 281 
Q 1128 197 1204 155 
Q 1281 113 1516 113 
L 1516 0 
L 100 0 
L 100 113 
Q 297 113 375 155 
Q 453 197 493 289 
Q 534 381 534 647 
L 534 1741 
Q 534 2213 506 2350 
Q 484 2453 437 2492 
Q 391 2531 309 2531 
Q 222 2531 100 2484 
L 53 2597 
L 916 2947 
L 1050 2947 
L 1050 2338 
z
" transform="scale(0.015625)"/>
        <path id="TimesNewRomanPSMT-5f" d="M 3256 -1381 
L -53 -1381 
L -53 -1119 
L 3256 -1119 
L 3256 -1381 
z
" transform="scale(0.015625)"/>
        <path id="TimesNewRomanPSMT-66" d="M 1319 2638 
L 1319 756 
Q 1319 356 1406 250 
Q 1522 113 1716 113 
L 1975 113 
L 1975 0 
L 266 0 
L 266 113 
L 394 113 
Q 519 113 622 175 
Q 725 238 764 344 
Q 803 450 803 756 
L 803 2638 
L 247 2638 
L 247 2863 
L 803 2863 
L 803 3050 
Q 803 3478 940 3775 
Q 1078 4072 1361 4255 
Q 1644 4438 1997 4438 
Q 2325 4438 2600 4225 
Q 2781 4084 2781 3909 
Q 2781 3816 2700 3733 
Q 2619 3650 2525 3650 
Q 2453 3650 2373 3701 
Q 2294 3753 2178 3923 
Q 2063 4094 1966 4153 
Q 1869 4213 1750 4213 
Q 1606 4213 1506 4136 
Q 1406 4059 1362 3898 
Q 1319 3738 1319 3069 
L 1319 2863 
L 2056 2863 
L 2056 2638 
L 1319 2638 
z
" transform="scale(0.015625)"/>
        <path id="TimesNewRomanPSMT-65" d="M 681 1784 
Q 678 1147 991 784 
Q 1303 422 1725 422 
Q 2006 422 2214 576 
Q 2422 731 2563 1106 
L 2659 1044 
Q 2594 616 2278 264 
Q 1963 -88 1488 -88 
Q 972 -88 605 314 
Q 238 716 238 1394 
Q 238 2128 614 2539 
Q 991 2950 1559 2950 
Q 2041 2950 2350 2633 
Q 2659 2316 2659 1784 
L 681 1784 
z
M 681 1966 
L 2006 1966 
Q 1991 2241 1941 2353 
Q 1863 2528 1708 2628 
Q 1553 2728 1384 2728 
Q 1125 2728 920 2526 
Q 716 2325 681 1966 
z
" transform="scale(0.015625)"/>
        <path id="TimesNewRomanPSMT-7a" d="M 2688 878 
L 2653 0 
L 128 0 
L 128 113 
L 2028 2644 
L 1091 2644 
Q 788 2644 694 2605 
Q 600 2566 541 2456 
Q 456 2300 444 2069 
L 319 2069 
L 338 2863 
L 2738 2863 
L 2738 2747 
L 819 209 
L 1863 209 
Q 2191 209 2308 264 
Q 2425 319 2497 456 
Q 2547 556 2581 878 
L 2688 878 
z
" transform="scale(0.015625)"/>
       </defs>
       <use xlink:href="#TimesNewRomanPSMT-69"/>
       <use xlink:href="#TimesNewRomanPSMT-62" x="27.783203"/>
       <use xlink:href="#TimesNewRomanPSMT-6d" x="77.783203"/>
       <use xlink:href="#TimesNewRomanPSMT-5f" x="155.566406"/>
       <use xlink:href="#TimesNewRomanPSMT-66" x="205.566406"/>
       <use xlink:href="#TimesNewRomanPSMT-65" x="238.867188"/>
       <use xlink:href="#TimesNewRomanPSMT-7a" x="283.251953"/>
      </g>
     </g>
    </g>
    <g id="xtick_2">
     <g id="line2d_2">
      <g>
       <use xlink:href="#m8124f41bd4" x="907.823438" y="946.194075" style="stroke: #000000; stroke-width: 5"/>
      </g>
     </g>
     <g id="text_2">
      <!-- ibm_osaka -->
      <g transform="translate(767.012109 1014.82845) scale(0.65 -0.65)">
       <defs>
        <path id="TimesNewRomanPSMT-6f" d="M 1600 2947 
Q 2250 2947 2644 2453 
Q 2978 2031 2978 1484 
Q 2978 1100 2793 706 
Q 2609 313 2286 112 
Q 1963 -88 1566 -88 
Q 919 -88 538 428 
Q 216 863 216 1403 
Q 216 1797 411 2186 
Q 606 2575 925 2761 
Q 1244 2947 1600 2947 
z
M 1503 2744 
Q 1338 2744 1170 2645 
Q 1003 2547 900 2300 
Q 797 2053 797 1666 
Q 797 1041 1045 587 
Q 1294 134 1700 134 
Q 2003 134 2200 384 
Q 2397 634 2397 1244 
Q 2397 2006 2069 2444 
Q 1847 2744 1503 2744 
z
" transform="scale(0.015625)"/>
        <path id="TimesNewRomanPSMT-73" d="M 2050 2947 
L 2050 1972 
L 1947 1972 
Q 1828 2431 1642 2597 
Q 1456 2763 1169 2763 
Q 950 2763 815 2647 
Q 681 2531 681 2391 
Q 681 2216 781 2091 
Q 878 1963 1175 1819 
L 1631 1597 
Q 2266 1288 2266 781 
Q 2266 391 1970 151 
Q 1675 -88 1309 -88 
Q 1047 -88 709 6 
Q 606 38 541 38 
Q 469 38 428 -44 
L 325 -44 
L 325 978 
L 428 978 
Q 516 541 762 319 
Q 1009 97 1316 97 
Q 1531 97 1667 223 
Q 1803 350 1803 528 
Q 1803 744 1651 891 
Q 1500 1038 1047 1263 
Q 594 1488 453 1669 
Q 313 1847 313 2119 
Q 313 2472 555 2709 
Q 797 2947 1181 2947 
Q 1350 2947 1591 2875 
Q 1750 2828 1803 2828 
Q 1853 2828 1881 2850 
Q 1909 2872 1947 2947 
L 2050 2947 
z
" transform="scale(0.015625)"/>
        <path id="TimesNewRomanPSMT-61" d="M 1822 413 
Q 1381 72 1269 19 
Q 1100 -59 909 -59 
Q 613 -59 420 144 
Q 228 347 228 678 
Q 228 888 322 1041 
Q 450 1253 767 1440 
Q 1084 1628 1822 1897 
L 1822 2009 
Q 1822 2438 1686 2597 
Q 1550 2756 1291 2756 
Q 1094 2756 978 2650 
Q 859 2544 859 2406 
L 866 2225 
Q 866 2081 792 2003 
Q 719 1925 600 1925 
Q 484 1925 411 2006 
Q 338 2088 338 2228 
Q 338 2497 613 2722 
Q 888 2947 1384 2947 
Q 1766 2947 2009 2819 
Q 2194 2722 2281 2516 
Q 2338 2381 2338 1966 
L 2338 994 
Q 2338 584 2353 492 
Q 2369 400 2405 369 
Q 2441 338 2488 338 
Q 2538 338 2575 359 
Q 2641 400 2828 588 
L 2828 413 
Q 2478 -56 2159 -56 
Q 2006 -56 1915 50 
Q 1825 156 1822 413 
z
M 1822 616 
L 1822 1706 
Q 1350 1519 1213 1441 
Q 966 1303 859 1153 
Q 753 1003 753 825 
Q 753 600 887 451 
Q 1022 303 1197 303 
Q 1434 303 1822 616 
z
" transform="scale(0.015625)"/>
        <path id="TimesNewRomanPSMT-6b" d="M 1047 4444 
L 1047 1594 
L 1775 2259 
Q 2006 2472 2044 2528 
Q 2069 2566 2069 2603 
Q 2069 2666 2017 2711 
Q 1966 2756 1847 2763 
L 1847 2863 
L 3091 2863 
L 3091 2763 
Q 2834 2756 2664 2684 
Q 2494 2613 2291 2428 
L 1556 1750 
L 2291 822 
Q 2597 438 2703 334 
Q 2853 188 2966 144 
Q 3044 113 3238 113 
L 3238 0 
L 1847 0 
L 1847 113 
Q 1966 116 2008 148 
Q 2050 181 2050 241 
Q 2050 313 1925 472 
L 1047 1594 
L 1047 644 
Q 1047 366 1086 278 
Q 1125 191 1197 153 
Q 1269 116 1509 113 
L 1509 0 
L 53 0 
L 53 113 
Q 272 113 381 166 
Q 447 200 481 272 
Q 528 375 528 628 
L 528 3234 
Q 528 3731 506 3842 
Q 484 3953 434 3995 
Q 384 4038 303 4038 
Q 238 4038 106 3984 
L 53 4094 
L 903 4444 
L 1047 4444 
z
" transform="scale(0.015625)"/>
       </defs>
       <use xlink:href="#TimesNewRomanPSMT-69"/>
       <use xlink:href="#TimesNewRomanPSMT-62" x="27.783203"/>
       <use xlink:href="#TimesNewRomanPSMT-6d" x="77.783203"/>
       <use xlink:href="#TimesNewRomanPSMT-5f" x="155.566406"/>
       <use xlink:href="#TimesNewRomanPSMT-6f" x="205.566406"/>
       <use xlink:href="#TimesNewRomanPSMT-73" x="255.566406"/>
       <use xlink:href="#TimesNewRomanPSMT-61" x="294.482422"/>
       <use xlink:href="#TimesNewRomanPSMT-6b" x="338.867188"/>
       <use xlink:href="#TimesNewRomanPSMT-61" x="388.867188"/>
      </g>
     </g>
    </g>
    <g id="xtick_3">
     <g id="line2d_3">
      <g>
       <use xlink:href="#m8124f41bd4" x="1411.823437" y="946.194075" style="stroke: #000000; stroke-width: 5"/>
      </g>
     </g>
     <g id="text_3">
      <!-- ibm_sherbrooke -->
      <g transform="translate(1200.619141 1014.82845) scale(0.65 -0.65)">
       <defs>
        <path id="TimesNewRomanPSMT-68" d="M 1041 4444 
L 1041 2350 
Q 1388 2731 1591 2839 
Q 1794 2947 1997 2947 
Q 2241 2947 2416 2812 
Q 2591 2678 2675 2391 
Q 2734 2191 2734 1659 
L 2734 647 
Q 2734 375 2778 275 
Q 2809 200 2884 156 
Q 2959 113 3159 113 
L 3159 0 
L 1753 0 
L 1753 113 
L 1819 113 
Q 2019 113 2097 173 
Q 2175 234 2206 353 
Q 2216 403 2216 647 
L 2216 1659 
Q 2216 2128 2167 2275 
Q 2119 2422 2012 2495 
Q 1906 2569 1756 2569 
Q 1603 2569 1437 2487 
Q 1272 2406 1041 2159 
L 1041 647 
Q 1041 353 1073 281 
Q 1106 209 1195 161 
Q 1284 113 1503 113 
L 1503 0 
L 84 0 
L 84 113 
Q 275 113 384 172 
Q 447 203 484 290 
Q 522 378 522 647 
L 522 3238 
Q 522 3728 498 3840 
Q 475 3953 426 3993 
Q 378 4034 297 4034 
Q 231 4034 84 3984 
L 41 4094 
L 897 4444 
L 1041 4444 
z
" transform="scale(0.015625)"/>
        <path id="TimesNewRomanPSMT-72" d="M 1038 2947 
L 1038 2303 
Q 1397 2947 1775 2947 
Q 1947 2947 2059 2842 
Q 2172 2738 2172 2600 
Q 2172 2478 2090 2393 
Q 2009 2309 1897 2309 
Q 1788 2309 1652 2417 
Q 1516 2525 1450 2525 
Q 1394 2525 1328 2463 
Q 1188 2334 1038 2041 
L 1038 669 
Q 1038 431 1097 309 
Q 1138 225 1241 169 
Q 1344 113 1538 113 
L 1538 0 
L 72 0 
L 72 113 
Q 291 113 397 181 
Q 475 231 506 341 
Q 522 394 522 644 
L 522 1753 
Q 522 2253 501 2348 
Q 481 2444 426 2487 
Q 372 2531 291 2531 
Q 194 2531 72 2484 
L 41 2597 
L 906 2947 
L 1038 2947 
z
" transform="scale(0.015625)"/>
       </defs>
       <use xlink:href="#TimesNewRomanPSMT-69"/>
       <use xlink:href="#TimesNewRomanPSMT-62" x="27.783203"/>
       <use xlink:href="#TimesNewRomanPSMT-6d" x="77.783203"/>
       <use xlink:href="#TimesNewRomanPSMT-5f" x="155.566406"/>
       <use xlink:href="#TimesNewRomanPSMT-73" x="205.566406"/>
       <use xlink:href="#TimesNewRomanPSMT-68" x="244.482422"/>
       <use xlink:href="#TimesNewRomanPSMT-65" x="294.482422"/>
       <use xlink:href="#TimesNewRomanPSMT-72" x="338.867188"/>
       <use xlink:href="#TimesNewRomanPSMT-62" x="372.167969"/>
       <use xlink:href="#TimesNewRomanPSMT-72" x="422.167969"/>
       <use xlink:href="#TimesNewRomanPSMT-6f" x="455.46875"/>
       <use xlink:href="#TimesNewRomanPSMT-6f" x="505.46875"/>
       <use xlink:href="#TimesNewRomanPSMT-6b" x="555.46875"/>
       <use xlink:href="#TimesNewRomanPSMT-65" x="605.46875"/>
      </g>
     </g>
    </g>
    <g id="xtick_4">
     <g id="line2d_4">
      <defs>
       <path id="mb65d91696d" d="M 0 0 
L 0 2 
" style="stroke: #000000; stroke-width: 0.6"/>
      </defs>
      <g>
       <use xlink:href="#mb65d91696d" x="235.823438" y="946.194075" style="stroke: #000000; stroke-width: 0.6"/>
      </g>
     </g>
    </g>
    <g id="xtick_5">
     <g id="line2d_5">
      <g>
       <use xlink:href="#mb65d91696d" x="571.823438" y="946.194075" style="stroke: #000000; stroke-width: 0.6"/>
      </g>
     </g>
    </g>
    <g id="xtick_6">
     <g id="line2d_6">
      <g>
       <use xlink:href="#mb65d91696d" x="739.823438" y="946.194075" style="stroke: #000000; stroke-width: 0.6"/>
      </g>
     </g>
    </g>
    <g id="xtick_7">
     <g id="line2d_7">
      <g>
       <use xlink:href="#mb65d91696d" x="1075.823438" y="946.194075" style="stroke: #000000; stroke-width: 0.6"/>
      </g>
     </g>
    </g>
    <g id="xtick_8">
     <g id="line2d_8">
      <g>
       <use xlink:href="#mb65d91696d" x="1243.823438" y="946.194075" style="stroke: #000000; stroke-width: 0.6"/>
      </g>
     </g>
    </g>
    <g id="xtick_9">
     <g id="line2d_9">
      <g>
       <use xlink:href="#mb65d91696d" x="1579.823437" y="946.194075" style="stroke: #000000; stroke-width: 0.6"/>
      </g>
     </g>
    </g>
   </g>
   <g id="matplotlib.axis_2">
    <g id="ytick_1">
     <g id="line2d_10">
      <path d="M 164.423438 946.194075 
L 1676.423438 946.194075 
" clip-path="url(#pb429540c33)" style="fill: none; stroke-dasharray: 3.7,1.6; stroke-dashoffset: 0; stroke: #808080"/>
     </g>
     <g id="line2d_11">
      <defs>
       <path id="m5f7356afd4" d="M 0 0 
L -20 0 
" style="stroke: #000000; stroke-width: 5"/>
      </defs>
      <g>
       <use xlink:href="#m5f7356afd4" x="164.423438" y="946.194075" style="stroke: #000000; stroke-width: 5"/>
      </g>
     </g>
     <g id="text_4">
      <!-- 0 -->
      <g transform="translate(108.423438 968.761262) scale(0.65 -0.65)">
       <defs>
        <path id="TimesNewRomanPSMT-30" d="M 231 2094 
Q 231 2819 450 3342 
Q 669 3866 1031 4122 
Q 1313 4325 1613 4325 
Q 2100 4325 2488 3828 
Q 2972 3213 2972 2159 
Q 2972 1422 2759 906 
Q 2547 391 2217 158 
Q 1888 -75 1581 -75 
Q 975 -75 572 641 
Q 231 1244 231 2094 
z
M 844 2016 
Q 844 1141 1059 588 
Q 1238 122 1591 122 
Q 1759 122 1940 273 
Q 2122 425 2216 781 
Q 2359 1319 2359 2297 
Q 2359 3022 2209 3506 
Q 2097 3866 1919 4016 
Q 1791 4119 1609 4119 
Q 1397 4119 1231 3928 
Q 1006 3669 925 3112 
Q 844 2556 844 2016 
z
" transform="scale(0.015625)"/>
       </defs>
       <use xlink:href="#TimesNewRomanPSMT-30"/>
      </g>
     </g>
    </g>
    <g id="ytick_2">
     <g id="line2d_12">
      <path d="M 164.423438 826.314075 
L 1676.423438 826.314075 
" clip-path="url(#pb429540c33)" style="fill: none; stroke-dasharray: 3.7,1.6; stroke-dashoffset: 0; stroke: #808080"/>
     </g>
     <g id="line2d_13">
      <g>
       <use xlink:href="#m5f7356afd4" x="164.423438" y="826.314075" style="stroke: #000000; stroke-width: 5"/>
      </g>
     </g>
     <g id="text_5">
      <!-- 5 -->
      <g transform="translate(108.423438 848.881262) scale(0.65 -0.65)">
       <defs>
        <path id="TimesNewRomanPSMT-35" d="M 2778 4238 
L 2534 3706 
L 1259 3706 
L 981 3138 
Q 1809 3016 2294 2522 
Q 2709 2097 2709 1522 
Q 2709 1188 2573 903 
Q 2438 619 2231 419 
Q 2025 219 1772 97 
Q 1413 -75 1034 -75 
Q 653 -75 479 54 
Q 306 184 306 341 
Q 306 428 378 495 
Q 450 563 559 563 
Q 641 563 702 538 
Q 763 513 909 409 
Q 1144 247 1384 247 
Q 1750 247 2026 523 
Q 2303 800 2303 1197 
Q 2303 1581 2056 1914 
Q 1809 2247 1375 2428 
Q 1034 2569 447 2591 
L 1259 4238 
L 2778 4238 
z
" transform="scale(0.015625)"/>
       </defs>
       <use xlink:href="#TimesNewRomanPSMT-35"/>
      </g>
     </g>
    </g>
    <g id="ytick_3">
     <g id="line2d_14">
      <path d="M 164.423438 706.434075 
L 1676.423438 706.434075 
" clip-path="url(#pb429540c33)" style="fill: none; stroke-dasharray: 3.7,1.6; stroke-dashoffset: 0; stroke: #808080"/>
     </g>
     <g id="line2d_15">
      <g>
       <use xlink:href="#m5f7356afd4" x="164.423438" y="706.434075" style="stroke: #000000; stroke-width: 5"/>
      </g>
     </g>
     <g id="text_6">
      <!-- 10 -->
      <g transform="translate(75.923438 729.001262) scale(0.65 -0.65)">
       <defs>
        <path id="TimesNewRomanPSMT-31" d="M 750 3822 
L 1781 4325 
L 1884 4325 
L 1884 747 
Q 1884 391 1914 303 
Q 1944 216 2037 169 
Q 2131 122 2419 116 
L 2419 0 
L 825 0 
L 825 116 
Q 1125 122 1212 167 
Q 1300 213 1334 289 
Q 1369 366 1369 747 
L 1369 3034 
Q 1369 3497 1338 3628 
Q 1316 3728 1258 3775 
Q 1200 3822 1119 3822 
Q 1003 3822 797 3725 
L 750 3822 
z
" transform="scale(0.015625)"/>
       </defs>
       <use xlink:href="#TimesNewRomanPSMT-31"/>
       <use xlink:href="#TimesNewRomanPSMT-30" x="50"/>
      </g>
     </g>
    </g>
    <g id="ytick_4">
     <g id="line2d_16">
      <defs>
       <path id="mdfde3a9c9d" d="M 0 0 
L -10 0 
" style="stroke: #000000; stroke-width: 3"/>
      </defs>
      <g>
       <use xlink:href="#mdfde3a9c9d" x="164.423438" y="922.218075" style="stroke: #000000; stroke-width: 3"/>
      </g>
     </g>
    </g>
    <g id="ytick_5">
     <g id="line2d_17">
      <g>
       <use xlink:href="#mdfde3a9c9d" x="164.423438" y="898.242075" style="stroke: #000000; stroke-width: 3"/>
      </g>
     </g>
    </g>
    <g id="ytick_6">
     <g id="line2d_18">
      <g>
       <use xlink:href="#mdfde3a9c9d" x="164.423438" y="874.266075" style="stroke: #000000; stroke-width: 3"/>
      </g>
     </g>
    </g>
    <g id="ytick_7">
     <g id="line2d_19">
      <g>
       <use xlink:href="#mdfde3a9c9d" x="164.423438" y="850.290075" style="stroke: #000000; stroke-width: 3"/>
      </g>
     </g>
    </g>
    <g id="ytick_8">
     <g id="line2d_20">
      <g>
       <use xlink:href="#mdfde3a9c9d" x="164.423438" y="802.338075" style="stroke: #000000; stroke-width: 3"/>
      </g>
     </g>
    </g>
    <g id="ytick_9">
     <g id="line2d_21">
      <g>
       <use xlink:href="#mdfde3a9c9d" x="164.423438" y="778.362075" style="stroke: #000000; stroke-width: 3"/>
      </g>
     </g>
    </g>
    <g id="ytick_10">
     <g id="line2d_22">
      <g>
       <use xlink:href="#mdfde3a9c9d" x="164.423438" y="754.386075" style="stroke: #000000; stroke-width: 3"/>
      </g>
     </g>
    </g>
    <g id="ytick_11">
     <g id="line2d_23">
      <g>
       <use xlink:href="#mdfde3a9c9d" x="164.423438" y="730.410075" style="stroke: #000000; stroke-width: 3"/>
      </g>
     </g>
    </g>
    <g id="ytick_12">
     <g id="line2d_24">
      <g>
       <use xlink:href="#mdfde3a9c9d" x="164.423438" y="682.458075" style="stroke: #000000; stroke-width: 3"/>
      </g>
     </g>
    </g>
    <g id="ytick_13">
     <g id="line2d_25">
      <g>
       <use xlink:href="#mdfde3a9c9d" x="164.423438" y="658.482075" style="stroke: #000000; stroke-width: 3"/>
      </g>
     </g>
    </g>
    <g id="ytick_14">
     <g id="line2d_26">
      <g>
       <use xlink:href="#mdfde3a9c9d" x="164.423438" y="634.506075" style="stroke: #000000; stroke-width: 3"/>
      </g>
     </g>
    </g>
    <g id="ytick_15">
     <g id="line2d_27">
      <g>
       <use xlink:href="#mdfde3a9c9d" x="164.423438" y="610.530075" style="stroke: #000000; stroke-width: 3"/>
      </g>
     </g>
    </g>
    <g id="text_7">
     <!-- success rate (%) -->
     <g transform="translate(58.019531 989.510513) rotate(-90) scale(0.65 -0.65)">
      <defs>
       <path id="TimesNewRomanPSMT-75" d="M 2709 2863 
L 2709 1128 
Q 2709 631 2732 520 
Q 2756 409 2807 365 
Q 2859 322 2928 322 
Q 3025 322 3147 375 
L 3191 266 
L 2334 -88 
L 2194 -88 
L 2194 519 
Q 1825 119 1631 15 
Q 1438 -88 1222 -88 
Q 981 -88 804 51 
Q 628 191 559 409 
Q 491 628 491 1028 
L 491 2306 
Q 491 2509 447 2587 
Q 403 2666 317 2708 
Q 231 2750 6 2747 
L 6 2863 
L 1009 2863 
L 1009 947 
Q 1009 547 1148 422 
Q 1288 297 1484 297 
Q 1619 297 1789 381 
Q 1959 466 2194 703 
L 2194 2325 
Q 2194 2569 2105 2655 
Q 2016 2741 1734 2747 
L 1734 2863 
L 2709 2863 
z
" transform="scale(0.015625)"/>
       <path id="TimesNewRomanPSMT-63" d="M 2631 1088 
Q 2516 522 2178 217 
Q 1841 -88 1431 -88 
Q 944 -88 581 321 
Q 219 731 219 1428 
Q 219 2103 620 2525 
Q 1022 2947 1584 2947 
Q 2006 2947 2278 2723 
Q 2550 2500 2550 2259 
Q 2550 2141 2473 2067 
Q 2397 1994 2259 1994 
Q 2075 1994 1981 2113 
Q 1928 2178 1911 2362 
Q 1894 2547 1784 2644 
Q 1675 2738 1481 2738 
Q 1169 2738 978 2506 
Q 725 2200 725 1697 
Q 725 1184 976 792 
Q 1228 400 1656 400 
Q 1963 400 2206 609 
Q 2378 753 2541 1131 
L 2631 1088 
z
" transform="scale(0.015625)"/>
       <path id="TimesNewRomanPSMT-20" transform="scale(0.015625)"/>
       <path id="TimesNewRomanPSMT-74" d="M 1031 3803 
L 1031 2863 
L 1700 2863 
L 1700 2644 
L 1031 2644 
L 1031 788 
Q 1031 509 1111 412 
Q 1191 316 1316 316 
Q 1419 316 1516 380 
Q 1613 444 1666 569 
L 1788 569 
Q 1678 263 1478 108 
Q 1278 -47 1066 -47 
Q 922 -47 784 33 
Q 647 113 581 261 
Q 516 409 516 719 
L 516 2644 
L 63 2644 
L 63 2747 
Q 234 2816 414 2980 
Q 594 3144 734 3369 
Q 806 3488 934 3803 
L 1031 3803 
z
" transform="scale(0.015625)"/>
       <path id="TimesNewRomanPSMT-28" d="M 1988 -1253 
L 1988 -1369 
Q 1516 -1131 1200 -813 
Q 750 -359 506 256 
Q 263 872 263 1534 
Q 263 2503 741 3301 
Q 1219 4100 1988 4444 
L 1988 4313 
Q 1603 4100 1356 3731 
Q 1109 3363 987 2797 
Q 866 2231 866 1616 
Q 866 947 969 400 
Q 1050 -31 1165 -292 
Q 1281 -553 1476 -793 
Q 1672 -1034 1988 -1253 
z
" transform="scale(0.015625)"/>
       <path id="TimesNewRomanPSMT-25" d="M 4350 4334 
L 1263 -175 
L 984 -175 
L 4072 4334 
L 4350 4334 
z
M 1138 4334 
Q 1559 4334 1792 3984 
Q 2025 3634 2025 3181 
Q 2025 2638 1762 2341 
Q 1500 2044 1131 2044 
Q 884 2044 678 2180 
Q 472 2316 348 2584 
Q 225 2853 225 3181 
Q 225 3509 350 3786 
Q 475 4063 692 4198 
Q 909 4334 1138 4334 
z
M 1128 4159 
Q 969 4159 845 3971 
Q 722 3784 722 3184 
Q 722 2750 791 2522 
Q 844 2350 956 2256 
Q 1022 2200 1119 2200 
Q 1269 2200 1375 2363 
Q 1531 2603 1531 3166 
Q 1531 3759 1378 4000 
Q 1278 4159 1128 4159 
z
M 4206 2103 
Q 4428 2103 4648 1962 
Q 4869 1822 4989 1553 
Q 5109 1284 5109 963 
Q 5109 409 4843 117 
Q 4578 -175 4216 -175 
Q 3988 -175 3773 -34 
Q 3559 106 3436 367 
Q 3313 628 3313 963 
Q 3313 1291 3436 1562 
Q 3559 1834 3773 1968 
Q 3988 2103 4206 2103 
z
M 4209 1938 
Q 4059 1938 3950 1769 
Q 3809 1550 3809 941 
Q 3809 381 3953 159 
Q 4059 0 4209 0 
Q 4353 0 4466 172 
Q 4616 400 4616 956 
Q 4616 1544 4466 1778 
Q 4363 1938 4209 1938 
z
" transform="scale(0.015625)"/>
       <path id="TimesNewRomanPSMT-29" d="M 144 4313 
L 144 4444 
Q 619 4209 934 3891 
Q 1381 3434 1625 2820 
Q 1869 2206 1869 1541 
Q 1869 572 1392 -226 
Q 916 -1025 144 -1369 
L 144 -1253 
Q 528 -1038 776 -670 
Q 1025 -303 1145 264 
Q 1266 831 1266 1447 
Q 1266 2113 1163 2663 
Q 1084 3094 967 3353 
Q 850 3613 656 3853 
Q 463 4094 144 4313 
z
" transform="scale(0.015625)"/>
      </defs>
      <use xlink:href="#TimesNewRomanPSMT-73"/>
      <use xlink:href="#TimesNewRomanPSMT-75" x="38.916016"/>
      <use xlink:href="#TimesNewRomanPSMT-63" x="88.916016"/>
      <use xlink:href="#TimesNewRomanPSMT-63" x="133.300781"/>
      <use xlink:href="#TimesNewRomanPSMT-65" x="177.685547"/>
      <use xlink:href="#TimesNewRomanPSMT-73" x="222.070312"/>
      <use xlink:href="#TimesNewRomanPSMT-73" x="260.986328"/>
      <use xlink:href="#TimesNewRomanPSMT-20" x="299.902344"/>
      <use xlink:href="#TimesNewRomanPSMT-72" x="324.902344"/>
      <use xlink:href="#TimesNewRomanPSMT-61" x="358.203125"/>
      <use xlink:href="#TimesNewRomanPSMT-74" x="402.587891"/>
      <use xlink:href="#TimesNewRomanPSMT-65" x="430.371094"/>
      <use xlink:href="#TimesNewRomanPSMT-20" x="474.755859"/>
      <use xlink:href="#TimesNewRomanPSMT-28" x="499.755859"/>
      <use xlink:href="#TimesNewRomanPSMT-25" x="533.056641"/>
      <use xlink:href="#TimesNewRomanPSMT-29" x="616.357422"/>
     </g>
    </g>
   </g>
   <g id="patch_39">
    <path d="M 164.423438 946.194075 
L 164.423438 610.530075 
" style="fill: none; stroke: #000000; stroke-width: 5; stroke-linejoin: miter; stroke-linecap: square"/>
   </g>
   <g id="patch_40">
    <path d="M 1676.423438 946.194075 
L 1676.423438 610.530075 
" style="fill: none; stroke: #000000; stroke-width: 5; stroke-linejoin: miter; stroke-linecap: square"/>
   </g>
   <g id="patch_41">
    <path d="M 164.423438 946.194075 
L 1676.423438 946.194075 
" style="fill: none; stroke: #000000; stroke-width: 5; stroke-linejoin: miter; stroke-linecap: square"/>
   </g>
   <g id="patch_42">
    <path d="M 164.423438 610.530075 
L 1676.423438 610.530075 
" style="fill: none; stroke: #000000; stroke-width: 5; stroke-linejoin: miter; stroke-linecap: square"/>
   </g>
  </g>
  <g id="axes_2">
   <g id="matplotlib.axis_3">
    <g id="text_8">
     <!-- improvement ($\times$) -->
     <g transform="translate(1725.923438 1000.012075) rotate(-90) scale(0.65 -0.65)">
      <defs>
       <path id="TimesNewRomanPSMT-70" d="M -6 2578 
L 875 2934 
L 994 2934 
L 994 2266 
Q 1216 2644 1439 2795 
Q 1663 2947 1909 2947 
Q 2341 2947 2628 2609 
Q 2981 2197 2981 1534 
Q 2981 794 2556 309 
Q 2206 -88 1675 -88 
Q 1444 -88 1275 -22 
Q 1150 25 994 166 
L 994 -706 
Q 994 -1000 1030 -1079 
Q 1066 -1159 1155 -1206 
Q 1244 -1253 1478 -1253 
L 1478 -1369 
L -22 -1369 
L -22 -1253 
L 56 -1253 
Q 228 -1256 350 -1188 
Q 409 -1153 442 -1076 
Q 475 -1000 475 -688 
L 475 2019 
Q 475 2297 450 2372 
Q 425 2447 370 2484 
Q 316 2522 222 2522 
Q 147 2522 31 2478 
L -6 2578 
z
M 994 2081 
L 994 1013 
Q 994 666 1022 556 
Q 1066 375 1236 237 
Q 1406 100 1666 100 
Q 1978 100 2172 344 
Q 2425 663 2425 1241 
Q 2425 1897 2138 2250 
Q 1938 2494 1663 2494 
Q 1513 2494 1366 2419 
Q 1253 2363 994 2081 
z
" transform="scale(0.015625)"/>
       <path id="TimesNewRomanPSMT-76" d="M 53 2863 
L 1400 2863 
L 1400 2747 
L 1313 2747 
Q 1191 2747 1127 2687 
Q 1063 2628 1063 2528 
Q 1063 2419 1128 2269 
L 1794 688 
L 2463 2328 
Q 2534 2503 2534 2594 
Q 2534 2638 2509 2666 
Q 2475 2713 2422 2730 
Q 2369 2747 2206 2747 
L 2206 2863 
L 3141 2863 
L 3141 2747 
Q 2978 2734 2916 2681 
Q 2806 2588 2719 2369 
L 1703 -88 
L 1575 -88 
L 553 2328 
Q 484 2497 421 2570 
Q 359 2644 263 2694 
Q 209 2722 53 2747 
L 53 2863 
z
" transform="scale(0.015625)"/>
       <path id="TimesNewRomanPSMT-6e" d="M 1034 2341 
Q 1538 2947 1994 2947 
Q 2228 2947 2397 2830 
Q 2566 2713 2666 2444 
Q 2734 2256 2734 1869 
L 2734 647 
Q 2734 375 2778 278 
Q 2813 200 2889 156 
Q 2966 113 3172 113 
L 3172 0 
L 1756 0 
L 1756 113 
L 1816 113 
Q 2016 113 2095 173 
Q 2175 234 2206 353 
Q 2219 400 2219 647 
L 2219 1819 
Q 2219 2209 2117 2386 
Q 2016 2563 1775 2563 
Q 1403 2563 1034 2156 
L 1034 647 
Q 1034 356 1069 288 
Q 1113 197 1189 155 
Q 1266 113 1500 113 
L 1500 0 
L 84 0 
L 84 113 
L 147 113 
Q 366 113 442 223 
Q 519 334 519 647 
L 519 1709 
Q 519 2225 495 2337 
Q 472 2450 423 2490 
Q 375 2531 294 2531 
Q 206 2531 84 2484 
L 38 2597 
L 900 2947 
L 1034 2947 
L 1034 2341 
z
" transform="scale(0.015625)"/>
       <path id="TimesNewRomanPSMT-d7" d="M 516 1025 
L 1619 2128 
L 519 3228 
L 700 3409 
L 1800 2309 
L 2900 3409 
L 3075 3231 
L 1975 2131 
L 3081 1025 
L 2903 844 
L 1797 1950 
L 694 847 
L 516 1025 
z
" transform="scale(0.015625)"/>
      </defs>
      <use xlink:href="#TimesNewRomanPSMT-69" transform="translate(0 0.5625)"/>
      <use xlink:href="#TimesNewRomanPSMT-6d" transform="translate(27.783203 0.5625)"/>
      <use xlink:href="#TimesNewRomanPSMT-70" transform="translate(105.566406 0.5625)"/>
      <use xlink:href="#TimesNewRomanPSMT-72" transform="translate(155.566406 0.5625)"/>
      <use xlink:href="#TimesNewRomanPSMT-6f" transform="translate(188.867188 0.5625)"/>
      <use xlink:href="#TimesNewRomanPSMT-76" transform="translate(238.867188 0.5625)"/>
      <use xlink:href="#TimesNewRomanPSMT-65" transform="translate(288.867188 0.5625)"/>
      <use xlink:href="#TimesNewRomanPSMT-6d" transform="translate(333.251953 0.5625)"/>
      <use xlink:href="#TimesNewRomanPSMT-65" transform="translate(411.035156 0.5625)"/>
      <use xlink:href="#TimesNewRomanPSMT-6e" transform="translate(455.419922 0.5625)"/>
      <use xlink:href="#TimesNewRomanPSMT-74" transform="translate(505.419922 0.5625)"/>
      <use xlink:href="#TimesNewRomanPSMT-20" transform="translate(533.203125 0.5625)"/>
      <use xlink:href="#TimesNewRomanPSMT-28" transform="translate(558.203125 0.5625)"/>
      <use xlink:href="#TimesNewRomanPSMT-d7" transform="translate(591.503906 0.5625)"/>
      <use xlink:href="#TimesNewRomanPSMT-29" transform="translate(647.900391 0.5625)"/>
     </g>
    </g>
   </g>
   <g id="patch_43">
    <path d="M 235.823438 870.979333 
L 261.023438 870.979333 
L 261.023438 804.244645 
L 235.823438 804.244645 
L 235.823438 870.979333 
z
" clip-path="url(#pb429540c33)" style="fill: #ffffff; stroke: #000000; stroke-width: 2; stroke-linejoin: miter"/>
   </g>
   <g id="line2d_28">
    <path d="M 248.423438 870.979333 
L 248.423438 883.215915 
" clip-path="url(#pb429540c33)" style="fill: none; stroke: #000000; stroke-width: 2; stroke-linecap: square"/>
   </g>
   <g id="line2d_29">
    <path d="M 248.423438 804.244645 
L 248.423438 749.746538 
" clip-path="url(#pb429540c33)" style="fill: none; stroke: #000000; stroke-width: 2; stroke-linecap: square"/>
   </g>
   <g id="line2d_30">
    <path d="M 242.123438 883.215915 
L 254.723438 883.215915 
" clip-path="url(#pb429540c33)" style="fill: none; stroke: #000000; stroke-width: 2; stroke-linecap: square"/>
   </g>
   <g id="line2d_31">
    <path d="M 242.123438 749.746538 
L 254.723438 749.746538 
" clip-path="url(#pb429540c33)" style="fill: none; stroke: #000000; stroke-width: 2; stroke-linecap: square"/>
   </g>
   <g id="patch_44">
    <path d="M 403.823438 844.715133 
L 429.023438 844.715133 
L 429.023438 769.739926 
L 403.823438 769.739926 
L 403.823438 844.715133 
z
" clip-path="url(#pb429540c33)" style="fill: #ffffff; stroke: #000000; stroke-width: 2; stroke-linejoin: miter"/>
   </g>
   <g id="line2d_32">
    <path d="M 416.423438 844.715133 
L 416.423438 859.710174 
" clip-path="url(#pb429540c33)" style="fill: none; stroke: #000000; stroke-width: 2; stroke-linecap: square"/>
   </g>
   <g id="line2d_33">
    <path d="M 416.423438 769.739926 
L 416.423438 709.759761 
" clip-path="url(#pb429540c33)" style="fill: none; stroke: #000000; stroke-width: 2; stroke-linecap: square"/>
   </g>
   <g id="line2d_34">
    <path d="M 410.123438 859.710174 
L 422.723438 859.710174 
" clip-path="url(#pb429540c33)" style="fill: none; stroke: #000000; stroke-width: 2; stroke-linecap: square"/>
   </g>
   <g id="line2d_35">
    <path d="M 410.123438 709.759761 
L 422.723438 709.759761 
" clip-path="url(#pb429540c33)" style="fill: none; stroke: #000000; stroke-width: 2; stroke-linecap: square"/>
   </g>
   <g id="patch_45">
    <path d="M 571.823437 816.867199 
L 597.023438 816.867199 
L 597.023438 778.308521 
L 571.823437 778.308521 
L 571.823437 816.867199 
z
" clip-path="url(#pb429540c33)" style="fill: #ffffff; stroke: #000000; stroke-width: 2; stroke-linejoin: miter"/>
   </g>
   <g id="line2d_36">
    <path d="M 584.423437 816.867199 
L 584.423437 816.867199 
" clip-path="url(#pb429540c33)" style="fill: none; stroke: #000000; stroke-width: 2; stroke-linecap: square"/>
   </g>
   <g id="line2d_37">
    <path d="M 584.423437 778.308521 
L 584.423437 739.749844 
" clip-path="url(#pb429540c33)" style="fill: none; stroke: #000000; stroke-width: 2; stroke-linecap: square"/>
   </g>
   <g id="line2d_38">
    <path d="M 578.123438 816.867199 
L 590.723438 816.867199 
" clip-path="url(#pb429540c33)" style="fill: none; stroke: #000000; stroke-width: 2; stroke-linecap: square"/>
   </g>
   <g id="line2d_39">
    <path d="M 578.123438 739.749844 
L 590.723438 739.749844 
" clip-path="url(#pb429540c33)" style="fill: none; stroke: #000000; stroke-width: 2; stroke-linecap: square"/>
   </g>
   <g id="patch_46">
    <path d="M 739.823438 750.411902 
L 765.023438 750.411902 
L 765.023438 676.602277 
L 739.823438 676.602277 
L 739.823438 750.411902 
z
" clip-path="url(#pb429540c33)" style="fill: #ffffff; stroke: #000000; stroke-width: 2; stroke-linejoin: miter"/>
   </g>
   <g id="line2d_40">
    <path d="M 752.423438 750.411902 
L 752.423438 781.521744 
" clip-path="url(#pb429540c33)" style="fill: none; stroke: #000000; stroke-width: 2; stroke-linecap: square"/>
   </g>
   <g id="line2d_41">
    <path d="M 752.423438 676.602277 
L 752.423438 633.902493 
" clip-path="url(#pb429540c33)" style="fill: none; stroke: #000000; stroke-width: 2; stroke-linecap: square"/>
   </g>
   <g id="line2d_42">
    <path d="M 746.123438 781.521744 
L 758.723438 781.521744 
" clip-path="url(#pb429540c33)" style="fill: none; stroke: #000000; stroke-width: 2; stroke-linecap: square"/>
   </g>
   <g id="line2d_43">
    <path d="M 746.123438 633.902493 
L 758.723438 633.902493 
" clip-path="url(#pb429540c33)" style="fill: none; stroke: #000000; stroke-width: 2; stroke-linecap: square"/>
   </g>
   <g id="patch_47">
    <path d="M 907.823438 930.93662 
L 933.023438 930.93662 
M 907.823438 930.93662 
L 907.823438 930.93662 
L 907.823438 930.93662 
" clip-path="url(#pb429540c33)" style="fill: #ffffff; stroke: #000000; stroke-width: 2; stroke-linejoin: miter"/>
   </g>
   <g id="line2d_44">
    <path d="M 920.423438 930.93662 
L 920.423438 930.93662 
" clip-path="url(#pb429540c33)" style="fill: none; stroke: #000000; stroke-width: 2; stroke-linecap: square"/>
   </g>
   <g id="line2d_45">
    <path clip-path="url(#pb429540c33)" style="fill: none; stroke: #000000; stroke-width: 2; stroke-linecap: square"/>
   </g>
   <g id="line2d_46">
    <path d="M 914.123438 930.93662 
L 926.723438 930.93662 
" clip-path="url(#pb429540c33)" style="fill: none; stroke: #000000; stroke-width: 2; stroke-linecap: square"/>
   </g>
   <g id="line2d_47">
    <path clip-path="url(#pb429540c33)" style="fill: none; stroke: #000000; stroke-width: 2; stroke-linecap: square"/>
   </g>
   <g id="patch_48">
    <path d="M 1075.823438 860.959761 
L 1101.023438 860.959761 
L 1101.023438 825.971331 
L 1075.823438 825.971331 
L 1075.823438 860.959761 
z
" clip-path="url(#pb429540c33)" style="fill: #ffffff; stroke: #000000; stroke-width: 2; stroke-linejoin: miter"/>
   </g>
   <g id="line2d_48">
    <path d="M 1088.423438 860.959761 
L 1088.423438 869.706868 
" clip-path="url(#pb429540c33)" style="fill: none; stroke: #000000; stroke-width: 2; stroke-linecap: square"/>
   </g>
   <g id="line2d_49">
    <path d="M 1088.423438 825.971331 
L 1088.423438 799.730009 
" clip-path="url(#pb429540c33)" style="fill: none; stroke: #000000; stroke-width: 2; stroke-linecap: square"/>
   </g>
   <g id="line2d_50">
    <path d="M 1082.123438 869.706868 
L 1094.723438 869.706868 
" clip-path="url(#pb429540c33)" style="fill: none; stroke: #000000; stroke-width: 2; stroke-linecap: square"/>
   </g>
   <g id="line2d_51">
    <path d="M 1082.123438 799.730009 
L 1094.723438 799.730009 
" clip-path="url(#pb429540c33)" style="fill: none; stroke: #000000; stroke-width: 2; stroke-linecap: square"/>
   </g>
   <g id="patch_49">
    <path d="M 1243.823438 723.088687 
L 1269.023438 723.088687 
L 1269.023438 637.783563 
L 1243.823438 637.783563 
L 1243.823438 723.088687 
z
" clip-path="url(#pb429540c33)" style="fill: #ffffff; stroke: #000000; stroke-width: 2; stroke-linejoin: miter"/>
   </g>
   <g id="line2d_52">
    <path d="M 1256.423438 723.088687 
L 1256.423438 796.397777 
" clip-path="url(#pb429540c33)" style="fill: none; stroke: #000000; stroke-width: 2; stroke-linecap: square"/>
   </g>
   <g id="line2d_53">
    <path d="M 1256.423438 637.783563 
L 1256.423438 625.78753 
" clip-path="url(#pb429540c33)" style="fill: none; stroke: #000000; stroke-width: 2; stroke-linecap: square"/>
   </g>
   <g id="line2d_54">
    <path d="M 1250.123438 796.397777 
L 1262.723438 796.397777 
" clip-path="url(#pb429540c33)" style="fill: none; stroke: #000000; stroke-width: 2; stroke-linecap: square"/>
   </g>
   <g id="line2d_55">
    <path d="M 1250.123438 625.78753 
L 1262.723438 625.78753 
" clip-path="url(#pb429540c33)" style="fill: none; stroke: #000000; stroke-width: 2; stroke-linecap: square"/>
   </g>
   <g id="patch_50">
    <path d="M 1411.823438 793.731992 
L 1437.023438 793.731992 
M 1411.823438 793.731992 
L 1411.823438 793.731992 
L 1411.823438 793.731992 
" clip-path="url(#pb429540c33)" style="fill: #ffffff; stroke: #000000; stroke-width: 2; stroke-linejoin: miter"/>
   </g>
   <g id="line2d_56">
    <path d="M 1424.423438 793.731992 
L 1424.423438 793.731992 
" clip-path="url(#pb429540c33)" style="fill: none; stroke: #000000; stroke-width: 2; stroke-linecap: square"/>
   </g>
   <g id="line2d_57">
    <path clip-path="url(#pb429540c33)" style="fill: none; stroke: #000000; stroke-width: 2; stroke-linecap: square"/>
   </g>
   <g id="line2d_58">
    <path d="M 1418.123438 793.731992 
L 1430.723438 793.731992 
" clip-path="url(#pb429540c33)" style="fill: none; stroke: #000000; stroke-width: 2; stroke-linecap: square"/>
   </g>
   <g id="line2d_59">
    <path clip-path="url(#pb429540c33)" style="fill: none; stroke: #000000; stroke-width: 2; stroke-linecap: square"/>
   </g>
   <g id="patch_51">
    <path d="M 1579.823438 904.695298 
L 1605.023438 904.695298 
L 1605.023438 829.720092 
L 1579.823438 829.720092 
L 1579.823438 904.695298 
z
" clip-path="url(#pb429540c33)" style="fill: #ffffff; stroke: #000000; stroke-width: 2; stroke-linejoin: miter"/>
   </g>
   <g id="line2d_60">
    <path d="M 1592.423438 904.695298 
L 1592.423438 919.690339 
" clip-path="url(#pb429540c33)" style="fill: none; stroke: #000000; stroke-width: 2; stroke-linecap: square"/>
   </g>
   <g id="line2d_61">
    <path d="M 1592.423438 829.720092 
L 1592.423438 769.739926 
" clip-path="url(#pb429540c33)" style="fill: none; stroke: #000000; stroke-width: 2; stroke-linecap: square"/>
   </g>
   <g id="line2d_62">
    <path d="M 1586.123438 919.690339 
L 1598.723438 919.690339 
" clip-path="url(#pb429540c33)" style="fill: none; stroke: #000000; stroke-width: 2; stroke-linecap: square"/>
   </g>
   <g id="line2d_63">
    <path d="M 1586.123438 769.739926 
L 1598.723438 769.739926 
" clip-path="url(#pb429540c33)" style="fill: none; stroke: #000000; stroke-width: 2; stroke-linecap: square"/>
   </g>
   <g id="line2d_64">
    <path d="M 235.823438 858.742752 
L 261.023438 858.742752 
" clip-path="url(#pb429540c33)" style="fill: none; stroke: #ff0000; stroke-width: 2"/>
   </g>
   <g id="line2d_65">
    <path d="M 403.823438 829.720092 
L 429.023438 829.720092 
" clip-path="url(#pb429540c33)" style="fill: none; stroke: #ff0000; stroke-width: 2"/>
   </g>
   <g id="line2d_66">
    <path d="M 571.823437 816.867199 
L 597.023438 816.867199 
" clip-path="url(#pb429540c33)" style="fill: none; stroke: #ff0000; stroke-width: 2"/>
   </g>
   <g id="line2d_67">
    <path d="M 739.823438 719.30206 
L 765.023438 719.30206 
" clip-path="url(#pb429540c33)" style="fill: none; stroke: #ff0000; stroke-width: 2"/>
   </g>
   <g id="line2d_68">
    <path clip-path="url(#pb429540c33)" style="fill: none; stroke: #ff0000; stroke-width: 2"/>
   </g>
   <g id="line2d_69">
    <path d="M 1075.823438 852.212654 
L 1101.023438 852.212654 
" clip-path="url(#pb429540c33)" style="fill: none; stroke: #ff0000; stroke-width: 2"/>
   </g>
   <g id="line2d_70">
    <path d="M 1243.823438 649.779596 
L 1269.023438 649.779596 
" clip-path="url(#pb429540c33)" style="fill: none; stroke: #ff0000; stroke-width: 2"/>
   </g>
   <g id="line2d_71">
    <path clip-path="url(#pb429540c33)" style="fill: none; stroke: #ff0000; stroke-width: 2"/>
   </g>
   <g id="line2d_72">
    <path d="M 1579.823438 889.700257 
L 1605.023438 889.700257 
" clip-path="url(#pb429540c33)" style="fill: none; stroke: #ff0000; stroke-width: 2"/>
   </g>
   <g id="patch_52">
    <path d="M 164.423438 946.194075 
L 164.423438 610.530075 
" style="fill: none; stroke: #000000; stroke-width: 5; stroke-linejoin: miter; stroke-linecap: square"/>
   </g>
   <g id="patch_53">
    <path d="M 1676.423438 946.194075 
L 1676.423438 610.530075 
" style="fill: none; stroke: #000000; stroke-width: 5; stroke-linejoin: miter; stroke-linecap: square"/>
   </g>
   <g id="patch_54">
    <path d="M 164.423438 946.194075 
L 1676.423438 946.194075 
" style="fill: none; stroke: #000000; stroke-width: 5; stroke-linejoin: miter; stroke-linecap: square"/>
   </g>
   <g id="patch_55">
    <path d="M 164.423438 610.530075 
L 1676.423438 610.530075 
" style="fill: none; stroke: #000000; stroke-width: 5; stroke-linejoin: miter; stroke-linecap: square"/>
   </g>
  </g>
  <g id="axes_3">
   <g id="patch_56">
    <path d="M 164.423438 492.594075 
L 1676.423438 492.594075 
L 1676.423438 156.930075 
L 164.423438 156.930075 
z
" style="fill: #fffef8; fill-opacity: 0.466667"/>
   </g>
   <g id="patch_57">
    <path d="M 185.423438 492.594075 
L 210.623438 492.594075 
L 210.623438 425.428984 
L 185.423438 425.428984 
z
" clip-path="url(#pebc275c6ce)" style="fill: #7cbeec"/>
   </g>
   <g id="patch_58">
    <path d="M 353.423438 492.594075 
L 378.623438 492.594075 
L 378.623438 489.364984 
L 353.423438 489.364984 
z
" clip-path="url(#pebc275c6ce)" style="fill: #7cbeec"/>
   </g>
   <g id="patch_59">
    <path d="M 521.423438 492.594075 
L 546.623438 492.594075 
L 546.623438 475.156984 
L 521.423438 475.156984 
z
" clip-path="url(#pebc275c6ce)" style="fill: #7cbeec"/>
   </g>
   <g id="patch_60">
    <path d="M 689.423437 492.594075 
L 714.623437 492.594075 
L 714.623437 442.866075 
L 689.423437 442.866075 
z
" clip-path="url(#pebc275c6ce)" style="fill: #7cbeec"/>
   </g>
   <g id="patch_61">
    <path d="M 857.423437 492.594075 
L 882.623438 492.594075 
L 882.623438 489.364984 
L 857.423437 489.364984 
z
" clip-path="url(#pebc275c6ce)" style="fill: #7cbeec"/>
   </g>
   <g id="patch_62">
    <path d="M 1025.423438 492.594075 
L 1050.623438 492.594075 
L 1050.623438 473.21953 
L 1025.423438 473.21953 
z
" clip-path="url(#pebc275c6ce)" style="fill: #7cbeec"/>
   </g>
   <g id="patch_63">
    <path d="M 1193.423437 492.594075 
L 1218.623437 492.594075 
L 1218.623437 451.90753 
L 1193.423437 451.90753 
z
" clip-path="url(#pebc275c6ce)" style="fill: #7cbeec"/>
   </g>
   <g id="patch_64">
    <path d="M 1361.423437 492.594075 
L 1386.623437 492.594075 
L 1386.623437 491.302439 
L 1361.423437 491.302439 
z
" clip-path="url(#pebc275c6ce)" style="fill: #7cbeec"/>
   </g>
   <g id="patch_65">
    <path d="M 1529.423438 492.594075 
L 1554.623438 492.594075 
L 1554.623438 479.031893 
L 1529.423438 479.031893 
z
" clip-path="url(#pebc275c6ce)" style="fill: #7cbeec"/>
   </g>
   <g id="patch_66">
    <path d="M 210.623438 492.594075 
L 235.823438 492.594075 
L 235.823438 430.59553 
L 210.623438 430.59553 
z
" clip-path="url(#pebc275c6ce)" style="fill: #7eb57e"/>
   </g>
   <g id="patch_67">
    <path d="M 378.623438 492.594075 
L 403.823438 492.594075 
L 403.823438 486.781711 
L 378.623438 486.781711 
z
" clip-path="url(#pebc275c6ce)" style="fill: #7eb57e"/>
   </g>
   <g id="patch_68">
    <path d="M 546.623438 492.594075 
L 571.823437 492.594075 
L 571.823437 475.802802 
L 546.623438 475.802802 
z
" clip-path="url(#pebc275c6ce)" style="fill: #7eb57e"/>
   </g>
   <g id="patch_69">
    <path d="M 714.623438 492.594075 
L 739.823437 492.594075 
L 739.823437 437.69953 
L 714.623438 437.69953 
z
" clip-path="url(#pebc275c6ce)" style="fill: #7eb57e"/>
   </g>
   <g id="patch_70">
    <path d="M 882.623438 492.594075 
L 907.823437 492.594075 
L 907.823437 490.010802 
L 882.623438 490.010802 
z
" clip-path="url(#pebc275c6ce)" style="fill: #7eb57e"/>
   </g>
   <g id="patch_71">
    <path d="M 1050.623438 492.594075 
L 1075.823437 492.594075 
L 1075.823437 477.740257 
L 1050.623438 477.740257 
z
" clip-path="url(#pebc275c6ce)" style="fill: #7eb57e"/>
   </g>
   <g id="patch_72">
    <path d="M 1218.623437 492.594075 
L 1243.823437 492.594075 
L 1243.823437 445.449348 
L 1218.623437 445.449348 
z
" clip-path="url(#pebc275c6ce)" style="fill: #7eb57e"/>
   </g>
   <g id="patch_73">
    <path d="M 1386.623437 492.594075 
L 1411.823437 492.594075 
L 1411.823437 488.719166 
L 1386.623437 488.719166 
z
" clip-path="url(#pebc275c6ce)" style="fill: #7eb57e"/>
   </g>
   <g id="patch_74">
    <path d="M 1554.623438 492.594075 
L 1579.823438 492.594075 
L 1579.823438 477.740257 
L 1554.623438 477.740257 
z
" clip-path="url(#pebc275c6ce)" style="fill: #7eb57e"/>
   </g>
   <g id="patch_75">
    <path d="M 235.823438 492.594075 
L 261.023438 492.594075 
L 261.023438 428.658075 
L 235.823438 428.658075 
z
" clip-path="url(#pebc275c6ce)" style="fill: #ff6f45"/>
   </g>
   <g id="patch_76">
    <path d="M 403.823438 492.594075 
L 429.023438 492.594075 
L 429.023438 489.364984 
L 403.823438 489.364984 
z
" clip-path="url(#pebc275c6ce)" style="fill: #ff6f45"/>
   </g>
   <g id="patch_77">
    <path d="M 571.823438 492.594075 
L 597.023438 492.594075 
L 597.023438 477.740257 
L 571.823438 477.740257 
z
" clip-path="url(#pebc275c6ce)" style="fill: #ff6f45"/>
   </g>
   <g id="patch_78">
    <path d="M 739.823438 492.594075 
L 765.023438 492.594075 
L 765.023438 440.92862 
L 739.823438 440.92862 
z
" clip-path="url(#pebc275c6ce)" style="fill: #ff6f45"/>
   </g>
   <g id="patch_79">
    <path d="M 907.823438 492.594075 
L 933.023438 492.594075 
L 933.023438 491.302439 
L 907.823438 491.302439 
z
" clip-path="url(#pebc275c6ce)" style="fill: #ff6f45"/>
   </g>
   <g id="patch_80">
    <path d="M 1075.823438 492.594075 
L 1101.023438 492.594075 
L 1101.023438 475.156984 
L 1075.823438 475.156984 
z
" clip-path="url(#pebc275c6ce)" style="fill: #ff6f45"/>
   </g>
   <g id="patch_81">
    <path d="M 1243.823438 492.594075 
L 1269.023438 492.594075 
L 1269.023438 453.199166 
L 1243.823438 453.199166 
z
" clip-path="url(#pebc275c6ce)" style="fill: #ff6f45"/>
   </g>
   <g id="patch_82">
    <path d="M 1411.823438 492.594075 
L 1437.023438 492.594075 
L 1437.023438 490.010802 
L 1411.823438 490.010802 
z
" clip-path="url(#pebc275c6ce)" style="fill: #ff6f45"/>
   </g>
   <g id="patch_83">
    <path d="M 1579.823438 492.594075 
L 1605.023438 492.594075 
L 1605.023438 473.865348 
L 1579.823438 473.865348 
z
" clip-path="url(#pebc275c6ce)" style="fill: #ff6f45"/>
   </g>
   <g id="patch_84">
    <path d="M 261.023438 492.594075 
L 286.223438 492.594075 
L 286.223438 172.914075 
L 261.023438 172.914075 
z
" clip-path="url(#pebc275c6ce)" style="fill: #3274a1"/>
   </g>
   <g id="patch_85">
    <path d="M 429.023438 492.594075 
L 454.223437 492.594075 
L 454.223437 472.573711 
L 429.023438 472.573711 
z
" clip-path="url(#pebc275c6ce)" style="fill: #3274a1"/>
   </g>
   <g id="patch_86">
    <path d="M 597.023438 492.594075 
L 622.223437 492.594075 
L 622.223437 473.21953 
L 597.023438 473.21953 
z
" clip-path="url(#pebc275c6ce)" style="fill: #3274a1"/>
   </g>
   <g id="patch_87">
    <path d="M 765.023438 492.594075 
L 790.223438 492.594075 
L 790.223438 396.367166 
L 765.023438 396.367166 
z
" clip-path="url(#pebc275c6ce)" style="fill: #3274a1"/>
   </g>
   <g id="patch_88">
    <path d="M 933.023438 492.594075 
L 958.223438 492.594075 
L 958.223438 489.364984 
L 933.023438 489.364984 
z
" clip-path="url(#pebc275c6ce)" style="fill: #3274a1"/>
   </g>
   <g id="patch_89">
    <path d="M 1101.023438 492.594075 
L 1126.223438 492.594075 
L 1126.223438 469.990439 
L 1101.023438 469.990439 
z
" clip-path="url(#pebc275c6ce)" style="fill: #3274a1"/>
   </g>
   <g id="patch_90">
    <path d="M 1269.023438 492.594075 
L 1294.223438 492.594075 
L 1294.223438 415.095893 
L 1269.023438 415.095893 
z
" clip-path="url(#pebc275c6ce)" style="fill: #3274a1"/>
   </g>
   <g id="patch_91">
    <path d="M 1437.023438 492.594075 
L 1462.223438 492.594075 
L 1462.223438 489.364984 
L 1437.023438 489.364984 
z
" clip-path="url(#pebc275c6ce)" style="fill: #3274a1"/>
   </g>
   <g id="patch_92">
    <path d="M 1605.023438 492.594075 
L 1630.223438 492.594075 
L 1630.223438 479.677711 
L 1605.023438 479.677711 
z
" clip-path="url(#pebc275c6ce)" style="fill: #3274a1"/>
   </g>
   <g id="matplotlib.axis_4">
    <g id="xtick_10">
     <g id="line2d_73">
      <g>
       <use xlink:href="#m8124f41bd4" x="403.823438" y="492.594075" style="stroke: #000000; stroke-width: 5"/>
      </g>
     </g>
     <g id="text_9">
      <!-- ibm_fez -->
      <g transform="translate(297.340234 561.22845) scale(0.65 -0.65)">
       <use xlink:href="#TimesNewRomanPSMT-69"/>
       <use xlink:href="#TimesNewRomanPSMT-62" x="27.783203"/>
       <use xlink:href="#TimesNewRomanPSMT-6d" x="77.783203"/>
       <use xlink:href="#TimesNewRomanPSMT-5f" x="155.566406"/>
       <use xlink:href="#TimesNewRomanPSMT-66" x="205.566406"/>
       <use xlink:href="#TimesNewRomanPSMT-65" x="238.867188"/>
       <use xlink:href="#TimesNewRomanPSMT-7a" x="283.251953"/>
      </g>
     </g>
    </g>
    <g id="xtick_11">
     <g id="line2d_74">
      <g>
       <use xlink:href="#m8124f41bd4" x="907.823438" y="492.594075" style="stroke: #000000; stroke-width: 5"/>
      </g>
     </g>
     <g id="text_10">
      <!-- ibm_osaka -->
      <g transform="translate(767.012109 561.22845) scale(0.65 -0.65)">
       <use xlink:href="#TimesNewRomanPSMT-69"/>
       <use xlink:href="#TimesNewRomanPSMT-62" x="27.783203"/>
       <use xlink:href="#TimesNewRomanPSMT-6d" x="77.783203"/>
       <use xlink:href="#TimesNewRomanPSMT-5f" x="155.566406"/>
       <use xlink:href="#TimesNewRomanPSMT-6f" x="205.566406"/>
       <use xlink:href="#TimesNewRomanPSMT-73" x="255.566406"/>
       <use xlink:href="#TimesNewRomanPSMT-61" x="294.482422"/>
       <use xlink:href="#TimesNewRomanPSMT-6b" x="338.867188"/>
       <use xlink:href="#TimesNewRomanPSMT-61" x="388.867188"/>
      </g>
     </g>
    </g>
    <g id="xtick_12">
     <g id="line2d_75">
      <g>
       <use xlink:href="#m8124f41bd4" x="1411.823437" y="492.594075" style="stroke: #000000; stroke-width: 5"/>
      </g>
     </g>
     <g id="text_11">
      <!-- ibm_sherbrooke -->
      <g transform="translate(1200.619141 561.22845) scale(0.65 -0.65)">
       <use xlink:href="#TimesNewRomanPSMT-69"/>
       <use xlink:href="#TimesNewRomanPSMT-62" x="27.783203"/>
       <use xlink:href="#TimesNewRomanPSMT-6d" x="77.783203"/>
       <use xlink:href="#TimesNewRomanPSMT-5f" x="155.566406"/>
       <use xlink:href="#TimesNewRomanPSMT-73" x="205.566406"/>
       <use xlink:href="#TimesNewRomanPSMT-68" x="244.482422"/>
       <use xlink:href="#TimesNewRomanPSMT-65" x="294.482422"/>
       <use xlink:href="#TimesNewRomanPSMT-72" x="338.867188"/>
       <use xlink:href="#TimesNewRomanPSMT-62" x="372.167969"/>
       <use xlink:href="#TimesNewRomanPSMT-72" x="422.167969"/>
       <use xlink:href="#TimesNewRomanPSMT-6f" x="455.46875"/>
       <use xlink:href="#TimesNewRomanPSMT-6f" x="505.46875"/>
       <use xlink:href="#TimesNewRomanPSMT-6b" x="555.46875"/>
       <use xlink:href="#TimesNewRomanPSMT-65" x="605.46875"/>
      </g>
     </g>
    </g>
    <g id="xtick_13">
     <g id="line2d_76">
      <g>
       <use xlink:href="#mb65d91696d" x="235.823438" y="492.594075" style="stroke: #000000; stroke-width: 0.6"/>
      </g>
     </g>
    </g>
    <g id="xtick_14">
     <g id="line2d_77">
      <g>
       <use xlink:href="#mb65d91696d" x="571.823438" y="492.594075" style="stroke: #000000; stroke-width: 0.6"/>
      </g>
     </g>
    </g>
    <g id="xtick_15">
     <g id="line2d_78">
      <g>
       <use xlink:href="#mb65d91696d" x="739.823438" y="492.594075" style="stroke: #000000; stroke-width: 0.6"/>
      </g>
     </g>
    </g>
    <g id="xtick_16">
     <g id="line2d_79">
      <g>
       <use xlink:href="#mb65d91696d" x="1075.823438" y="492.594075" style="stroke: #000000; stroke-width: 0.6"/>
      </g>
     </g>
    </g>
    <g id="xtick_17">
     <g id="line2d_80">
      <g>
       <use xlink:href="#mb65d91696d" x="1243.823438" y="492.594075" style="stroke: #000000; stroke-width: 0.6"/>
      </g>
     </g>
    </g>
    <g id="xtick_18">
     <g id="line2d_81">
      <g>
       <use xlink:href="#mb65d91696d" x="1579.823437" y="492.594075" style="stroke: #000000; stroke-width: 0.6"/>
      </g>
     </g>
    </g>
   </g>
   <g id="matplotlib.axis_5">
    <g id="ytick_16">
     <g id="line2d_82">
      <path d="M 164.423438 492.594075 
L 1676.423438 492.594075 
" clip-path="url(#pebc275c6ce)" style="fill: none; stroke-dasharray: 3.7,1.6; stroke-dashoffset: 0; stroke: #808080"/>
     </g>
     <g id="line2d_83">
      <g>
       <use xlink:href="#m5f7356afd4" x="164.423438" y="492.594075" style="stroke: #000000; stroke-width: 5"/>
      </g>
     </g>
     <g id="text_12">
      <!-- 0 -->
      <g transform="translate(108.423438 515.161262) scale(0.65 -0.65)">
       <use xlink:href="#TimesNewRomanPSMT-30"/>
      </g>
     </g>
    </g>
    <g id="ytick_17">
     <g id="line2d_84">
      <path d="M 164.423438 426.462293 
L 1676.423438 426.462293 
" clip-path="url(#pebc275c6ce)" style="fill: none; stroke-dasharray: 3.7,1.6; stroke-dashoffset: 0; stroke: #808080"/>
     </g>
     <g id="line2d_85">
      <g>
       <use xlink:href="#m5f7356afd4" x="164.423438" y="426.462293" style="stroke: #000000; stroke-width: 5"/>
      </g>
     </g>
     <g id="text_13">
      <!-- 10 -->
      <g transform="translate(75.923438 449.029481) scale(0.65 -0.65)">
       <use xlink:href="#TimesNewRomanPSMT-31"/>
       <use xlink:href="#TimesNewRomanPSMT-30" x="50"/>
      </g>
     </g>
    </g>
    <g id="ytick_18">
     <g id="line2d_86">
      <path d="M 164.423438 360.330511 
L 1676.423438 360.330511 
" clip-path="url(#pebc275c6ce)" style="fill: none; stroke-dasharray: 3.7,1.6; stroke-dashoffset: 0; stroke: #808080"/>
     </g>
     <g id="line2d_87">
      <g>
       <use xlink:href="#m5f7356afd4" x="164.423438" y="360.330511" style="stroke: #000000; stroke-width: 5"/>
      </g>
     </g>
     <g id="text_14">
      <!-- 20 -->
      <g transform="translate(75.923438 382.897699) scale(0.65 -0.65)">
       <defs>
        <path id="TimesNewRomanPSMT-32" d="M 2934 816 
L 2638 0 
L 138 0 
L 138 116 
Q 1241 1122 1691 1759 
Q 2141 2397 2141 2925 
Q 2141 3328 1894 3587 
Q 1647 3847 1303 3847 
Q 991 3847 742 3664 
Q 494 3481 375 3128 
L 259 3128 
Q 338 3706 661 4015 
Q 984 4325 1469 4325 
Q 1984 4325 2329 3994 
Q 2675 3663 2675 3213 
Q 2675 2891 2525 2569 
Q 2294 2063 1775 1497 
Q 997 647 803 472 
L 1909 472 
Q 2247 472 2383 497 
Q 2519 522 2628 598 
Q 2738 675 2819 816 
L 2934 816 
z
" transform="scale(0.015625)"/>
       </defs>
       <use xlink:href="#TimesNewRomanPSMT-32"/>
       <use xlink:href="#TimesNewRomanPSMT-30" x="50"/>
      </g>
     </g>
    </g>
    <g id="ytick_19">
     <g id="line2d_88">
      <path d="M 164.423438 294.19873 
L 1676.423438 294.19873 
" clip-path="url(#pebc275c6ce)" style="fill: none; stroke-dasharray: 3.7,1.6; stroke-dashoffset: 0; stroke: #808080"/>
     </g>
     <g id="line2d_89">
      <g>
       <use xlink:href="#m5f7356afd4" x="164.423438" y="294.19873" style="stroke: #000000; stroke-width: 5"/>
      </g>
     </g>
     <g id="text_15">
      <!-- 30 -->
      <g transform="translate(75.923438 316.765917) scale(0.65 -0.65)">
       <defs>
        <path id="TimesNewRomanPSMT-33" d="M 325 3431 
Q 506 3859 782 4092 
Q 1059 4325 1472 4325 
Q 1981 4325 2253 3994 
Q 2459 3747 2459 3466 
Q 2459 3003 1878 2509 
Q 2269 2356 2469 2072 
Q 2669 1788 2669 1403 
Q 2669 853 2319 450 
Q 1863 -75 997 -75 
Q 569 -75 414 31 
Q 259 138 259 259 
Q 259 350 332 419 
Q 406 488 509 488 
Q 588 488 669 463 
Q 722 447 909 348 
Q 1097 250 1169 231 
Q 1284 197 1416 197 
Q 1734 197 1970 444 
Q 2206 691 2206 1028 
Q 2206 1275 2097 1509 
Q 2016 1684 1919 1775 
Q 1784 1900 1550 2001 
Q 1316 2103 1072 2103 
L 972 2103 
L 972 2197 
Q 1219 2228 1467 2375 
Q 1716 2522 1828 2728 
Q 1941 2934 1941 3181 
Q 1941 3503 1739 3701 
Q 1538 3900 1238 3900 
Q 753 3900 428 3381 
L 325 3431 
z
" transform="scale(0.015625)"/>
       </defs>
       <use xlink:href="#TimesNewRomanPSMT-33"/>
       <use xlink:href="#TimesNewRomanPSMT-30" x="50"/>
      </g>
     </g>
    </g>
    <g id="ytick_20">
     <g id="line2d_90">
      <path d="M 164.423438 228.066948 
L 1676.423438 228.066948 
" clip-path="url(#pebc275c6ce)" style="fill: none; stroke-dasharray: 3.7,1.6; stroke-dashoffset: 0; stroke: #808080"/>
     </g>
     <g id="line2d_91">
      <g>
       <use xlink:href="#m5f7356afd4" x="164.423438" y="228.066948" style="stroke: #000000; stroke-width: 5"/>
      </g>
     </g>
     <g id="text_16">
      <!-- 40 -->
      <g transform="translate(75.923438 250.634135) scale(0.65 -0.65)">
       <defs>
        <path id="TimesNewRomanPSMT-34" d="M 2978 1563 
L 2978 1119 
L 2409 1119 
L 2409 0 
L 1894 0 
L 1894 1119 
L 100 1119 
L 100 1519 
L 2066 4325 
L 2409 4325 
L 2409 1563 
L 2978 1563 
z
M 1894 1563 
L 1894 3666 
L 406 1563 
L 1894 1563 
z
" transform="scale(0.015625)"/>
       </defs>
       <use xlink:href="#TimesNewRomanPSMT-34"/>
       <use xlink:href="#TimesNewRomanPSMT-30" x="50"/>
      </g>
     </g>
    </g>
    <g id="ytick_21">
     <g id="line2d_92">
      <g>
       <use xlink:href="#mdfde3a9c9d" x="164.423438" y="459.528184" style="stroke: #000000; stroke-width: 3"/>
      </g>
     </g>
    </g>
    <g id="ytick_22">
     <g id="line2d_93">
      <g>
       <use xlink:href="#mdfde3a9c9d" x="164.423438" y="393.396402" style="stroke: #000000; stroke-width: 3"/>
      </g>
     </g>
    </g>
    <g id="ytick_23">
     <g id="line2d_94">
      <g>
       <use xlink:href="#mdfde3a9c9d" x="164.423438" y="327.26462" style="stroke: #000000; stroke-width: 3"/>
      </g>
     </g>
    </g>
    <g id="ytick_24">
     <g id="line2d_95">
      <g>
       <use xlink:href="#mdfde3a9c9d" x="164.423438" y="261.132839" style="stroke: #000000; stroke-width: 3"/>
      </g>
     </g>
    </g>
    <g id="text_17">
     <!-- in_constraints_probs (%) -->
     <g transform="translate(57.897656 652.412856) rotate(-90) scale(0.65 -0.65)">
      <use xlink:href="#TimesNewRomanPSMT-69"/>
      <use xlink:href="#TimesNewRomanPSMT-6e" x="27.783203"/>
      <use xlink:href="#TimesNewRomanPSMT-5f" x="77.783203"/>
      <use xlink:href="#TimesNewRomanPSMT-63" x="127.783203"/>
      <use xlink:href="#TimesNewRomanPSMT-6f" x="172.167969"/>
      <use xlink:href="#TimesNewRomanPSMT-6e" x="222.167969"/>
      <use xlink:href="#TimesNewRomanPSMT-73" x="272.167969"/>
      <use xlink:href="#TimesNewRomanPSMT-74" x="311.083984"/>
      <use xlink:href="#TimesNewRomanPSMT-72" x="338.867188"/>
      <use xlink:href="#TimesNewRomanPSMT-61" x="372.167969"/>
      <use xlink:href="#TimesNewRomanPSMT-69" x="416.552734"/>
      <use xlink:href="#TimesNewRomanPSMT-6e" x="444.335938"/>
      <use xlink:href="#TimesNewRomanPSMT-74" x="494.335938"/>
      <use xlink:href="#TimesNewRomanPSMT-73" x="522.119141"/>
      <use xlink:href="#TimesNewRomanPSMT-5f" x="561.035156"/>
      <use xlink:href="#TimesNewRomanPSMT-70" x="611.035156"/>
      <use xlink:href="#TimesNewRomanPSMT-72" x="661.035156"/>
      <use xlink:href="#TimesNewRomanPSMT-6f" x="694.335938"/>
      <use xlink:href="#TimesNewRomanPSMT-62" x="744.335938"/>
      <use xlink:href="#TimesNewRomanPSMT-73" x="794.335938"/>
      <use xlink:href="#TimesNewRomanPSMT-20" x="833.251953"/>
      <use xlink:href="#TimesNewRomanPSMT-28" x="858.251953"/>
      <use xlink:href="#TimesNewRomanPSMT-25" x="891.552734"/>
      <use xlink:href="#TimesNewRomanPSMT-29" x="974.853516"/>
     </g>
    </g>
   </g>
   <g id="patch_93">
    <path d="M 164.423438 492.594075 
L 164.423438 156.930075 
" style="fill: none; stroke: #000000; stroke-width: 5; stroke-linejoin: miter; stroke-linecap: square"/>
   </g>
   <g id="patch_94">
    <path d="M 1676.423438 492.594075 
L 1676.423438 156.930075 
" style="fill: none; stroke: #000000; stroke-width: 5; stroke-linejoin: miter; stroke-linecap: square"/>
   </g>
   <g id="patch_95">
    <path d="M 164.423438 492.594075 
L 1676.423438 492.594075 
" style="fill: none; stroke: #000000; stroke-width: 5; stroke-linejoin: miter; stroke-linecap: square"/>
   </g>
   <g id="patch_96">
    <path d="M 164.423438 156.930075 
L 1676.423438 156.930075 
" style="fill: none; stroke: #000000; stroke-width: 5; stroke-linejoin: miter; stroke-linecap: square"/>
   </g>
   <g id="legend_1">
    <g id="patch_97">
     <path d="M 31.2 73.2 
L 151.2 73.2 
L 151.2 31.2 
L 31.2 31.2 
z
" style="fill: #7cbeec"/>
    </g>
    <g id="text_18">
     <!-- penalty -->
     <g transform="translate(199.2 73.2) scale(0.6 -0.6)">
      <defs>
       <path id="TimesNewRomanPSMT-6c" d="M 1184 4444 
L 1184 647 
Q 1184 378 1223 290 
Q 1263 203 1344 158 
Q 1425 113 1647 113 
L 1647 0 
L 244 0 
L 244 113 
Q 441 113 512 153 
Q 584 194 625 287 
Q 666 381 666 647 
L 666 3247 
Q 666 3731 644 3842 
Q 622 3953 573 3993 
Q 525 4034 450 4034 
Q 369 4034 244 3984 
L 191 4094 
L 1044 4444 
L 1184 4444 
z
" transform="scale(0.015625)"/>
       <path id="TimesNewRomanPSMT-79" d="M 38 2863 
L 1372 2863 
L 1372 2747 
L 1306 2747 
Q 1166 2747 1095 2686 
Q 1025 2625 1025 2534 
Q 1025 2413 1128 2197 
L 1825 753 
L 2466 2334 
Q 2519 2463 2519 2588 
Q 2519 2644 2497 2672 
Q 2472 2706 2419 2726 
Q 2366 2747 2231 2747 
L 2231 2863 
L 3163 2863 
L 3163 2747 
Q 3047 2734 2984 2696 
Q 2922 2659 2847 2556 
Q 2819 2513 2741 2316 
L 1575 -541 
Q 1406 -956 1132 -1168 
Q 859 -1381 606 -1381 
Q 422 -1381 303 -1275 
Q 184 -1169 184 -1031 
Q 184 -900 270 -820 
Q 356 -741 506 -741 
Q 609 -741 788 -809 
Q 913 -856 944 -856 
Q 1038 -856 1148 -759 
Q 1259 -663 1372 -384 
L 1575 113 
L 547 2272 
Q 500 2369 397 2513 
Q 319 2622 269 2659 
Q 197 2709 38 2747 
L 38 2863 
z
" transform="scale(0.015625)"/>
      </defs>
      <use xlink:href="#TimesNewRomanPSMT-70"/>
      <use xlink:href="#TimesNewRomanPSMT-65" x="50"/>
      <use xlink:href="#TimesNewRomanPSMT-6e" x="94.384766"/>
      <use xlink:href="#TimesNewRomanPSMT-61" x="144.384766"/>
      <use xlink:href="#TimesNewRomanPSMT-6c" x="188.769531"/>
      <use xlink:href="#TimesNewRomanPSMT-74" x="216.552734"/>
      <use xlink:href="#TimesNewRomanPSMT-79" x="244.335938"/>
     </g>
    </g>
    <g id="patch_98">
     <path d="M 495.80625 73.2 
L 615.80625 73.2 
L 615.80625 31.2 
L 495.80625 31.2 
z
" style="fill: #7eb57e"/>
    </g>
    <g id="text_19">
     <!-- cyclic -->
     <g transform="translate(663.80625 73.2) scale(0.6 -0.6)">
      <use xlink:href="#TimesNewRomanPSMT-63"/>
      <use xlink:href="#TimesNewRomanPSMT-79" x="44.384766"/>
      <use xlink:href="#TimesNewRomanPSMT-63" x="94.384766"/>
      <use xlink:href="#TimesNewRomanPSMT-6c" x="138.769531"/>
      <use xlink:href="#TimesNewRomanPSMT-69" x="166.552734"/>
      <use xlink:href="#TimesNewRomanPSMT-63" x="194.335938"/>
     </g>
    </g>
    <g id="patch_99">
     <path d="M 927.046875 73.2 
L 1047.046875 73.2 
L 1047.046875 31.2 
L 927.046875 31.2 
z
" style="fill: #ff6f45"/>
    </g>
    <g id="text_20">
     <!-- HEA -->
     <g transform="translate(1095.046875 73.2) scale(0.6 -0.6)">
      <defs>
       <path id="TimesNewRomanPSMT-48" d="M 1316 2272 
L 3284 2272 
L 3284 3484 
Q 3284 3809 3244 3913 
Q 3213 3991 3113 4047 
Q 2978 4122 2828 4122 
L 2678 4122 
L 2678 4238 
L 4491 4238 
L 4491 4122 
L 4341 4122 
Q 4191 4122 4056 4050 
Q 3956 4000 3920 3898 
Q 3884 3797 3884 3484 
L 3884 750 
Q 3884 428 3925 325 
Q 3956 247 4053 191 
Q 4191 116 4341 116 
L 4491 116 
L 4491 0 
L 2678 0 
L 2678 116 
L 2828 116 
Q 3088 116 3206 269 
Q 3284 369 3284 750 
L 3284 2041 
L 1316 2041 
L 1316 750 
Q 1316 428 1356 325 
Q 1388 247 1488 191 
Q 1622 116 1772 116 
L 1925 116 
L 1925 0 
L 109 0 
L 109 116 
L 259 116 
Q 522 116 641 269 
Q 716 369 716 750 
L 716 3484 
Q 716 3809 675 3913 
Q 644 3991 547 4047 
Q 409 4122 259 4122 
L 109 4122 
L 109 4238 
L 1925 4238 
L 1925 4122 
L 1772 4122 
Q 1622 4122 1488 4050 
Q 1391 4000 1353 3898 
Q 1316 3797 1316 3484 
L 1316 2272 
z
" transform="scale(0.015625)"/>
       <path id="TimesNewRomanPSMT-45" d="M 1338 4006 
L 1338 2331 
L 2269 2331 
Q 2631 2331 2753 2441 
Q 2916 2584 2934 2947 
L 3050 2947 
L 3050 1472 
L 2934 1472 
Q 2891 1781 2847 1869 
Q 2791 1978 2662 2040 
Q 2534 2103 2269 2103 
L 1338 2103 
L 1338 706 
Q 1338 425 1363 364 
Q 1388 303 1450 267 
Q 1513 231 1688 231 
L 2406 231 
Q 2766 231 2928 281 
Q 3091 331 3241 478 
Q 3434 672 3638 1063 
L 3763 1063 
L 3397 0 
L 131 0 
L 131 116 
L 281 116 
Q 431 116 566 188 
Q 666 238 702 338 
Q 738 438 738 747 
L 738 3500 
Q 738 3903 656 3997 
Q 544 4122 281 4122 
L 131 4122 
L 131 4238 
L 3397 4238 
L 3444 3309 
L 3322 3309 
Q 3256 3644 3176 3769 
Q 3097 3894 2941 3959 
Q 2816 4006 2500 4006 
L 1338 4006 
z
" transform="scale(0.015625)"/>
       <path id="TimesNewRomanPSMT-41" d="M 2928 1419 
L 1288 1419 
L 1000 750 
Q 894 503 894 381 
Q 894 284 986 211 
Q 1078 138 1384 116 
L 1384 0 
L 50 0 
L 50 116 
Q 316 163 394 238 
Q 553 388 747 847 
L 2238 4334 
L 2347 4334 
L 3822 809 
Q 4000 384 4145 257 
Q 4291 131 4550 116 
L 4550 0 
L 2878 0 
L 2878 116 
Q 3131 128 3220 200 
Q 3309 272 3309 375 
Q 3309 513 3184 809 
L 2928 1419 
z
M 2841 1650 
L 2122 3363 
L 1384 1650 
L 2841 1650 
z
" transform="scale(0.015625)"/>
      </defs>
      <use xlink:href="#TimesNewRomanPSMT-48"/>
      <use xlink:href="#TimesNewRomanPSMT-45" x="72.216797"/>
      <use xlink:href="#TimesNewRomanPSMT-41" x="133.300781"/>
     </g>
    </g>
    <g id="patch_100">
     <path d="M 1338.35625 73.2 
L 1458.35625 73.2 
L 1458.35625 31.2 
L 1338.35625 31.2 
z
" style="fill: #3274a1"/>
    </g>
    <g id="text_21">
     <!-- QAcOA-CH -->
     <g transform="translate(1506.35625 73.2) scale(0.6 -0.6)">
      <defs>
       <path id="TimesNewRomanPSMT-51" d="M 2819 -47 
Q 3138 -597 3508 -856 
Q 3878 -1116 4350 -1153 
L 4350 -1253 
Q 3919 -1238 3428 -1080 
Q 2938 -922 2498 -642 
Q 2059 -363 1741 -47 
Q 1291 134 1028 338 
Q 647 641 436 1083 
Q 225 1525 225 2128 
Q 225 3078 840 3706 
Q 1456 4334 2331 4334 
Q 3163 4334 3770 3704 
Q 4378 3075 4378 2116 
Q 4378 1338 3945 750 
Q 3513 163 2819 -47 
z
M 2294 4094 
Q 1725 4094 1378 3688 
Q 941 3178 941 2128 
Q 941 1100 1384 544 
Q 1728 116 2294 116 
Q 2881 116 3241 544 
Q 3663 1050 3663 2038 
Q 3663 2797 3431 3316 
Q 3253 3716 2958 3905 
Q 2663 4094 2294 4094 
z
" transform="scale(0.015625)"/>
       <path id="TimesNewRomanPSMT-4f" d="M 2341 4334 
Q 3166 4334 3770 3707 
Q 4375 3081 4375 2144 
Q 4375 1178 3765 540 
Q 3156 -97 2291 -97 
Q 1416 -97 820 525 
Q 225 1147 225 2134 
Q 225 3144 913 3781 
Q 1509 4334 2341 4334 
z
M 2281 4106 
Q 1713 4106 1369 3684 
Q 941 3159 941 2147 
Q 941 1109 1384 550 
Q 1725 125 2284 125 
Q 2881 125 3270 590 
Q 3659 1056 3659 2059 
Q 3659 3147 3231 3681 
Q 2888 4106 2281 4106 
z
" transform="scale(0.015625)"/>
       <path id="TimesNewRomanPSMT-2d" d="M 259 1672 
L 1875 1672 
L 1875 1200 
L 259 1200 
L 259 1672 
z
" transform="scale(0.015625)"/>
       <path id="TimesNewRomanPSMT-43" d="M 3853 4334 
L 3950 2894 
L 3853 2894 
Q 3659 3541 3300 3825 
Q 2941 4109 2438 4109 
Q 2016 4109 1675 3895 
Q 1334 3681 1139 3212 
Q 944 2744 944 2047 
Q 944 1472 1128 1050 
Q 1313 628 1683 403 
Q 2053 178 2528 178 
Q 2941 178 3256 354 
Q 3572 531 3950 1056 
L 4047 994 
Q 3728 428 3303 165 
Q 2878 -97 2294 -97 
Q 1241 -97 663 684 
Q 231 1266 231 2053 
Q 231 2688 515 3219 
Q 800 3750 1298 4042 
Q 1797 4334 2388 4334 
Q 2847 4334 3294 4109 
Q 3425 4041 3481 4041 
Q 3566 4041 3628 4100 
Q 3709 4184 3744 4334 
L 3853 4334 
z
" transform="scale(0.015625)"/>
      </defs>
      <use xlink:href="#TimesNewRomanPSMT-51"/>
      <use xlink:href="#TimesNewRomanPSMT-41" x="72.216797"/>
      <use xlink:href="#TimesNewRomanPSMT-63" x="144.433594"/>
      <use xlink:href="#TimesNewRomanPSMT-4f" x="188.818359"/>
      <use xlink:href="#TimesNewRomanPSMT-41" x="261.035156"/>
      <use xlink:href="#TimesNewRomanPSMT-2d" x="333.251953"/>
      <use xlink:href="#TimesNewRomanPSMT-43" x="366.552734"/>
      <use xlink:href="#TimesNewRomanPSMT-48" x="433.251953"/>
     </g>
    </g>
   </g>
  </g>
  <g id="axes_4">
   <g id="matplotlib.axis_6">
    <g id="ytick_25">
     <g id="line2d_96">
      <defs>
       <path id="mce0515fd44" d="M 0 0 
L 10 0 
" style="stroke: #000000; stroke-width: 3"/>
      </defs>
      <g>
       <use xlink:href="#mce0515fd44" x="1676.423438" y="278.741467" style="stroke: #000000; stroke-width: 3"/>
      </g>
     </g>
    </g>
    <g id="text_22">
     <!-- speedup ($\times$) -->
     <g transform="translate(1739.323437 479.462075) rotate(-90) scale(0.65 -0.65)">
      <defs>
       <path id="TimesNewRomanPSMT-64" d="M 2222 322 
Q 2013 103 1813 7 
Q 1613 -88 1381 -88 
Q 913 -88 563 304 
Q 213 697 213 1313 
Q 213 1928 600 2439 
Q 988 2950 1597 2950 
Q 1975 2950 2222 2709 
L 2222 3238 
Q 2222 3728 2198 3840 
Q 2175 3953 2125 3993 
Q 2075 4034 2000 4034 
Q 1919 4034 1784 3984 
L 1744 4094 
L 2597 4444 
L 2738 4444 
L 2738 1134 
Q 2738 631 2761 520 
Q 2784 409 2836 365 
Q 2888 322 2956 322 
Q 3041 322 3181 375 
L 3216 266 
L 2366 -88 
L 2222 -88 
L 2222 322 
z
M 2222 541 
L 2222 2016 
Q 2203 2228 2109 2403 
Q 2016 2578 1861 2667 
Q 1706 2756 1559 2756 
Q 1284 2756 1069 2509 
Q 784 2184 784 1559 
Q 784 928 1059 592 
Q 1334 256 1672 256 
Q 1956 256 2222 541 
z
" transform="scale(0.015625)"/>
      </defs>
      <use xlink:href="#TimesNewRomanPSMT-73" transform="translate(0 0.5625)"/>
      <use xlink:href="#TimesNewRomanPSMT-70" transform="translate(38.916016 0.5625)"/>
      <use xlink:href="#TimesNewRomanPSMT-65" transform="translate(88.916016 0.5625)"/>
      <use xlink:href="#TimesNewRomanPSMT-65" transform="translate(133.300781 0.5625)"/>
      <use xlink:href="#TimesNewRomanPSMT-64" transform="translate(177.685547 0.5625)"/>
      <use xlink:href="#TimesNewRomanPSMT-75" transform="translate(227.685547 0.5625)"/>
      <use xlink:href="#TimesNewRomanPSMT-70" transform="translate(277.685547 0.5625)"/>
      <use xlink:href="#TimesNewRomanPSMT-20" transform="translate(327.685547 0.5625)"/>
      <use xlink:href="#TimesNewRomanPSMT-28" transform="translate(352.685547 0.5625)"/>
      <use xlink:href="#TimesNewRomanPSMT-d7" transform="translate(385.986328 0.5625)"/>
      <use xlink:href="#TimesNewRomanPSMT-29" transform="translate(442.382812 0.5625)"/>
     </g>
    </g>
   </g>
   <g id="patch_101">
    <path d="M 235.823438 468.888225 
L 261.023438 468.888225 
L 261.023438 466.974799 
L 235.823438 466.974799 
L 235.823438 468.888225 
z
" clip-path="url(#pebc275c6ce)" style="fill: #ffffff; stroke: #000000; stroke-width: 2; stroke-linejoin: miter"/>
   </g>
   <g id="line2d_97">
    <path d="M 248.423438 468.888225 
L 248.423438 469.60576 
" clip-path="url(#pebc275c6ce)" style="fill: none; stroke: #000000; stroke-width: 2; stroke-linecap: square"/>
   </g>
   <g id="line2d_98">
    <path d="M 248.423438 466.974799 
L 248.423438 465.778907 
" clip-path="url(#pebc275c6ce)" style="fill: none; stroke: #000000; stroke-width: 2; stroke-linecap: square"/>
   </g>
   <g id="line2d_99">
    <path d="M 242.123438 469.60576 
L 254.723438 469.60576 
" clip-path="url(#pebc275c6ce)" style="fill: none; stroke: #000000; stroke-width: 2; stroke-linecap: square"/>
   </g>
   <g id="line2d_100">
    <path d="M 242.123438 465.778907 
L 254.723438 465.778907 
" clip-path="url(#pebc275c6ce)" style="fill: none; stroke: #000000; stroke-width: 2; stroke-linecap: square"/>
   </g>
   <g id="patch_102">
    <path d="M 403.823438 477.33662 
L 429.023438 477.33662 
L 429.023438 462.06007 
L 403.823438 462.06007 
L 403.823438 477.33662 
z
" clip-path="url(#pebc275c6ce)" style="fill: #ffffff; stroke: #000000; stroke-width: 2; stroke-linejoin: miter"/>
   </g>
   <g id="line2d_101">
    <path d="M 416.423438 477.33662 
L 416.423438 477.33662 
" clip-path="url(#pebc275c6ce)" style="fill: none; stroke: #000000; stroke-width: 2; stroke-linecap: square"/>
   </g>
   <g id="line2d_102">
    <path d="M 416.423438 462.06007 
L 416.423438 446.78352 
" clip-path="url(#pebc275c6ce)" style="fill: none; stroke: #000000; stroke-width: 2; stroke-linecap: square"/>
   </g>
   <g id="line2d_103">
    <path d="M 410.123438 477.33662 
L 422.723438 477.33662 
" clip-path="url(#pebc275c6ce)" style="fill: none; stroke: #000000; stroke-width: 2; stroke-linecap: square"/>
   </g>
   <g id="line2d_104">
    <path d="M 410.123438 446.78352 
L 422.723438 446.78352 
" clip-path="url(#pebc275c6ce)" style="fill: none; stroke: #000000; stroke-width: 2; stroke-linecap: square"/>
   </g>
   <g id="patch_103">
    <path d="M 571.823437 322.152331 
L 597.023438 322.152331 
L 597.023438 306.366562 
L 571.823437 306.366562 
L 571.823437 322.152331 
z
" clip-path="url(#pebc275c6ce)" style="fill: #ffffff; stroke: #000000; stroke-width: 2; stroke-linejoin: miter"/>
   </g>
   <g id="line2d_105">
    <path d="M 584.423437 322.152331 
L 584.423437 333.991657 
" clip-path="url(#pebc275c6ce)" style="fill: none; stroke: #000000; stroke-width: 2; stroke-linecap: square"/>
   </g>
   <g id="line2d_106">
    <path d="M 584.423437 306.366562 
L 584.423437 302.42012 
" clip-path="url(#pebc275c6ce)" style="fill: none; stroke: #000000; stroke-width: 2; stroke-linecap: square"/>
   </g>
   <g id="line2d_107">
    <path d="M 578.123438 333.991657 
L 590.723438 333.991657 
" clip-path="url(#pebc275c6ce)" style="fill: none; stroke: #000000; stroke-width: 2; stroke-linecap: square"/>
   </g>
   <g id="line2d_108">
    <path d="M 578.123438 302.42012 
L 590.723438 302.42012 
" clip-path="url(#pebc275c6ce)" style="fill: none; stroke: #000000; stroke-width: 2; stroke-linecap: square"/>
   </g>
   <g id="patch_104">
    <path d="M 739.823438 390.778046 
L 765.023438 390.778046 
L 765.023438 384.421361 
L 739.823438 384.421361 
L 739.823438 390.778046 
z
" clip-path="url(#pebc275c6ce)" style="fill: #ffffff; stroke: #000000; stroke-width: 2; stroke-linejoin: miter"/>
   </g>
   <g id="line2d_109">
    <path d="M 752.423438 390.778046 
L 752.423438 393.161803 
" clip-path="url(#pebc275c6ce)" style="fill: none; stroke: #000000; stroke-width: 2; stroke-linecap: square"/>
   </g>
   <g id="line2d_110">
    <path d="M 752.423438 384.421361 
L 752.423438 380.448433 
" clip-path="url(#pebc275c6ce)" style="fill: none; stroke: #000000; stroke-width: 2; stroke-linecap: square"/>
   </g>
   <g id="line2d_111">
    <path d="M 746.123438 393.161803 
L 758.723438 393.161803 
" clip-path="url(#pebc275c6ce)" style="fill: none; stroke: #000000; stroke-width: 2; stroke-linecap: square"/>
   </g>
   <g id="line2d_112">
    <path d="M 746.123438 380.448433 
L 758.723438 380.448433 
" clip-path="url(#pebc275c6ce)" style="fill: none; stroke: #000000; stroke-width: 2; stroke-linecap: square"/>
   </g>
   <g id="patch_105">
    <path d="M 907.823438 373.456079 
L 933.023438 373.456079 
L 933.023438 302.42012 
L 907.823438 302.42012 
L 907.823438 373.456079 
z
" clip-path="url(#pebc275c6ce)" style="fill: #ffffff; stroke: #000000; stroke-width: 2; stroke-linejoin: miter"/>
   </g>
   <g id="line2d_113">
    <path d="M 920.423438 373.456079 
L 920.423438 420.813385 
" clip-path="url(#pebc275c6ce)" style="fill: none; stroke: #000000; stroke-width: 2; stroke-linecap: square"/>
   </g>
   <g id="line2d_114">
    <path d="M 920.423438 302.42012 
L 920.423438 278.741467 
" clip-path="url(#pebc275c6ce)" style="fill: none; stroke: #000000; stroke-width: 2; stroke-linecap: square"/>
   </g>
   <g id="line2d_115">
    <path d="M 914.123438 420.813385 
L 926.723438 420.813385 
" clip-path="url(#pebc275c6ce)" style="fill: none; stroke: #000000; stroke-width: 2; stroke-linecap: square"/>
   </g>
   <g id="line2d_116">
    <path d="M 914.123438 278.741467 
L 926.723438 278.741467 
" clip-path="url(#pebc275c6ce)" style="fill: none; stroke: #000000; stroke-width: 2; stroke-linecap: square"/>
   </g>
   <g id="patch_106">
    <path d="M 1075.823438 346.394761 
L 1101.023438 346.394761 
L 1101.023438 322.716108 
L 1075.823438 322.716108 
L 1075.823438 346.394761 
z
" clip-path="url(#pebc275c6ce)" style="fill: #ffffff; stroke: #000000; stroke-width: 2; stroke-linejoin: miter"/>
   </g>
   <g id="line2d_117">
    <path d="M 1088.423438 346.394761 
L 1088.423438 359.92542 
" clip-path="url(#pebc275c6ce)" style="fill: none; stroke: #000000; stroke-width: 2; stroke-linecap: square"/>
   </g>
   <g id="line2d_118">
    <path d="M 1088.423438 322.716108 
L 1088.423438 312.568114 
" clip-path="url(#pebc275c6ce)" style="fill: none; stroke: #000000; stroke-width: 2; stroke-linecap: square"/>
   </g>
   <g id="line2d_119">
    <path d="M 1082.123438 359.92542 
L 1094.723438 359.92542 
" clip-path="url(#pebc275c6ce)" style="fill: none; stroke: #000000; stroke-width: 2; stroke-linecap: square"/>
   </g>
   <g id="line2d_120">
    <path d="M 1082.123438 312.568114 
L 1094.723438 312.568114 
" clip-path="url(#pebc275c6ce)" style="fill: none; stroke: #000000; stroke-width: 2; stroke-linecap: square"/>
   </g>
   <g id="patch_107">
    <path d="M 1243.823438 393.18829 
L 1269.023438 393.18829 
L 1269.023438 381.348963 
L 1243.823438 381.348963 
L 1243.823438 393.18829 
z
" clip-path="url(#pebc275c6ce)" style="fill: #ffffff; stroke: #000000; stroke-width: 2; stroke-linejoin: miter"/>
   </g>
   <g id="line2d_121">
    <path d="M 1256.423438 393.18829 
L 1256.423438 395.161511 
" clip-path="url(#pebc275c6ce)" style="fill: none; stroke: #000000; stroke-width: 2; stroke-linecap: square"/>
   </g>
   <g id="line2d_122">
    <path d="M 1256.423438 381.348963 
L 1256.423438 371.482858 
" clip-path="url(#pebc275c6ce)" style="fill: none; stroke: #000000; stroke-width: 2; stroke-linecap: square"/>
   </g>
   <g id="line2d_123">
    <path d="M 1250.123438 395.161511 
L 1262.723438 395.161511 
" clip-path="url(#pebc275c6ce)" style="fill: none; stroke: #000000; stroke-width: 2; stroke-linecap: square"/>
   </g>
   <g id="line2d_124">
    <path d="M 1250.123438 371.482858 
L 1262.723438 371.482858 
" clip-path="url(#pebc275c6ce)" style="fill: none; stroke: #000000; stroke-width: 2; stroke-linecap: square"/>
   </g>
   <g id="patch_108">
    <path d="M 1411.823438 373.456079 
L 1437.023438 373.456079 
L 1437.023438 278.741467 
L 1411.823438 278.741467 
L 1411.823438 373.456079 
z
" clip-path="url(#pebc275c6ce)" style="fill: #ffffff; stroke: #000000; stroke-width: 2; stroke-linejoin: miter"/>
   </g>
   <g id="line2d_125">
    <path d="M 1424.423438 373.456079 
L 1424.423438 420.813385 
" clip-path="url(#pebc275c6ce)" style="fill: none; stroke: #000000; stroke-width: 2; stroke-linecap: square"/>
   </g>
   <g id="line2d_126">
    <path d="M 1424.423438 278.741467 
L 1424.423438 231.384162 
" clip-path="url(#pebc275c6ce)" style="fill: none; stroke: #000000; stroke-width: 2; stroke-linecap: square"/>
   </g>
   <g id="line2d_127">
    <path d="M 1418.123438 420.813385 
L 1430.723438 420.813385 
" clip-path="url(#pebc275c6ce)" style="fill: none; stroke: #000000; stroke-width: 2; stroke-linecap: square"/>
   </g>
   <g id="line2d_128">
    <path d="M 1418.123438 231.384162 
L 1430.723438 231.384162 
" clip-path="url(#pebc275c6ce)" style="fill: none; stroke: #000000; stroke-width: 2; stroke-linecap: square"/>
   </g>
   <g id="patch_109">
    <path d="M 1579.823438 255.062815 
L 1605.023438 255.062815 
L 1605.023438 207.705509 
L 1579.823438 207.705509 
L 1579.823438 255.062815 
z
" clip-path="url(#pebc275c6ce)" style="fill: #ffffff; stroke: #000000; stroke-width: 2; stroke-linejoin: miter"/>
   </g>
   <g id="line2d_129">
    <path d="M 1592.423438 255.062815 
L 1592.423438 266.902141 
" clip-path="url(#pebc275c6ce)" style="fill: none; stroke: #000000; stroke-width: 2; stroke-linecap: square"/>
   </g>
   <g id="line2d_130">
    <path d="M 1592.423438 207.705509 
L 1592.423438 172.18753 
" clip-path="url(#pebc275c6ce)" style="fill: none; stroke: #000000; stroke-width: 2; stroke-linecap: square"/>
   </g>
   <g id="line2d_131">
    <path d="M 1586.123438 266.902141 
L 1598.723438 266.902141 
" clip-path="url(#pebc275c6ce)" style="fill: none; stroke: #000000; stroke-width: 2; stroke-linecap: square"/>
   </g>
   <g id="line2d_132">
    <path d="M 1586.123438 172.18753 
L 1598.723438 172.18753 
" clip-path="url(#pebc275c6ce)" style="fill: none; stroke: #000000; stroke-width: 2; stroke-linecap: square"/>
   </g>
   <g id="line2d_133">
    <path d="M 235.823438 468.17069 
L 261.023438 468.17069 
" clip-path="url(#pebc275c6ce)" style="fill: none; stroke: #ff0000; stroke-width: 2"/>
   </g>
   <g id="line2d_134">
    <path d="M 403.823438 477.33662 
L 429.023438 477.33662 
" clip-path="url(#pebc275c6ce)" style="fill: none; stroke: #ff0000; stroke-width: 2"/>
   </g>
   <g id="line2d_135">
    <path d="M 571.823437 310.313005 
L 597.023438 310.313005 
" clip-path="url(#pebc275c6ce)" style="fill: none; stroke: #ff0000; stroke-width: 2"/>
   </g>
   <g id="line2d_136">
    <path d="M 739.823438 388.394289 
L 765.023438 388.394289 
" clip-path="url(#pebc275c6ce)" style="fill: none; stroke: #ff0000; stroke-width: 2"/>
   </g>
   <g id="line2d_137">
    <path d="M 907.823438 326.098773 
L 933.023438 326.098773 
" clip-path="url(#pebc275c6ce)" style="fill: none; stroke: #ff0000; stroke-width: 2"/>
   </g>
   <g id="line2d_138">
    <path d="M 1075.823438 332.864103 
L 1101.023438 332.864103 
" clip-path="url(#pebc275c6ce)" style="fill: none; stroke: #ff0000; stroke-width: 2"/>
   </g>
   <g id="line2d_139">
    <path d="M 1243.823438 391.215069 
L 1269.023438 391.215069 
" clip-path="url(#pebc275c6ce)" style="fill: none; stroke: #ff0000; stroke-width: 2"/>
   </g>
   <g id="line2d_140">
    <path d="M 1411.823438 326.098773 
L 1437.023438 326.098773 
" clip-path="url(#pebc275c6ce)" style="fill: none; stroke: #ff0000; stroke-width: 2"/>
   </g>
   <g id="line2d_141">
    <path d="M 1579.823438 243.223488 
L 1605.023438 243.223488 
" clip-path="url(#pebc275c6ce)" style="fill: none; stroke: #ff0000; stroke-width: 2"/>
   </g>
   <g id="patch_110">
    <path d="M 164.423438 492.594075 
L 164.423438 156.930075 
" style="fill: none; stroke: #000000; stroke-width: 5; stroke-linejoin: miter; stroke-linecap: square"/>
   </g>
   <g id="patch_111">
    <path d="M 1676.423438 492.594075 
L 1676.423438 156.930075 
" style="fill: none; stroke: #000000; stroke-width: 5; stroke-linejoin: miter; stroke-linecap: square"/>
   </g>
   <g id="patch_112">
    <path d="M 164.423438 492.594075 
L 1676.423438 492.594075 
" style="fill: none; stroke: #000000; stroke-width: 5; stroke-linejoin: miter; stroke-linecap: square"/>
   </g>
   <g id="patch_113">
    <path d="M 164.423438 156.930075 
L 1676.423438 156.930075 
" style="fill: none; stroke: #000000; stroke-width: 5; stroke-linejoin: miter; stroke-linecap: square"/>
   </g>
   <g id="legend_2"/>
  </g>
 </g>
 <defs>
  <clipPath id="pb429540c33">
   <rect x="164.423438" y="610.530075" width="1512" height="335.664"/>
  </clipPath>
  <clipPath id="pebc275c6ce">
   <rect x="164.423438" y="156.930075" width="1512" height="335.664"/>
  </clipPath>
 </defs>
</svg>
