<?xml version="1.0" encoding="utf-8" standalone="no"?>
<!DOCTYPE svg PUBLIC "-//W3C//DTD SVG 1.1//EN"
  "http://www.w3.org/Graphics/SVG/1.1/DTD/svg11.dtd">
<svg xmlns:xlink="http://www.w3.org/1999/xlink" width="1993.050781pt" height="899.474219pt" viewBox="0 0 1993.050781 899.474219" xmlns="http://www.w3.org/2000/svg" version="1.1">
 <metadata>
  <rdf:RDF xmlns:dc="http://purl.org/dc/elements/1.1/" xmlns:cc="http://creativecommons.org/ns#" xmlns:rdf="http://www.w3.org/1999/02/22-rdf-syntax-ns#">
   <cc:Work>
    <dc:type rdf:resource="http://purl.org/dc/dcmitype/StillImage"/>
    <dc:date>2024-08-01T19:37:35.915720</dc:date>
    <dc:format>image/svg+xml</dc:format>
    <dc:creator>
     <cc:Agent>
      <dc:title>Matplotlib v3.9.1, https://matplotlib.org/</dc:title>
     </cc:Agent>
    </dc:creator>
   </cc:Work>
  </rdf:RDF>
 </metadata>
 <defs>
  <style type="text/css">*{stroke-linejoin: round; stroke-linecap: butt}</style>
 </defs>
 <g id="figure_1">
  <g id="patch_1">
   <path d="M 0 899.474219 
L 1993.050781 899.474219 
L 1993.050781 0 
L 0 0 
z
" style="fill: #ffffff"/>
  </g>
  <g id="axes_1">
   <g id="patch_2">
    <path d="M 214.065391 746.575781 
L 1026.765391 746.575781 
L 1026.765391 179.575781 
L 214.065391 179.575781 
z
" style="fill: #fffef8; fill-opacity: 0.466667"/>
   </g>
   <g id="matplotlib.axis_1">
    <g id="xtick_1">
     <g id="line2d_1">
      <defs>
       <path id="m8d9d12681a" d="M 0 0 
L 0 20 
" style="stroke: #000000; stroke-width: 5"/>
      </defs>
      <g>
       <use xlink:href="#m8d9d12681a" x="315.652891" y="746.575781" style="stroke: #000000; stroke-width: 5"/>
      </g>
     </g>
     <g id="text_1">
      <!-- 1 -->
      <g transform="translate(299.402891 815.210156) scale(0.65 -0.65)">
       <defs>
        <path id="TimesNewRomanPSMT-31" d="M 750 3822 
L 1781 4325 
L 1884 4325 
L 1884 747 
Q 1884 391 1914 303 
Q 1944 216 2037 169 
Q 2131 122 2419 116 
L 2419 0 
L 825 0 
L 825 116 
Q 1125 122 1212 167 
Q 1300 213 1334 289 
Q 1369 366 1369 747 
L 1369 3034 
Q 1369 3497 1338 3628 
Q 1316 3728 1258 3775 
Q 1200 3822 1119 3822 
Q 1003 3822 797 3725 
L 750 3822 
z
" transform="scale(0.015625)"/>
       </defs>
       <use xlink:href="#TimesNewRomanPSMT-31"/>
      </g>
     </g>
    </g>
    <g id="xtick_2">
     <g id="line2d_2">
      <g>
       <use xlink:href="#m8d9d12681a" x="417.240391" y="746.575781" style="stroke: #000000; stroke-width: 5"/>
      </g>
     </g>
     <g id="text_2">
      <!-- 2 -->
      <g transform="translate(400.990391 815.210156) scale(0.65 -0.65)">
       <defs>
        <path id="TimesNewRomanPSMT-32" d="M 2934 816 
L 2638 0 
L 138 0 
L 138 116 
Q 1241 1122 1691 1759 
Q 2141 2397 2141 2925 
Q 2141 3328 1894 3587 
Q 1647 3847 1303 3847 
Q 991 3847 742 3664 
Q 494 3481 375 3128 
L 259 3128 
Q 338 3706 661 4015 
Q 984 4325 1469 4325 
Q 1984 4325 2329 3994 
Q 2675 3663 2675 3213 
Q 2675 2891 2525 2569 
Q 2294 2063 1775 1497 
Q 997 647 803 472 
L 1909 472 
Q 2247 472 2383 497 
Q 2519 522 2628 598 
Q 2738 675 2819 816 
L 2934 816 
z
" transform="scale(0.015625)"/>
       </defs>
       <use xlink:href="#TimesNewRomanPSMT-32"/>
      </g>
     </g>
    </g>
    <g id="xtick_3">
     <g id="line2d_3">
      <g>
       <use xlink:href="#m8d9d12681a" x="518.827891" y="746.575781" style="stroke: #000000; stroke-width: 5"/>
      </g>
     </g>
     <g id="text_3">
      <!-- 3 -->
      <g transform="translate(502.577891 815.210156) scale(0.65 -0.65)">
       <defs>
        <path id="TimesNewRomanPSMT-33" d="M 325 3431 
Q 506 3859 782 4092 
Q 1059 4325 1472 4325 
Q 1981 4325 2253 3994 
Q 2459 3747 2459 3466 
Q 2459 3003 1878 2509 
Q 2269 2356 2469 2072 
Q 2669 1788 2669 1403 
Q 2669 853 2319 450 
Q 1863 -75 997 -75 
Q 569 -75 414 31 
Q 259 138 259 259 
Q 259 350 332 419 
Q 406 488 509 488 
Q 588 488 669 463 
Q 722 447 909 348 
Q 1097 250 1169 231 
Q 1284 197 1416 197 
Q 1734 197 1970 444 
Q 2206 691 2206 1028 
Q 2206 1275 2097 1509 
Q 2016 1684 1919 1775 
Q 1784 1900 1550 2001 
Q 1316 2103 1072 2103 
L 972 2103 
L 972 2197 
Q 1219 2228 1467 2375 
Q 1716 2522 1828 2728 
Q 1941 2934 1941 3181 
Q 1941 3503 1739 3701 
Q 1538 3900 1238 3900 
Q 753 3900 428 3381 
L 325 3431 
z
" transform="scale(0.015625)"/>
       </defs>
       <use xlink:href="#TimesNewRomanPSMT-33"/>
      </g>
     </g>
    </g>
    <g id="xtick_4">
     <g id="line2d_4">
      <g>
       <use xlink:href="#m8d9d12681a" x="620.415391" y="746.575781" style="stroke: #000000; stroke-width: 5"/>
      </g>
     </g>
     <g id="text_4">
      <!-- 4 -->
      <g transform="translate(604.165391 815.210156) scale(0.65 -0.65)">
       <defs>
        <path id="TimesNewRomanPSMT-34" d="M 2978 1563 
L 2978 1119 
L 2409 1119 
L 2409 0 
L 1894 0 
L 1894 1119 
L 100 1119 
L 100 1519 
L 2066 4325 
L 2409 4325 
L 2409 1563 
L 2978 1563 
z
M 1894 1563 
L 1894 3666 
L 406 1563 
L 1894 1563 
z
" transform="scale(0.015625)"/>
       </defs>
       <use xlink:href="#TimesNewRomanPSMT-34"/>
      </g>
     </g>
    </g>
    <g id="xtick_5">
     <g id="line2d_5">
      <g>
       <use xlink:href="#m8d9d12681a" x="722.002891" y="746.575781" style="stroke: #000000; stroke-width: 5"/>
      </g>
     </g>
     <g id="text_5">
      <!-- 5 -->
      <g transform="translate(705.752891 815.210156) scale(0.65 -0.65)">
       <defs>
        <path id="TimesNewRomanPSMT-35" d="M 2778 4238 
L 2534 3706 
L 1259 3706 
L 981 3138 
Q 1809 3016 2294 2522 
Q 2709 2097 2709 1522 
Q 2709 1188 2573 903 
Q 2438 619 2231 419 
Q 2025 219 1772 97 
Q 1413 -75 1034 -75 
Q 653 -75 479 54 
Q 306 184 306 341 
Q 306 428 378 495 
Q 450 563 559 563 
Q 641 563 702 538 
Q 763 513 909 409 
Q 1144 247 1384 247 
Q 1750 247 2026 523 
Q 2303 800 2303 1197 
Q 2303 1581 2056 1914 
Q 1809 2247 1375 2428 
Q 1034 2569 447 2591 
L 1259 4238 
L 2778 4238 
z
" transform="scale(0.015625)"/>
       </defs>
       <use xlink:href="#TimesNewRomanPSMT-35"/>
      </g>
     </g>
    </g>
    <g id="xtick_6">
     <g id="line2d_6">
      <g>
       <use xlink:href="#m8d9d12681a" x="823.590391" y="746.575781" style="stroke: #000000; stroke-width: 5"/>
      </g>
     </g>
     <g id="text_6">
      <!-- 6 -->
      <g transform="translate(807.340391 815.210156) scale(0.65 -0.65)">
       <defs>
        <path id="TimesNewRomanPSMT-36" d="M 2869 4325 
L 2869 4209 
Q 2456 4169 2195 4045 
Q 1934 3922 1679 3669 
Q 1425 3416 1258 3105 
Q 1091 2794 978 2366 
Q 1428 2675 1881 2675 
Q 2316 2675 2634 2325 
Q 2953 1975 2953 1425 
Q 2953 894 2631 456 
Q 2244 -75 1606 -75 
Q 1172 -75 869 213 
Q 275 772 275 1663 
Q 275 2231 503 2743 
Q 731 3256 1154 3653 
Q 1578 4050 1965 4187 
Q 2353 4325 2688 4325 
L 2869 4325 
z
M 925 2138 
Q 869 1716 869 1456 
Q 869 1156 980 804 
Q 1091 453 1309 247 
Q 1469 100 1697 100 
Q 1969 100 2183 356 
Q 2397 613 2397 1088 
Q 2397 1622 2184 2012 
Q 1972 2403 1581 2403 
Q 1463 2403 1327 2353 
Q 1191 2303 925 2138 
z
" transform="scale(0.015625)"/>
       </defs>
       <use xlink:href="#TimesNewRomanPSMT-36"/>
      </g>
     </g>
    </g>
    <g id="xtick_7">
     <g id="line2d_7">
      <g>
       <use xlink:href="#m8d9d12681a" x="925.177891" y="746.575781" style="stroke: #000000; stroke-width: 5"/>
      </g>
     </g>
     <g id="text_7">
      <!-- 7 -->
      <g transform="translate(908.927891 815.210156) scale(0.65 -0.65)">
       <defs>
        <path id="TimesNewRomanPSMT-37" d="M 644 4238 
L 2916 4238 
L 2916 4119 
L 1503 -88 
L 1153 -88 
L 2419 3728 
L 1253 3728 
Q 900 3728 750 3644 
Q 488 3500 328 3200 
L 238 3234 
L 644 4238 
z
" transform="scale(0.015625)"/>
       </defs>
       <use xlink:href="#TimesNewRomanPSMT-37"/>
      </g>
     </g>
    </g>
    <g id="text_8">
     <!-- #layer -->
     <g transform="translate(539.211094 878.248438) scale(0.65 -0.65)">
      <defs>
       <path id="TimesNewRomanPSMT-23" d="M 359 -88 
L 650 1334 
L 116 1334 
L 116 1591 
L 700 1591 
L 916 2663 
L 116 2663 
L 116 2913 
L 975 2913 
L 1259 4334 
L 1519 4334 
L 1234 2913 
L 2288 2913 
L 2591 4334 
L 2850 4334 
L 2553 2913 
L 3084 2913 
L 3084 2663 
L 2506 2663 
L 2288 1591 
L 3084 1591 
L 3084 1334 
L 2234 1334 
L 1944 -88 
L 1691 -88 
L 1975 1334 
L 916 1334 
L 619 -88 
L 359 -88 
z
M 963 1591 
L 2022 1591 
L 2247 2663 
L 1181 2663 
L 963 1591 
z
" transform="scale(0.015625)"/>
       <path id="TimesNewRomanPSMT-6c" d="M 1184 4444 
L 1184 647 
Q 1184 378 1223 290 
Q 1263 203 1344 158 
Q 1425 113 1647 113 
L 1647 0 
L 244 0 
L 244 113 
Q 441 113 512 153 
Q 584 194 625 287 
Q 666 381 666 647 
L 666 3247 
Q 666 3731 644 3842 
Q 622 3953 573 3993 
Q 525 4034 450 4034 
Q 369 4034 244 3984 
L 191 4094 
L 1044 4444 
L 1184 4444 
z
" transform="scale(0.015625)"/>
       <path id="TimesNewRomanPSMT-61" d="M 1822 413 
Q 1381 72 1269 19 
Q 1100 -59 909 -59 
Q 613 -59 420 144 
Q 228 347 228 678 
Q 228 888 322 1041 
Q 450 1253 767 1440 
Q 1084 1628 1822 1897 
L 1822 2009 
Q 1822 2438 1686 2597 
Q 1550 2756 1291 2756 
Q 1094 2756 978 2650 
Q 859 2544 859 2406 
L 866 2225 
Q 866 2081 792 2003 
Q 719 1925 600 1925 
Q 484 1925 411 2006 
Q 338 2088 338 2228 
Q 338 2497 613 2722 
Q 888 2947 1384 2947 
Q 1766 2947 2009 2819 
Q 2194 2722 2281 2516 
Q 2338 2381 2338 1966 
L 2338 994 
Q 2338 584 2353 492 
Q 2369 400 2405 369 
Q 2441 338 2488 338 
Q 2538 338 2575 359 
Q 2641 400 2828 588 
L 2828 413 
Q 2478 -56 2159 -56 
Q 2006 -56 1915 50 
Q 1825 156 1822 413 
z
M 1822 616 
L 1822 1706 
Q 1350 1519 1213 1441 
Q 966 1303 859 1153 
Q 753 1003 753 825 
Q 753 600 887 451 
Q 1022 303 1197 303 
Q 1434 303 1822 616 
z
" transform="scale(0.015625)"/>
       <path id="TimesNewRomanPSMT-79" d="M 38 2863 
L 1372 2863 
L 1372 2747 
L 1306 2747 
Q 1166 2747 1095 2686 
Q 1025 2625 1025 2534 
Q 1025 2413 1128 2197 
L 1825 753 
L 2466 2334 
Q 2519 2463 2519 2588 
Q 2519 2644 2497 2672 
Q 2472 2706 2419 2726 
Q 2366 2747 2231 2747 
L 2231 2863 
L 3163 2863 
L 3163 2747 
Q 3047 2734 2984 2696 
Q 2922 2659 2847 2556 
Q 2819 2513 2741 2316 
L 1575 -541 
Q 1406 -956 1132 -1168 
Q 859 -1381 606 -1381 
Q 422 -1381 303 -1275 
Q 184 -1169 184 -1031 
Q 184 -900 270 -820 
Q 356 -741 506 -741 
Q 609 -741 788 -809 
Q 913 -856 944 -856 
Q 1038 -856 1148 -759 
Q 1259 -663 1372 -384 
L 1575 113 
L 547 2272 
Q 500 2369 397 2513 
Q 319 2622 269 2659 
Q 197 2709 38 2747 
L 38 2863 
z
" transform="scale(0.015625)"/>
       <path id="TimesNewRomanPSMT-65" d="M 681 1784 
Q 678 1147 991 784 
Q 1303 422 1725 422 
Q 2006 422 2214 576 
Q 2422 731 2563 1106 
L 2659 1044 
Q 2594 616 2278 264 
Q 1963 -88 1488 -88 
Q 972 -88 605 314 
Q 238 716 238 1394 
Q 238 2128 614 2539 
Q 991 2950 1559 2950 
Q 2041 2950 2350 2633 
Q 2659 2316 2659 1784 
L 681 1784 
z
M 681 1966 
L 2006 1966 
Q 1991 2241 1941 2353 
Q 1863 2528 1708 2628 
Q 1553 2728 1384 2728 
Q 1125 2728 920 2526 
Q 716 2325 681 1966 
z
" transform="scale(0.015625)"/>
       <path id="TimesNewRomanPSMT-72" d="M 1038 2947 
L 1038 2303 
Q 1397 2947 1775 2947 
Q 1947 2947 2059 2842 
Q 2172 2738 2172 2600 
Q 2172 2478 2090 2393 
Q 2009 2309 1897 2309 
Q 1788 2309 1652 2417 
Q 1516 2525 1450 2525 
Q 1394 2525 1328 2463 
Q 1188 2334 1038 2041 
L 1038 669 
Q 1038 431 1097 309 
Q 1138 225 1241 169 
Q 1344 113 1538 113 
L 1538 0 
L 72 0 
L 72 113 
Q 291 113 397 181 
Q 475 231 506 341 
Q 522 394 522 644 
L 522 1753 
Q 522 2253 501 2348 
Q 481 2444 426 2487 
Q 372 2531 291 2531 
Q 194 2531 72 2484 
L 41 2597 
L 906 2947 
L 1038 2947 
z
" transform="scale(0.015625)"/>
      </defs>
      <use xlink:href="#TimesNewRomanPSMT-23"/>
      <use xlink:href="#TimesNewRomanPSMT-6c" x="50"/>
      <use xlink:href="#TimesNewRomanPSMT-61" x="77.783203"/>
      <use xlink:href="#TimesNewRomanPSMT-79" x="122.167969"/>
      <use xlink:href="#TimesNewRomanPSMT-65" x="172.167969"/>
      <use xlink:href="#TimesNewRomanPSMT-72" x="216.552734"/>
     </g>
    </g>
   </g>
   <g id="matplotlib.axis_2">
    <g id="ytick_1">
     <g id="line2d_8">
      <path d="M 214.065391 695.030327 
L 1026.765391 695.030327 
" clip-path="url(#p45f5eba0c3)" style="fill: none; stroke-dasharray: 3.7,1.6; stroke-dashoffset: 0; stroke: #808080"/>
     </g>
     <g id="line2d_9">
      <defs>
       <path id="m93fdbdedef" d="M 0 0 
L -20 0 
" style="stroke: #000000; stroke-width: 5"/>
      </defs>
      <g>
       <use xlink:href="#m93fdbdedef" x="214.065391" y="695.030327" style="stroke: #000000; stroke-width: 5"/>
      </g>
     </g>
     <g id="text_9">
      <!-- 0 -->
      <g transform="translate(158.065391 717.597514) scale(0.65 -0.65)">
       <defs>
        <path id="TimesNewRomanPSMT-30" d="M 231 2094 
Q 231 2819 450 3342 
Q 669 3866 1031 4122 
Q 1313 4325 1613 4325 
Q 2100 4325 2488 3828 
Q 2972 3213 2972 2159 
Q 2972 1422 2759 906 
Q 2547 391 2217 158 
Q 1888 -75 1581 -75 
Q 975 -75 572 641 
Q 231 1244 231 2094 
z
M 844 2016 
Q 844 1141 1059 588 
Q 1238 122 1591 122 
Q 1759 122 1940 273 
Q 2122 425 2216 781 
Q 2359 1319 2359 2297 
Q 2359 3022 2209 3506 
Q 2097 3866 1919 4016 
Q 1791 4119 1609 4119 
Q 1397 4119 1231 3928 
Q 1006 3669 925 3112 
Q 844 2556 844 2016 
z
" transform="scale(0.015625)"/>
       </defs>
       <use xlink:href="#TimesNewRomanPSMT-30"/>
      </g>
     </g>
    </g>
    <g id="ytick_2">
     <g id="line2d_10">
      <path d="M 214.065391 488.848509 
L 1026.765391 488.848509 
" clip-path="url(#p45f5eba0c3)" style="fill: none; stroke-dasharray: 3.7,1.6; stroke-dashoffset: 0; stroke: #808080"/>
     </g>
     <g id="line2d_11">
      <g>
       <use xlink:href="#m93fdbdedef" x="214.065391" y="488.848509" style="stroke: #000000; stroke-width: 5"/>
      </g>
     </g>
     <g id="text_10">
      <!-- 20 -->
      <g transform="translate(125.565391 511.415696) scale(0.65 -0.65)">
       <use xlink:href="#TimesNewRomanPSMT-32"/>
       <use xlink:href="#TimesNewRomanPSMT-30" x="50"/>
      </g>
     </g>
    </g>
    <g id="ytick_3">
     <g id="line2d_12">
      <path d="M 214.065391 282.66669 
L 1026.765391 282.66669 
" clip-path="url(#p45f5eba0c3)" style="fill: none; stroke-dasharray: 3.7,1.6; stroke-dashoffset: 0; stroke: #808080"/>
     </g>
     <g id="line2d_13">
      <g>
       <use xlink:href="#m93fdbdedef" x="214.065391" y="282.66669" style="stroke: #000000; stroke-width: 5"/>
      </g>
     </g>
     <g id="text_11">
      <!-- 40 -->
      <g transform="translate(125.565391 305.233878) scale(0.65 -0.65)">
       <use xlink:href="#TimesNewRomanPSMT-34"/>
       <use xlink:href="#TimesNewRomanPSMT-30" x="50"/>
      </g>
     </g>
    </g>
    <g id="ytick_4">
     <g id="line2d_14">
      <defs>
       <path id="m477a861388" d="M 0 0 
L -10 0 
" style="stroke: #000000; stroke-width: 3"/>
      </defs>
      <g>
       <use xlink:href="#m477a861388" x="214.065391" y="643.484872" style="stroke: #000000; stroke-width: 3"/>
      </g>
     </g>
    </g>
    <g id="ytick_5">
     <g id="line2d_15">
      <g>
       <use xlink:href="#m477a861388" x="214.065391" y="591.939418" style="stroke: #000000; stroke-width: 3"/>
      </g>
     </g>
    </g>
    <g id="ytick_6">
     <g id="line2d_16">
      <g>
       <use xlink:href="#m477a861388" x="214.065391" y="540.393963" style="stroke: #000000; stroke-width: 3"/>
      </g>
     </g>
    </g>
    <g id="ytick_7">
     <g id="line2d_17">
      <g>
       <use xlink:href="#m477a861388" x="214.065391" y="437.303054" style="stroke: #000000; stroke-width: 3"/>
      </g>
     </g>
    </g>
    <g id="ytick_8">
     <g id="line2d_18">
      <g>
       <use xlink:href="#m477a861388" x="214.065391" y="385.757599" style="stroke: #000000; stroke-width: 3"/>
      </g>
     </g>
    </g>
    <g id="ytick_9">
     <g id="line2d_19">
      <g>
       <use xlink:href="#m477a861388" x="214.065391" y="334.212145" style="stroke: #000000; stroke-width: 3"/>
      </g>
     </g>
    </g>
    <g id="ytick_10">
     <g id="line2d_20">
      <g>
       <use xlink:href="#m477a861388" x="214.065391" y="231.121236" style="stroke: #000000; stroke-width: 3"/>
      </g>
     </g>
    </g>
    <g id="ytick_11">
     <g id="line2d_21">
      <g>
       <use xlink:href="#m477a861388" x="214.065391" y="179.575781" style="stroke: #000000; stroke-width: 3"/>
      </g>
     </g>
    </g>
    <g id="text_12">
     <!-- success rate (%) -->
     <g transform="translate(107.661484 674.224219) rotate(-90) scale(0.65 -0.65)">
      <defs>
       <path id="TimesNewRomanPSMT-73" d="M 2050 2947 
L 2050 1972 
L 1947 1972 
Q 1828 2431 1642 2597 
Q 1456 2763 1169 2763 
Q 950 2763 815 2647 
Q 681 2531 681 2391 
Q 681 2216 781 2091 
Q 878 1963 1175 1819 
L 1631 1597 
Q 2266 1288 2266 781 
Q 2266 391 1970 151 
Q 1675 -88 1309 -88 
Q 1047 -88 709 6 
Q 606 38 541 38 
Q 469 38 428 -44 
L 325 -44 
L 325 978 
L 428 978 
Q 516 541 762 319 
Q 1009 97 1316 97 
Q 1531 97 1667 223 
Q 1803 350 1803 528 
Q 1803 744 1651 891 
Q 1500 1038 1047 1263 
Q 594 1488 453 1669 
Q 313 1847 313 2119 
Q 313 2472 555 2709 
Q 797 2947 1181 2947 
Q 1350 2947 1591 2875 
Q 1750 2828 1803 2828 
Q 1853 2828 1881 2850 
Q 1909 2872 1947 2947 
L 2050 2947 
z
" transform="scale(0.015625)"/>
       <path id="TimesNewRomanPSMT-75" d="M 2709 2863 
L 2709 1128 
Q 2709 631 2732 520 
Q 2756 409 2807 365 
Q 2859 322 2928 322 
Q 3025 322 3147 375 
L 3191 266 
L 2334 -88 
L 2194 -88 
L 2194 519 
Q 1825 119 1631 15 
Q 1438 -88 1222 -88 
Q 981 -88 804 51 
Q 628 191 559 409 
Q 491 628 491 1028 
L 491 2306 
Q 491 2509 447 2587 
Q 403 2666 317 2708 
Q 231 2750 6 2747 
L 6 2863 
L 1009 2863 
L 1009 947 
Q 1009 547 1148 422 
Q 1288 297 1484 297 
Q 1619 297 1789 381 
Q 1959 466 2194 703 
L 2194 2325 
Q 2194 2569 2105 2655 
Q 2016 2741 1734 2747 
L 1734 2863 
L 2709 2863 
z
" transform="scale(0.015625)"/>
       <path id="TimesNewRomanPSMT-63" d="M 2631 1088 
Q 2516 522 2178 217 
Q 1841 -88 1431 -88 
Q 944 -88 581 321 
Q 219 731 219 1428 
Q 219 2103 620 2525 
Q 1022 2947 1584 2947 
Q 2006 2947 2278 2723 
Q 2550 2500 2550 2259 
Q 2550 2141 2473 2067 
Q 2397 1994 2259 1994 
Q 2075 1994 1981 2113 
Q 1928 2178 1911 2362 
Q 1894 2547 1784 2644 
Q 1675 2738 1481 2738 
Q 1169 2738 978 2506 
Q 725 2200 725 1697 
Q 725 1184 976 792 
Q 1228 400 1656 400 
Q 1963 400 2206 609 
Q 2378 753 2541 1131 
L 2631 1088 
z
" transform="scale(0.015625)"/>
       <path id="TimesNewRomanPSMT-20" transform="scale(0.015625)"/>
       <path id="TimesNewRomanPSMT-74" d="M 1031 3803 
L 1031 2863 
L 1700 2863 
L 1700 2644 
L 1031 2644 
L 1031 788 
Q 1031 509 1111 412 
Q 1191 316 1316 316 
Q 1419 316 1516 380 
Q 1613 444 1666 569 
L 1788 569 
Q 1678 263 1478 108 
Q 1278 -47 1066 -47 
Q 922 -47 784 33 
Q 647 113 581 261 
Q 516 409 516 719 
L 516 2644 
L 63 2644 
L 63 2747 
Q 234 2816 414 2980 
Q 594 3144 734 3369 
Q 806 3488 934 3803 
L 1031 3803 
z
" transform="scale(0.015625)"/>
       <path id="TimesNewRomanPSMT-28" d="M 1988 -1253 
L 1988 -1369 
Q 1516 -1131 1200 -813 
Q 750 -359 506 256 
Q 263 872 263 1534 
Q 263 2503 741 3301 
Q 1219 4100 1988 4444 
L 1988 4313 
Q 1603 4100 1356 3731 
Q 1109 3363 987 2797 
Q 866 2231 866 1616 
Q 866 947 969 400 
Q 1050 -31 1165 -292 
Q 1281 -553 1476 -793 
Q 1672 -1034 1988 -1253 
z
" transform="scale(0.015625)"/>
       <path id="TimesNewRomanPSMT-25" d="M 4350 4334 
L 1263 -175 
L 984 -175 
L 4072 4334 
L 4350 4334 
z
M 1138 4334 
Q 1559 4334 1792 3984 
Q 2025 3634 2025 3181 
Q 2025 2638 1762 2341 
Q 1500 2044 1131 2044 
Q 884 2044 678 2180 
Q 472 2316 348 2584 
Q 225 2853 225 3181 
Q 225 3509 350 3786 
Q 475 4063 692 4198 
Q 909 4334 1138 4334 
z
M 1128 4159 
Q 969 4159 845 3971 
Q 722 3784 722 3184 
Q 722 2750 791 2522 
Q 844 2350 956 2256 
Q 1022 2200 1119 2200 
Q 1269 2200 1375 2363 
Q 1531 2603 1531 3166 
Q 1531 3759 1378 4000 
Q 1278 4159 1128 4159 
z
M 4206 2103 
Q 4428 2103 4648 1962 
Q 4869 1822 4989 1553 
Q 5109 1284 5109 963 
Q 5109 409 4843 117 
Q 4578 -175 4216 -175 
Q 3988 -175 3773 -34 
Q 3559 106 3436 367 
Q 3313 628 3313 963 
Q 3313 1291 3436 1562 
Q 3559 1834 3773 1968 
Q 3988 2103 4206 2103 
z
M 4209 1938 
Q 4059 1938 3950 1769 
Q 3809 1550 3809 941 
Q 3809 381 3953 159 
Q 4059 0 4209 0 
Q 4353 0 4466 172 
Q 4616 400 4616 956 
Q 4616 1544 4466 1778 
Q 4363 1938 4209 1938 
z
" transform="scale(0.015625)"/>
       <path id="TimesNewRomanPSMT-29" d="M 144 4313 
L 144 4444 
Q 619 4209 934 3891 
Q 1381 3434 1625 2820 
Q 1869 2206 1869 1541 
Q 1869 572 1392 -226 
Q 916 -1025 144 -1369 
L 144 -1253 
Q 528 -1038 776 -670 
Q 1025 -303 1145 264 
Q 1266 831 1266 1447 
Q 1266 2113 1163 2663 
Q 1084 3094 967 3353 
Q 850 3613 656 3853 
Q 463 4094 144 4313 
z
" transform="scale(0.015625)"/>
      </defs>
      <use xlink:href="#TimesNewRomanPSMT-73"/>
      <use xlink:href="#TimesNewRomanPSMT-75" x="38.916016"/>
      <use xlink:href="#TimesNewRomanPSMT-63" x="88.916016"/>
      <use xlink:href="#TimesNewRomanPSMT-63" x="133.300781"/>
      <use xlink:href="#TimesNewRomanPSMT-65" x="177.685547"/>
      <use xlink:href="#TimesNewRomanPSMT-73" x="222.070312"/>
      <use xlink:href="#TimesNewRomanPSMT-73" x="260.986328"/>
      <use xlink:href="#TimesNewRomanPSMT-20" x="299.902344"/>
      <use xlink:href="#TimesNewRomanPSMT-72" x="324.902344"/>
      <use xlink:href="#TimesNewRomanPSMT-61" x="358.203125"/>
      <use xlink:href="#TimesNewRomanPSMT-74" x="402.587891"/>
      <use xlink:href="#TimesNewRomanPSMT-65" x="430.371094"/>
      <use xlink:href="#TimesNewRomanPSMT-20" x="474.755859"/>
      <use xlink:href="#TimesNewRomanPSMT-28" x="499.755859"/>
      <use xlink:href="#TimesNewRomanPSMT-25" x="533.056641"/>
      <use xlink:href="#TimesNewRomanPSMT-29" x="616.357422"/>
     </g>
    </g>
   </g>
   <g id="line2d_22">
    <path d="M 315.652891 693.343698 
L 417.240391 689.859307 
L 518.827891 692.415399 
L 620.415391 689.75471 
L 722.002891 682.138733 
L 823.590391 690.898741 
L 925.177891 687.551634 
" clip-path="url(#p45f5eba0c3)" style="fill: none; stroke: #7cbeec; stroke-width: 1.5; stroke-linecap: square"/>
    <defs>
     <path id="mab8c0b7a36" d="M 0 17.5 
C 4.641054 17.5 9.092648 15.65609 12.374369 12.374369 
C 15.65609 9.092648 17.5 4.641054 17.5 0 
C 17.5 -4.641054 15.65609 -9.092648 12.374369 -12.374369 
C 9.092648 -15.65609 4.641054 -17.5 0 -17.5 
C -4.641054 -17.5 -9.092648 -15.65609 -12.374369 -12.374369 
C -15.65609 -9.092648 -17.5 -4.641054 -17.5 0 
C -17.5 4.641054 -15.65609 9.092648 -12.374369 12.374369 
C -9.092648 15.65609 -4.641054 17.5 0 17.5 
z
" style="stroke: #000000; stroke-width: 2"/>
    </defs>
    <g clip-path="url(#p45f5eba0c3)">
     <use xlink:href="#mab8c0b7a36" x="315.652891" y="693.343698" style="fill: #7cbeec; stroke: #000000; stroke-width: 2"/>
     <use xlink:href="#mab8c0b7a36" x="417.240391" y="689.859307" style="fill: #7cbeec; stroke: #000000; stroke-width: 2"/>
     <use xlink:href="#mab8c0b7a36" x="518.827891" y="692.415399" style="fill: #7cbeec; stroke: #000000; stroke-width: 2"/>
     <use xlink:href="#mab8c0b7a36" x="620.415391" y="689.75471" style="fill: #7cbeec; stroke: #000000; stroke-width: 2"/>
     <use xlink:href="#mab8c0b7a36" x="722.002891" y="682.138733" style="fill: #7cbeec; stroke: #000000; stroke-width: 2"/>
     <use xlink:href="#mab8c0b7a36" x="823.590391" y="690.898741" style="fill: #7cbeec; stroke: #000000; stroke-width: 2"/>
     <use xlink:href="#mab8c0b7a36" x="925.177891" y="687.551634" style="fill: #7cbeec; stroke: #000000; stroke-width: 2"/>
    </g>
   </g>
   <g id="line2d_23">
    <path d="M 315.652891 690.931428 
L 417.240391 688.610679 
L 518.827891 675.664608 
L 620.415391 669.574006 
L 722.002891 680.210224 
L 823.590391 669.711289 
L 925.177891 660.474057 
" clip-path="url(#p45f5eba0c3)" style="fill: none; stroke: #7eb57e; stroke-width: 1.5; stroke-linecap: square"/>
    <defs>
     <path id="mc87b56659d" d="M 0 17.5 
C 4.641054 17.5 9.092648 15.65609 12.374369 12.374369 
C 15.65609 9.092648 17.5 4.641054 17.5 0 
C 17.5 -4.641054 15.65609 -9.092648 12.374369 -12.374369 
C 9.092648 -15.65609 4.641054 -17.5 0 -17.5 
C -4.641054 -17.5 -9.092648 -15.65609 -12.374369 -12.374369 
C -15.65609 -9.092648 -17.5 -4.641054 -17.5 0 
C -17.5 4.641054 -15.65609 9.092648 -12.374369 12.374369 
C -9.092648 15.65609 -4.641054 17.5 0 17.5 
z
" style="stroke: #000000; stroke-width: 2"/>
    </defs>
    <g clip-path="url(#p45f5eba0c3)">
     <use xlink:href="#mc87b56659d" x="315.652891" y="690.931428" style="fill: #7eb57e; stroke: #000000; stroke-width: 2"/>
     <use xlink:href="#mc87b56659d" x="417.240391" y="688.610679" style="fill: #7eb57e; stroke: #000000; stroke-width: 2"/>
     <use xlink:href="#mc87b56659d" x="518.827891" y="675.664608" style="fill: #7eb57e; stroke: #000000; stroke-width: 2"/>
     <use xlink:href="#mc87b56659d" x="620.415391" y="669.574006" style="fill: #7eb57e; stroke: #000000; stroke-width: 2"/>
     <use xlink:href="#mc87b56659d" x="722.002891" y="680.210224" style="fill: #7eb57e; stroke: #000000; stroke-width: 2"/>
     <use xlink:href="#mc87b56659d" x="823.590391" y="669.711289" style="fill: #7eb57e; stroke: #000000; stroke-width: 2"/>
     <use xlink:href="#mc87b56659d" x="925.177891" y="660.474057" style="fill: #7eb57e; stroke: #000000; stroke-width: 2"/>
    </g>
   </g>
   <g id="line2d_24">
    <path d="M 315.652891 695.030327 
L 417.240391 694.853819 
L 518.827891 690.513039 
L 620.415391 686.008826 
L 722.002891 691.029487 
L 823.590391 686.760618 
L 925.177891 685.498915 
" clip-path="url(#p45f5eba0c3)" style="fill: none; stroke: #ff6f45; stroke-width: 1.5; stroke-linecap: square"/>
    <defs>
     <path id="m1a64cdc452" d="M 0 17.5 
C 4.641054 17.5 9.092648 15.65609 12.374369 12.374369 
C 15.65609 9.092648 17.5 4.641054 17.5 0 
C 17.5 -4.641054 15.65609 -9.092648 12.374369 -12.374369 
C 9.092648 -15.65609 4.641054 -17.5 0 -17.5 
C -4.641054 -17.5 -9.092648 -15.65609 -12.374369 -12.374369 
C -15.65609 -9.092648 -17.5 -4.641054 -17.5 0 
C -17.5 4.641054 -15.65609 9.092648 -12.374369 12.374369 
C -9.092648 15.65609 -4.641054 17.5 0 17.5 
z
" style="stroke: #000000; stroke-width: 2"/>
    </defs>
    <g clip-path="url(#p45f5eba0c3)">
     <use xlink:href="#m1a64cdc452" x="315.652891" y="695.030327" style="fill: #ff6f45; stroke: #000000; stroke-width: 2"/>
     <use xlink:href="#m1a64cdc452" x="417.240391" y="694.853819" style="fill: #ff6f45; stroke: #000000; stroke-width: 2"/>
     <use xlink:href="#m1a64cdc452" x="518.827891" y="690.513039" style="fill: #ff6f45; stroke: #000000; stroke-width: 2"/>
     <use xlink:href="#m1a64cdc452" x="620.415391" y="686.008826" style="fill: #ff6f45; stroke: #000000; stroke-width: 2"/>
     <use xlink:href="#m1a64cdc452" x="722.002891" y="691.029487" style="fill: #ff6f45; stroke: #000000; stroke-width: 2"/>
     <use xlink:href="#m1a64cdc452" x="823.590391" y="686.760618" style="fill: #ff6f45; stroke: #000000; stroke-width: 2"/>
     <use xlink:href="#m1a64cdc452" x="925.177891" y="685.498915" style="fill: #ff6f45; stroke: #000000; stroke-width: 2"/>
    </g>
   </g>
   <g id="line2d_25">
    <path d="M 315.652891 412.376256 
L 417.240391 300.320067 
L 518.827891 299.267559 
L 620.415391 266.371768 
L 722.002891 299.123738 
L 823.590391 227.304749 
L 925.177891 274.693776 
" clip-path="url(#p45f5eba0c3)" style="fill: none; stroke: #3274a1; stroke-width: 1.5; stroke-linecap: square"/>
    <defs>
     <path id="m3bd4f2864e" d="M 0 -17.5 
L -17.5 17.5 
L 17.5 17.5 
z
" style="stroke: #000000; stroke-width: 2; stroke-linejoin: miter"/>
    </defs>
    <g clip-path="url(#p45f5eba0c3)">
     <use xlink:href="#m3bd4f2864e" x="315.652891" y="412.376256" style="fill: #3274a1; stroke: #000000; stroke-width: 2; stroke-linejoin: miter"/>
     <use xlink:href="#m3bd4f2864e" x="417.240391" y="300.320067" style="fill: #3274a1; stroke: #000000; stroke-width: 2; stroke-linejoin: miter"/>
     <use xlink:href="#m3bd4f2864e" x="518.827891" y="299.267559" style="fill: #3274a1; stroke: #000000; stroke-width: 2; stroke-linejoin: miter"/>
     <use xlink:href="#m3bd4f2864e" x="620.415391" y="266.371768" style="fill: #3274a1; stroke: #000000; stroke-width: 2; stroke-linejoin: miter"/>
     <use xlink:href="#m3bd4f2864e" x="722.002891" y="299.123738" style="fill: #3274a1; stroke: #000000; stroke-width: 2; stroke-linejoin: miter"/>
     <use xlink:href="#m3bd4f2864e" x="823.590391" y="227.304749" style="fill: #3274a1; stroke: #000000; stroke-width: 2; stroke-linejoin: miter"/>
     <use xlink:href="#m3bd4f2864e" x="925.177891" y="274.693776" style="fill: #3274a1; stroke: #000000; stroke-width: 2; stroke-linejoin: miter"/>
    </g>
   </g>
   <g id="patch_3">
    <path d="M 214.065391 746.575781 
L 214.065391 179.575781 
" style="fill: none; stroke: #000000; stroke-width: 5; stroke-linejoin: miter; stroke-linecap: square"/>
   </g>
   <g id="patch_4">
    <path d="M 1026.765391 746.575781 
L 1026.765391 179.575781 
" style="fill: none; stroke: #000000; stroke-width: 5; stroke-linejoin: miter; stroke-linecap: square"/>
   </g>
   <g id="patch_5">
    <path d="M 214.065391 746.575781 
L 1026.765391 746.575781 
" style="fill: none; stroke: #000000; stroke-width: 5; stroke-linejoin: miter; stroke-linecap: square"/>
   </g>
   <g id="patch_6">
    <path d="M 214.065391 179.575781 
L 1026.765391 179.575781 
" style="fill: none; stroke: #000000; stroke-width: 5; stroke-linejoin: miter; stroke-linecap: square"/>
   </g>
  </g>
  <g id="axes_2">
   <g id="patch_7">
    <path d="M 1159.065391 746.575781 
L 1971.765391 746.575781 
L 1971.765391 179.575781 
L 1159.065391 179.575781 
z
" style="fill: #fffef8; fill-opacity: 0.466667"/>
   </g>
   <g id="matplotlib.axis_3">
    <g id="xtick_8">
     <g id="line2d_26">
      <g>
       <use xlink:href="#m8d9d12681a" x="1260.652891" y="746.575781" style="stroke: #000000; stroke-width: 5"/>
      </g>
     </g>
     <g id="text_13">
      <!-- 1 -->
      <g transform="translate(1244.402891 815.210156) scale(0.65 -0.65)">
       <use xlink:href="#TimesNewRomanPSMT-31"/>
      </g>
     </g>
    </g>
    <g id="xtick_9">
     <g id="line2d_27">
      <g>
       <use xlink:href="#m8d9d12681a" x="1362.240391" y="746.575781" style="stroke: #000000; stroke-width: 5"/>
      </g>
     </g>
     <g id="text_14">
      <!-- 2 -->
      <g transform="translate(1345.990391 815.210156) scale(0.65 -0.65)">
       <use xlink:href="#TimesNewRomanPSMT-32"/>
      </g>
     </g>
    </g>
    <g id="xtick_10">
     <g id="line2d_28">
      <g>
       <use xlink:href="#m8d9d12681a" x="1463.827891" y="746.575781" style="stroke: #000000; stroke-width: 5"/>
      </g>
     </g>
     <g id="text_15">
      <!-- 3 -->
      <g transform="translate(1447.577891 815.210156) scale(0.65 -0.65)">
       <use xlink:href="#TimesNewRomanPSMT-33"/>
      </g>
     </g>
    </g>
    <g id="xtick_11">
     <g id="line2d_29">
      <g>
       <use xlink:href="#m8d9d12681a" x="1565.415391" y="746.575781" style="stroke: #000000; stroke-width: 5"/>
      </g>
     </g>
     <g id="text_16">
      <!-- 4 -->
      <g transform="translate(1549.165391 815.210156) scale(0.65 -0.65)">
       <use xlink:href="#TimesNewRomanPSMT-34"/>
      </g>
     </g>
    </g>
    <g id="xtick_12">
     <g id="line2d_30">
      <g>
       <use xlink:href="#m8d9d12681a" x="1667.002891" y="746.575781" style="stroke: #000000; stroke-width: 5"/>
      </g>
     </g>
     <g id="text_17">
      <!-- 5 -->
      <g transform="translate(1650.752891 815.210156) scale(0.65 -0.65)">
       <use xlink:href="#TimesNewRomanPSMT-35"/>
      </g>
     </g>
    </g>
    <g id="xtick_13">
     <g id="line2d_31">
      <g>
       <use xlink:href="#m8d9d12681a" x="1768.590391" y="746.575781" style="stroke: #000000; stroke-width: 5"/>
      </g>
     </g>
     <g id="text_18">
      <!-- 6 -->
      <g transform="translate(1752.340391 815.210156) scale(0.65 -0.65)">
       <use xlink:href="#TimesNewRomanPSMT-36"/>
      </g>
     </g>
    </g>
    <g id="xtick_14">
     <g id="line2d_32">
      <g>
       <use xlink:href="#m8d9d12681a" x="1870.177891" y="746.575781" style="stroke: #000000; stroke-width: 5"/>
      </g>
     </g>
     <g id="text_19">
      <!-- 7 -->
      <g transform="translate(1853.927891 815.210156) scale(0.65 -0.65)">
       <use xlink:href="#TimesNewRomanPSMT-37"/>
      </g>
     </g>
    </g>
    <g id="text_20">
     <!-- #layer -->
     <g transform="translate(1484.211094 878.248438) scale(0.65 -0.65)">
      <use xlink:href="#TimesNewRomanPSMT-23"/>
      <use xlink:href="#TimesNewRomanPSMT-6c" x="50"/>
      <use xlink:href="#TimesNewRomanPSMT-61" x="77.783203"/>
      <use xlink:href="#TimesNewRomanPSMT-79" x="122.167969"/>
      <use xlink:href="#TimesNewRomanPSMT-65" x="172.167969"/>
      <use xlink:href="#TimesNewRomanPSMT-72" x="216.552734"/>
     </g>
    </g>
   </g>
   <g id="matplotlib.axis_4">
    <g id="ytick_12">
     <g id="line2d_33">
      <path d="M 1159.065391 699.325781 
L 1971.765391 699.325781 
" clip-path="url(#pb435c9e404)" style="fill: none; stroke-dasharray: 3.7,1.6; stroke-dashoffset: 0; stroke: #808080"/>
     </g>
     <g id="line2d_34">
      <g>
       <use xlink:href="#m93fdbdedef" x="1159.065391" y="699.325781" style="stroke: #000000; stroke-width: 5"/>
      </g>
     </g>
     <g id="text_21">
      <!-- 0 -->
      <g transform="translate(1103.065391 721.892969) scale(0.65 -0.65)">
       <use xlink:href="#TimesNewRomanPSMT-30"/>
      </g>
     </g>
    </g>
    <g id="ytick_13">
     <g id="line2d_35">
      <path d="M 1159.065391 463.075781 
L 1971.765391 463.075781 
" clip-path="url(#pb435c9e404)" style="fill: none; stroke-dasharray: 3.7,1.6; stroke-dashoffset: 0; stroke: #808080"/>
     </g>
     <g id="line2d_36">
      <g>
       <use xlink:href="#m93fdbdedef" x="1159.065391" y="463.075781" style="stroke: #000000; stroke-width: 5"/>
      </g>
     </g>
     <g id="text_22">
      <!-- 50 -->
      <g transform="translate(1070.565391 485.642969) scale(0.65 -0.65)">
       <use xlink:href="#TimesNewRomanPSMT-35"/>
       <use xlink:href="#TimesNewRomanPSMT-30" x="50"/>
      </g>
     </g>
    </g>
    <g id="ytick_14">
     <g id="line2d_37">
      <path d="M 1159.065391 226.825781 
L 1971.765391 226.825781 
" clip-path="url(#pb435c9e404)" style="fill: none; stroke-dasharray: 3.7,1.6; stroke-dashoffset: 0; stroke: #808080"/>
     </g>
     <g id="line2d_38">
      <g>
       <use xlink:href="#m93fdbdedef" x="1159.065391" y="226.825781" style="stroke: #000000; stroke-width: 5"/>
      </g>
     </g>
     <g id="text_23">
      <!-- 100 -->
      <g transform="translate(1038.065391 249.392969) scale(0.65 -0.65)">
       <use xlink:href="#TimesNewRomanPSMT-31"/>
       <use xlink:href="#TimesNewRomanPSMT-30" x="50"/>
       <use xlink:href="#TimesNewRomanPSMT-30" x="100"/>
      </g>
     </g>
    </g>
    <g id="ytick_15">
     <g id="line2d_39">
      <g>
       <use xlink:href="#m477a861388" x="1159.065391" y="652.075781" style="stroke: #000000; stroke-width: 3"/>
      </g>
     </g>
    </g>
    <g id="ytick_16">
     <g id="line2d_40">
      <g>
       <use xlink:href="#m477a861388" x="1159.065391" y="604.825781" style="stroke: #000000; stroke-width: 3"/>
      </g>
     </g>
    </g>
    <g id="ytick_17">
     <g id="line2d_41">
      <g>
       <use xlink:href="#m477a861388" x="1159.065391" y="557.575781" style="stroke: #000000; stroke-width: 3"/>
      </g>
     </g>
    </g>
    <g id="ytick_18">
     <g id="line2d_42">
      <g>
       <use xlink:href="#m477a861388" x="1159.065391" y="510.325781" style="stroke: #000000; stroke-width: 3"/>
      </g>
     </g>
    </g>
    <g id="ytick_19">
     <g id="line2d_43">
      <g>
       <use xlink:href="#m477a861388" x="1159.065391" y="415.825781" style="stroke: #000000; stroke-width: 3"/>
      </g>
     </g>
    </g>
    <g id="ytick_20">
     <g id="line2d_44">
      <g>
       <use xlink:href="#m477a861388" x="1159.065391" y="368.575781" style="stroke: #000000; stroke-width: 3"/>
      </g>
     </g>
    </g>
    <g id="ytick_21">
     <g id="line2d_45">
      <g>
       <use xlink:href="#m477a861388" x="1159.065391" y="321.325781" style="stroke: #000000; stroke-width: 3"/>
      </g>
     </g>
    </g>
    <g id="ytick_22">
     <g id="line2d_46">
      <g>
       <use xlink:href="#m477a861388" x="1159.065391" y="274.075781" style="stroke: #000000; stroke-width: 3"/>
      </g>
     </g>
    </g>
    <g id="text_24">
     <!-- in-constraints rate (%) -->
     <g transform="translate(1020.161484 753.65625) rotate(-90) scale(0.65 -0.65)">
      <defs>
       <path id="TimesNewRomanPSMT-69" d="M 928 4444 
Q 1059 4444 1151 4351 
Q 1244 4259 1244 4128 
Q 1244 3997 1151 3903 
Q 1059 3809 928 3809 
Q 797 3809 703 3903 
Q 609 3997 609 4128 
Q 609 4259 701 4351 
Q 794 4444 928 4444 
z
M 1188 2947 
L 1188 647 
Q 1188 378 1227 289 
Q 1266 200 1342 156 
Q 1419 113 1622 113 
L 1622 0 
L 231 0 
L 231 113 
Q 441 113 512 153 
Q 584 194 626 287 
Q 669 381 669 647 
L 669 1750 
Q 669 2216 641 2353 
Q 619 2453 572 2492 
Q 525 2531 444 2531 
Q 356 2531 231 2484 
L 188 2597 
L 1050 2947 
L 1188 2947 
z
" transform="scale(0.015625)"/>
       <path id="TimesNewRomanPSMT-6e" d="M 1034 2341 
Q 1538 2947 1994 2947 
Q 2228 2947 2397 2830 
Q 2566 2713 2666 2444 
Q 2734 2256 2734 1869 
L 2734 647 
Q 2734 375 2778 278 
Q 2813 200 2889 156 
Q 2966 113 3172 113 
L 3172 0 
L 1756 0 
L 1756 113 
L 1816 113 
Q 2016 113 2095 173 
Q 2175 234 2206 353 
Q 2219 400 2219 647 
L 2219 1819 
Q 2219 2209 2117 2386 
Q 2016 2563 1775 2563 
Q 1403 2563 1034 2156 
L 1034 647 
Q 1034 356 1069 288 
Q 1113 197 1189 155 
Q 1266 113 1500 113 
L 1500 0 
L 84 0 
L 84 113 
L 147 113 
Q 366 113 442 223 
Q 519 334 519 647 
L 519 1709 
Q 519 2225 495 2337 
Q 472 2450 423 2490 
Q 375 2531 294 2531 
Q 206 2531 84 2484 
L 38 2597 
L 900 2947 
L 1034 2947 
L 1034 2341 
z
" transform="scale(0.015625)"/>
       <path id="TimesNewRomanPSMT-2d" d="M 259 1672 
L 1875 1672 
L 1875 1200 
L 259 1200 
L 259 1672 
z
" transform="scale(0.015625)"/>
       <path id="TimesNewRomanPSMT-6f" d="M 1600 2947 
Q 2250 2947 2644 2453 
Q 2978 2031 2978 1484 
Q 2978 1100 2793 706 
Q 2609 313 2286 112 
Q 1963 -88 1566 -88 
Q 919 -88 538 428 
Q 216 863 216 1403 
Q 216 1797 411 2186 
Q 606 2575 925 2761 
Q 1244 2947 1600 2947 
z
M 1503 2744 
Q 1338 2744 1170 2645 
Q 1003 2547 900 2300 
Q 797 2053 797 1666 
Q 797 1041 1045 587 
Q 1294 134 1700 134 
Q 2003 134 2200 384 
Q 2397 634 2397 1244 
Q 2397 2006 2069 2444 
Q 1847 2744 1503 2744 
z
" transform="scale(0.015625)"/>
      </defs>
      <use xlink:href="#TimesNewRomanPSMT-69"/>
      <use xlink:href="#TimesNewRomanPSMT-6e" x="27.783203"/>
      <use xlink:href="#TimesNewRomanPSMT-2d" x="77.783203"/>
      <use xlink:href="#TimesNewRomanPSMT-63" x="111.083984"/>
      <use xlink:href="#TimesNewRomanPSMT-6f" x="155.46875"/>
      <use xlink:href="#TimesNewRomanPSMT-6e" x="205.46875"/>
      <use xlink:href="#TimesNewRomanPSMT-73" x="255.46875"/>
      <use xlink:href="#TimesNewRomanPSMT-74" x="294.384766"/>
      <use xlink:href="#TimesNewRomanPSMT-72" x="322.167969"/>
      <use xlink:href="#TimesNewRomanPSMT-61" x="355.46875"/>
      <use xlink:href="#TimesNewRomanPSMT-69" x="399.853516"/>
      <use xlink:href="#TimesNewRomanPSMT-6e" x="427.636719"/>
      <use xlink:href="#TimesNewRomanPSMT-74" x="477.636719"/>
      <use xlink:href="#TimesNewRomanPSMT-73" x="505.419922"/>
      <use xlink:href="#TimesNewRomanPSMT-20" x="544.335938"/>
      <use xlink:href="#TimesNewRomanPSMT-72" x="569.335938"/>
      <use xlink:href="#TimesNewRomanPSMT-61" x="602.636719"/>
      <use xlink:href="#TimesNewRomanPSMT-74" x="647.021484"/>
      <use xlink:href="#TimesNewRomanPSMT-65" x="674.804688"/>
      <use xlink:href="#TimesNewRomanPSMT-20" x="719.189453"/>
      <use xlink:href="#TimesNewRomanPSMT-28" x="744.189453"/>
      <use xlink:href="#TimesNewRomanPSMT-25" x="777.490234"/>
      <use xlink:href="#TimesNewRomanPSMT-29" x="860.791016"/>
     </g>
    </g>
   </g>
   <g id="line2d_47">
    <path d="M 1260.652891 695.484561 
L 1362.240391 693.587922 
L 1463.827891 691.023113 
L 1565.415391 691.011128 
L 1667.002891 687.604368 
L 1768.590391 691.664316 
L 1870.177891 686.705487 
" clip-path="url(#pb435c9e404)" style="fill: none; stroke: #7cbeec; stroke-width: 1.5; stroke-linecap: square"/>
    <g clip-path="url(#pb435c9e404)">
     <use xlink:href="#mab8c0b7a36" x="1260.652891" y="695.484561" style="fill: #7cbeec; stroke: #000000; stroke-width: 2"/>
     <use xlink:href="#mab8c0b7a36" x="1362.240391" y="693.587922" style="fill: #7cbeec; stroke: #000000; stroke-width: 2"/>
     <use xlink:href="#mab8c0b7a36" x="1463.827891" y="691.023113" style="fill: #7cbeec; stroke: #000000; stroke-width: 2"/>
     <use xlink:href="#mab8c0b7a36" x="1565.415391" y="691.011128" style="fill: #7cbeec; stroke: #000000; stroke-width: 2"/>
     <use xlink:href="#mab8c0b7a36" x="1667.002891" y="687.604368" style="fill: #7cbeec; stroke: #000000; stroke-width: 2"/>
     <use xlink:href="#mab8c0b7a36" x="1768.590391" y="691.664316" style="fill: #7cbeec; stroke: #000000; stroke-width: 2"/>
     <use xlink:href="#mab8c0b7a36" x="1870.177891" y="686.705487" style="fill: #7cbeec; stroke: #000000; stroke-width: 2"/>
    </g>
   </g>
   <g id="line2d_48">
    <path d="M 1260.652891 540.556361 
L 1362.240391 459.469269 
L 1463.827891 516.430384 
L 1565.415391 500.286475 
L 1667.002891 518.902308 
L 1768.590391 583.894429 
L 1870.177891 558.905526 
" clip-path="url(#pb435c9e404)" style="fill: none; stroke: #7eb57e; stroke-width: 1.5; stroke-linecap: square"/>
    <g clip-path="url(#pb435c9e404)">
     <use xlink:href="#mc87b56659d" x="1260.652891" y="540.556361" style="fill: #7eb57e; stroke: #000000; stroke-width: 2"/>
     <use xlink:href="#mc87b56659d" x="1362.240391" y="459.469269" style="fill: #7eb57e; stroke: #000000; stroke-width: 2"/>
     <use xlink:href="#mc87b56659d" x="1463.827891" y="516.430384" style="fill: #7eb57e; stroke: #000000; stroke-width: 2"/>
     <use xlink:href="#mc87b56659d" x="1565.415391" y="500.286475" style="fill: #7eb57e; stroke: #000000; stroke-width: 2"/>
     <use xlink:href="#mc87b56659d" x="1667.002891" y="518.902308" style="fill: #7eb57e; stroke: #000000; stroke-width: 2"/>
     <use xlink:href="#mc87b56659d" x="1768.590391" y="583.894429" style="fill: #7eb57e; stroke: #000000; stroke-width: 2"/>
     <use xlink:href="#mc87b56659d" x="1870.177891" y="558.905526" style="fill: #7eb57e; stroke: #000000; stroke-width: 2"/>
    </g>
   </g>
   <g id="line2d_49">
    <path d="M 1260.652891 655.196697 
L 1362.240391 660.607963 
L 1463.827891 686.27702 
L 1565.415391 687.172905 
L 1667.002891 691.619371 
L 1768.590391 690.738468 
L 1870.177891 687.649312 
" clip-path="url(#pb435c9e404)" style="fill: none; stroke: #ff6f45; stroke-width: 1.5; stroke-linecap: square"/>
    <g clip-path="url(#pb435c9e404)">
     <use xlink:href="#m1a64cdc452" x="1260.652891" y="655.196697" style="fill: #ff6f45; stroke: #000000; stroke-width: 2"/>
     <use xlink:href="#m1a64cdc452" x="1362.240391" y="660.607963" style="fill: #ff6f45; stroke: #000000; stroke-width: 2"/>
     <use xlink:href="#m1a64cdc452" x="1463.827891" y="686.27702" style="fill: #ff6f45; stroke: #000000; stroke-width: 2"/>
     <use xlink:href="#m1a64cdc452" x="1565.415391" y="687.172905" style="fill: #ff6f45; stroke: #000000; stroke-width: 2"/>
     <use xlink:href="#m1a64cdc452" x="1667.002891" y="691.619371" style="fill: #ff6f45; stroke: #000000; stroke-width: 2"/>
     <use xlink:href="#m1a64cdc452" x="1768.590391" y="690.738468" style="fill: #ff6f45; stroke: #000000; stroke-width: 2"/>
     <use xlink:href="#m1a64cdc452" x="1870.177891" y="687.649312" style="fill: #ff6f45; stroke: #000000; stroke-width: 2"/>
    </g>
   </g>
   <g id="line2d_50">
    <path d="M 1260.652891 226.825781 
L 1362.240391 226.825781 
L 1463.827891 226.825781 
L 1565.415391 226.825781 
L 1667.002891 226.825781 
L 1768.590391 226.825781 
L 1870.177891 226.825781 
" clip-path="url(#pb435c9e404)" style="fill: none; stroke: #3274a1; stroke-width: 1.5; stroke-linecap: square"/>
    <g clip-path="url(#pb435c9e404)">
     <use xlink:href="#m3bd4f2864e" x="1260.652891" y="226.825781" style="fill: #3274a1; stroke: #000000; stroke-width: 2; stroke-linejoin: miter"/>
     <use xlink:href="#m3bd4f2864e" x="1362.240391" y="226.825781" style="fill: #3274a1; stroke: #000000; stroke-width: 2; stroke-linejoin: miter"/>
     <use xlink:href="#m3bd4f2864e" x="1463.827891" y="226.825781" style="fill: #3274a1; stroke: #000000; stroke-width: 2; stroke-linejoin: miter"/>
     <use xlink:href="#m3bd4f2864e" x="1565.415391" y="226.825781" style="fill: #3274a1; stroke: #000000; stroke-width: 2; stroke-linejoin: miter"/>
     <use xlink:href="#m3bd4f2864e" x="1667.002891" y="226.825781" style="fill: #3274a1; stroke: #000000; stroke-width: 2; stroke-linejoin: miter"/>
     <use xlink:href="#m3bd4f2864e" x="1768.590391" y="226.825781" style="fill: #3274a1; stroke: #000000; stroke-width: 2; stroke-linejoin: miter"/>
     <use xlink:href="#m3bd4f2864e" x="1870.177891" y="226.825781" style="fill: #3274a1; stroke: #000000; stroke-width: 2; stroke-linejoin: miter"/>
    </g>
   </g>
   <g id="patch_8">
    <path d="M 1159.065391 746.575781 
L 1159.065391 179.575781 
" style="fill: none; stroke: #000000; stroke-width: 5; stroke-linejoin: miter; stroke-linecap: square"/>
   </g>
   <g id="patch_9">
    <path d="M 1971.765391 746.575781 
L 1971.765391 179.575781 
" style="fill: none; stroke: #000000; stroke-width: 5; stroke-linejoin: miter; stroke-linecap: square"/>
   </g>
   <g id="patch_10">
    <path d="M 1159.065391 746.575781 
L 1971.765391 746.575781 
" style="fill: none; stroke: #000000; stroke-width: 5; stroke-linejoin: miter; stroke-linecap: square"/>
   </g>
   <g id="patch_11">
    <path d="M 1159.065391 179.575781 
L 1971.765391 179.575781 
" style="fill: none; stroke: #000000; stroke-width: 5; stroke-linejoin: miter; stroke-linecap: square"/>
   </g>
   <g id="legend_1">
    <g id="line2d_51">
     <path d="M 33.2 55.95 
L 98.2 55.95 
L 163.2 55.95 
" style="fill: none; stroke: #7cbeec; stroke-width: 1.5; stroke-linecap: square"/>
     <g>
      <use xlink:href="#mab8c0b7a36" x="98.2" y="55.95" style="fill: #7cbeec; stroke: #000000; stroke-width: 2"/>
     </g>
    </g>
    <g id="text_25">
     <!-- penalty -->
     <g transform="translate(215.2 78.7) scale(0.65 -0.65)">
      <defs>
       <path id="TimesNewRomanPSMT-70" d="M -6 2578 
L 875 2934 
L 994 2934 
L 994 2266 
Q 1216 2644 1439 2795 
Q 1663 2947 1909 2947 
Q 2341 2947 2628 2609 
Q 2981 2197 2981 1534 
Q 2981 794 2556 309 
Q 2206 -88 1675 -88 
Q 1444 -88 1275 -22 
Q 1150 25 994 166 
L 994 -706 
Q 994 -1000 1030 -1079 
Q 1066 -1159 1155 -1206 
Q 1244 -1253 1478 -1253 
L 1478 -1369 
L -22 -1369 
L -22 -1253 
L 56 -1253 
Q 228 -1256 350 -1188 
Q 409 -1153 442 -1076 
Q 475 -1000 475 -688 
L 475 2019 
Q 475 2297 450 2372 
Q 425 2447 370 2484 
Q 316 2522 222 2522 
Q 147 2522 31 2478 
L -6 2578 
z
M 994 2081 
L 994 1013 
Q 994 666 1022 556 
Q 1066 375 1236 237 
Q 1406 100 1666 100 
Q 1978 100 2172 344 
Q 2425 663 2425 1241 
Q 2425 1897 2138 2250 
Q 1938 2494 1663 2494 
Q 1513 2494 1366 2419 
Q 1253 2363 994 2081 
z
" transform="scale(0.015625)"/>
      </defs>
      <use xlink:href="#TimesNewRomanPSMT-70"/>
      <use xlink:href="#TimesNewRomanPSMT-65" x="50"/>
      <use xlink:href="#TimesNewRomanPSMT-6e" x="94.384766"/>
      <use xlink:href="#TimesNewRomanPSMT-61" x="144.384766"/>
      <use xlink:href="#TimesNewRomanPSMT-6c" x="188.769531"/>
      <use xlink:href="#TimesNewRomanPSMT-74" x="216.552734"/>
      <use xlink:href="#TimesNewRomanPSMT-79" x="244.335938"/>
     </g>
    </g>
    <g id="line2d_52">
     <path d="M 536.523438 55.95 
L 601.523438 55.95 
L 666.523438 55.95 
" style="fill: none; stroke: #7eb57e; stroke-width: 1.5; stroke-linecap: square"/>
     <g>
      <use xlink:href="#mc87b56659d" x="601.523438" y="55.95" style="fill: #7eb57e; stroke: #000000; stroke-width: 2"/>
     </g>
    </g>
    <g id="text_26">
     <!-- cyclic -->
     <g transform="translate(718.523438 78.7) scale(0.65 -0.65)">
      <use xlink:href="#TimesNewRomanPSMT-63"/>
      <use xlink:href="#TimesNewRomanPSMT-79" x="44.384766"/>
      <use xlink:href="#TimesNewRomanPSMT-63" x="94.384766"/>
      <use xlink:href="#TimesNewRomanPSMT-6c" x="138.769531"/>
      <use xlink:href="#TimesNewRomanPSMT-69" x="166.552734"/>
      <use xlink:href="#TimesNewRomanPSMT-63" x="194.335938"/>
     </g>
    </g>
    <g id="line2d_53">
     <path d="M 1003.700781 55.95 
L 1068.700781 55.95 
L 1133.700781 55.95 
" style="fill: none; stroke: #ff6f45; stroke-width: 1.5; stroke-linecap: square"/>
     <g>
      <use xlink:href="#m1a64cdc452" x="1068.700781" y="55.95" style="fill: #ff6f45; stroke: #000000; stroke-width: 2"/>
     </g>
    </g>
    <g id="text_27">
     <!-- HEA -->
     <g transform="translate(1185.700781 78.7) scale(0.65 -0.65)">
      <defs>
       <path id="TimesNewRomanPSMT-48" d="M 1316 2272 
L 3284 2272 
L 3284 3484 
Q 3284 3809 3244 3913 
Q 3213 3991 3113 4047 
Q 2978 4122 2828 4122 
L 2678 4122 
L 2678 4238 
L 4491 4238 
L 4491 4122 
L 4341 4122 
Q 4191 4122 4056 4050 
Q 3956 4000 3920 3898 
Q 3884 3797 3884 3484 
L 3884 750 
Q 3884 428 3925 325 
Q 3956 247 4053 191 
Q 4191 116 4341 116 
L 4491 116 
L 4491 0 
L 2678 0 
L 2678 116 
L 2828 116 
Q 3088 116 3206 269 
Q 3284 369 3284 750 
L 3284 2041 
L 1316 2041 
L 1316 750 
Q 1316 428 1356 325 
Q 1388 247 1488 191 
Q 1622 116 1772 116 
L 1925 116 
L 1925 0 
L 109 0 
L 109 116 
L 259 116 
Q 522 116 641 269 
Q 716 369 716 750 
L 716 3484 
Q 716 3809 675 3913 
Q 644 3991 547 4047 
Q 409 4122 259 4122 
L 109 4122 
L 109 4238 
L 1925 4238 
L 1925 4122 
L 1772 4122 
Q 1622 4122 1488 4050 
Q 1391 4000 1353 3898 
Q 1316 3797 1316 3484 
L 1316 2272 
z
" transform="scale(0.015625)"/>
       <path id="TimesNewRomanPSMT-45" d="M 1338 4006 
L 1338 2331 
L 2269 2331 
Q 2631 2331 2753 2441 
Q 2916 2584 2934 2947 
L 3050 2947 
L 3050 1472 
L 2934 1472 
Q 2891 1781 2847 1869 
Q 2791 1978 2662 2040 
Q 2534 2103 2269 2103 
L 1338 2103 
L 1338 706 
Q 1338 425 1363 364 
Q 1388 303 1450 267 
Q 1513 231 1688 231 
L 2406 231 
Q 2766 231 2928 281 
Q 3091 331 3241 478 
Q 3434 672 3638 1063 
L 3763 1063 
L 3397 0 
L 131 0 
L 131 116 
L 281 116 
Q 431 116 566 188 
Q 666 238 702 338 
Q 738 438 738 747 
L 738 3500 
Q 738 3903 656 3997 
Q 544 4122 281 4122 
L 131 4122 
L 131 4238 
L 3397 4238 
L 3444 3309 
L 3322 3309 
Q 3256 3644 3176 3769 
Q 3097 3894 2941 3959 
Q 2816 4006 2500 4006 
L 1338 4006 
z
" transform="scale(0.015625)"/>
       <path id="TimesNewRomanPSMT-41" d="M 2928 1419 
L 1288 1419 
L 1000 750 
Q 894 503 894 381 
Q 894 284 986 211 
Q 1078 138 1384 116 
L 1384 0 
L 50 0 
L 50 116 
Q 316 163 394 238 
Q 553 388 747 847 
L 2238 4334 
L 2347 4334 
L 3822 809 
Q 4000 384 4145 257 
Q 4291 131 4550 116 
L 4550 0 
L 2878 0 
L 2878 116 
Q 3131 128 3220 200 
Q 3309 272 3309 375 
Q 3309 513 3184 809 
L 2928 1419 
z
M 2841 1650 
L 2122 3363 
L 1384 1650 
L 2841 1650 
z
" transform="scale(0.015625)"/>
      </defs>
      <use xlink:href="#TimesNewRomanPSMT-48"/>
      <use xlink:href="#TimesNewRomanPSMT-45" x="72.216797"/>
      <use xlink:href="#TimesNewRomanPSMT-41" x="133.300781"/>
     </g>
    </g>
    <g id="line2d_54">
     <path d="M 1449.285938 55.95 
L 1514.285938 55.95 
L 1579.285938 55.95 
" style="fill: none; stroke: #3274a1; stroke-width: 1.5; stroke-linecap: square"/>
     <g>
      <use xlink:href="#m3bd4f2864e" x="1514.285938" y="55.95" style="fill: #3274a1; stroke: #000000; stroke-width: 2; stroke-linejoin: miter"/>
     </g>
    </g>
    <g id="text_28">
     <!-- QAcOA-CH -->
     <g transform="translate(1631.285938 78.7) scale(0.65 -0.65)">
      <defs>
       <path id="TimesNewRomanPSMT-51" d="M 2819 -47 
Q 3138 -597 3508 -856 
Q 3878 -1116 4350 -1153 
L 4350 -1253 
Q 3919 -1238 3428 -1080 
Q 2938 -922 2498 -642 
Q 2059 -363 1741 -47 
Q 1291 134 1028 338 
Q 647 641 436 1083 
Q 225 1525 225 2128 
Q 225 3078 840 3706 
Q 1456 4334 2331 4334 
Q 3163 4334 3770 3704 
Q 4378 3075 4378 2116 
Q 4378 1338 3945 750 
Q 3513 163 2819 -47 
z
M 2294 4094 
Q 1725 4094 1378 3688 
Q 941 3178 941 2128 
Q 941 1100 1384 544 
Q 1728 116 2294 116 
Q 2881 116 3241 544 
Q 3663 1050 3663 2038 
Q 3663 2797 3431 3316 
Q 3253 3716 2958 3905 
Q 2663 4094 2294 4094 
z
" transform="scale(0.015625)"/>
       <path id="TimesNewRomanPSMT-4f" d="M 2341 4334 
Q 3166 4334 3770 3707 
Q 4375 3081 4375 2144 
Q 4375 1178 3765 540 
Q 3156 -97 2291 -97 
Q 1416 -97 820 525 
Q 225 1147 225 2134 
Q 225 3144 913 3781 
Q 1509 4334 2341 4334 
z
M 2281 4106 
Q 1713 4106 1369 3684 
Q 941 3159 941 2147 
Q 941 1109 1384 550 
Q 1725 125 2284 125 
Q 2881 125 3270 590 
Q 3659 1056 3659 2059 
Q 3659 3147 3231 3681 
Q 2888 4106 2281 4106 
z
" transform="scale(0.015625)"/>
       <path id="TimesNewRomanPSMT-43" d="M 3853 4334 
L 3950 2894 
L 3853 2894 
Q 3659 3541 3300 3825 
Q 2941 4109 2438 4109 
Q 2016 4109 1675 3895 
Q 1334 3681 1139 3212 
Q 944 2744 944 2047 
Q 944 1472 1128 1050 
Q 1313 628 1683 403 
Q 2053 178 2528 178 
Q 2941 178 3256 354 
Q 3572 531 3950 1056 
L 4047 994 
Q 3728 428 3303 165 
Q 2878 -97 2294 -97 
Q 1241 -97 663 684 
Q 231 1266 231 2053 
Q 231 2688 515 3219 
Q 800 3750 1298 4042 
Q 1797 4334 2388 4334 
Q 2847 4334 3294 4109 
Q 3425 4041 3481 4041 
Q 3566 4041 3628 4100 
Q 3709 4184 3744 4334 
L 3853 4334 
z
" transform="scale(0.015625)"/>
      </defs>
      <use xlink:href="#TimesNewRomanPSMT-51"/>
      <use xlink:href="#TimesNewRomanPSMT-41" x="72.216797"/>
      <use xlink:href="#TimesNewRomanPSMT-63" x="144.433594"/>
      <use xlink:href="#TimesNewRomanPSMT-4f" x="188.818359"/>
      <use xlink:href="#TimesNewRomanPSMT-41" x="261.035156"/>
      <use xlink:href="#TimesNewRomanPSMT-2d" x="333.251953"/>
      <use xlink:href="#TimesNewRomanPSMT-43" x="366.552734"/>
      <use xlink:href="#TimesNewRomanPSMT-48" x="433.251953"/>
     </g>
    </g>
   </g>
  </g>
 </g>
 <defs>
  <clipPath id="p45f5eba0c3">
   <rect x="214.065391" y="179.575781" width="812.7" height="567"/>
  </clipPath>
  <clipPath id="pb435c9e404">
   <rect x="1159.065391" y="179.575781" width="812.7" height="567"/>
  </clipPath>
 </defs>
</svg>
