<?xml version="1.0" encoding="utf-8" standalone="no"?>
<!DOCTYPE svg PUBLIC "-//W3C//DTD SVG 1.1//EN"
  "http://www.w3.org/Graphics/SVG/1.1/DTD/svg11.dtd">
<svg xmlns:xlink="http://www.w3.org/1999/xlink" width="1052.102244pt" height="661.832813pt" viewBox="0 0 1052.102244 661.832813" xmlns="http://www.w3.org/2000/svg" version="1.1">
 <metadata>
  <rdf:RDF xmlns:dc="http://purl.org/dc/elements/1.1/" xmlns:cc="http://creativecommons.org/ns#" xmlns:rdf="http://www.w3.org/1999/02/22-rdf-syntax-ns#">
   <cc:Work>
    <dc:type rdf:resource="http://purl.org/dc/dcmitype/StillImage"/>
    <dc:date>2024-07-25T16:28:20.676995</dc:date>
    <dc:format>image/svg+xml</dc:format>
    <dc:creator>
     <cc:Agent>
      <dc:title>Matplotlib v3.7.5, https://matplotlib.org/</dc:title>
     </cc:Agent>
    </dc:creator>
   </cc:Work>
  </rdf:RDF>
 </metadata>
 <defs>
  <style type="text/css">*{stroke-linejoin: round; stroke-linecap: butt}</style>
 </defs>
 <g id="figure_1">
  <g id="patch_1">
   <path d="M 0 661.832813 
L 1052.102244 661.832813 
L 1052.102244 0 
L 0 0 
z
" style="fill: #ffffff"/>
  </g>
  <g id="axes_1">
   <g id="patch_2">
    <path d="M 191.079442 508.934375 
L 890.379442 508.934375 
L 890.379442 55.334375 
L 191.079442 55.334375 
z
" style="fill: #fffef8; fill-opacity: 0.466667"/>
   </g>
   <g id="patch_3">
    <path d="M 222.865806 508.93438 
L 280.659194 508.93438 
L 280.659194 508.928737 
L 222.865806 508.928737 
z
" clip-path="url(#p7f8c957ca0)" style="fill: #ff6f45"/>
   </g>
   <g id="patch_4">
    <path d="M 295.107541 508.93438 
L 352.90093 508.93438 
L 352.90093 508.928846 
L 295.107541 508.928846 
z
" clip-path="url(#p7f8c957ca0)" style="fill: #ff6f45"/>
   </g>
   <g id="patch_5">
    <path d="M 367.349277 508.93438 
L 425.142665 508.93438 
L 425.142665 508.928855 
L 367.349277 508.928855 
z
" clip-path="url(#p7f8c957ca0)" style="fill: #ff6f45"/>
   </g>
   <g id="patch_6">
    <path d="M 439.591012 508.93438 
L 497.384401 508.93438 
L 497.384401 508.92704 
L 439.591012 508.92704 
z
" clip-path="url(#p7f8c957ca0)" style="fill: #ff6f45"/>
   </g>
   <g id="patch_7">
    <path d="M 511.832748 508.93438 
L 569.626136 508.93438 
L 569.626136 508.92724 
L 511.832748 508.92724 
z
" clip-path="url(#p7f8c957ca0)" style="fill: #ff6f45"/>
   </g>
   <g id="patch_8">
    <path d="M 584.074483 508.93438 
L 641.867872 508.93438 
L 641.867872 508.927535 
L 584.074483 508.927535 
z
" clip-path="url(#p7f8c957ca0)" style="fill: #ff6f45"/>
   </g>
   <g id="patch_9">
    <path d="M 656.316219 508.93438 
L 714.109607 508.93438 
L 714.109607 508.929295 
L 656.316219 508.929295 
z
" clip-path="url(#p7f8c957ca0)" style="fill: #ff6f45"/>
   </g>
   <g id="patch_10">
    <path d="M 728.557955 508.93438 
L 786.351343 508.93438 
L 786.351343 508.929027 
L 728.557955 508.929027 
z
" clip-path="url(#p7f8c957ca0)" style="fill: #ff6f45"/>
   </g>
   <g id="patch_11">
    <path d="M 800.79969 508.93438 
L 858.593079 508.93438 
L 858.593079 508.92919 
L 800.79969 508.92919 
z
" clip-path="url(#p7f8c957ca0)" style="fill: #ff6f45"/>
   </g>
   <g id="patch_12">
    <path d="M 222.865806 508.93438 
L 280.659194 508.93438 
L 280.659194 508.932438 
L 222.865806 508.932438 
z
" clip-path="url(#p7f8c957ca0)" style="fill: #3274a1"/>
   </g>
   <g id="patch_13">
    <path d="M 295.107541 508.93438 
L 352.90093 508.93438 
L 352.90093 508.932461 
L 295.107541 508.932461 
z
" clip-path="url(#p7f8c957ca0)" style="fill: #3274a1"/>
   </g>
   <g id="patch_14">
    <path d="M 367.349277 508.93438 
L 425.142665 508.93438 
L 425.142665 508.932415 
L 367.349277 508.932415 
z
" clip-path="url(#p7f8c957ca0)" style="fill: #3274a1"/>
   </g>
   <g id="patch_15">
    <path d="M 439.591012 508.93438 
L 497.384401 508.93438 
L 497.384401 508.931526 
L 439.591012 508.931526 
z
" clip-path="url(#p7f8c957ca0)" style="fill: #3274a1"/>
   </g>
   <g id="patch_16">
    <path d="M 511.832748 508.93438 
L 569.626136 508.93438 
L 569.626136 508.931504 
L 511.832748 508.931504 
z
" clip-path="url(#p7f8c957ca0)" style="fill: #3274a1"/>
   </g>
   <g id="patch_17">
    <path d="M 584.074483 508.93438 
L 641.867872 508.93438 
L 641.867872 508.931508 
L 584.074483 508.931508 
z
" clip-path="url(#p7f8c957ca0)" style="fill: #3274a1"/>
   </g>
   <g id="patch_18">
    <path d="M 656.316219 508.93438 
L 714.109607 508.93438 
L 714.109607 508.930401 
L 656.316219 508.930401 
z
" clip-path="url(#p7f8c957ca0)" style="fill: #3274a1"/>
   </g>
   <g id="patch_19">
    <path d="M 728.557955 508.93438 
L 786.351343 508.93438 
L 786.351343 508.930415 
L 728.557955 508.930415 
z
" clip-path="url(#p7f8c957ca0)" style="fill: #3274a1"/>
   </g>
   <g id="patch_20">
    <path d="M 800.79969 508.93438 
L 858.593079 508.93438 
L 858.593079 508.930406 
L 800.79969 508.930406 
z
" clip-path="url(#p7f8c957ca0)" style="fill: #3274a1"/>
   </g>
   <g id="matplotlib.axis_1">
    <g id="xtick_1">
     <g id="line2d_1">
      <defs>
       <path id="m195c7f2757" d="M 0 0 
L 0 20 
" style="stroke: #000000; stroke-width: 5"/>
      </defs>
      <g>
       <use xlink:href="#m195c7f2757" x="251.7625" y="508.934375" style="stroke: #000000; stroke-width: 5"/>
      </g>
     </g>
     <g id="text_1">
      <!-- (0, 'FakeBrisbane') -->
      <g transform="translate(7.2 577.56875) scale(0.65 -0.65)">
       <defs>
        <path id="TimesNewRomanPSMT-28" d="M 1988 -1253 
L 1988 -1369 
Q 1516 -1131 1200 -813 
Q 750 -359 506 256 
Q 263 872 263 1534 
Q 263 2503 741 3301 
Q 1219 4100 1988 4444 
L 1988 4313 
Q 1603 4100 1356 3731 
Q 1109 3363 987 2797 
Q 866 2231 866 1616 
Q 866 947 969 400 
Q 1050 -31 1165 -292 
Q 1281 -553 1476 -793 
Q 1672 -1034 1988 -1253 
z
" transform="scale(0.015625)"/>
        <path id="TimesNewRomanPSMT-30" d="M 231 2094 
Q 231 2819 450 3342 
Q 669 3866 1031 4122 
Q 1313 4325 1613 4325 
Q 2100 4325 2488 3828 
Q 2972 3213 2972 2159 
Q 2972 1422 2759 906 
Q 2547 391 2217 158 
Q 1888 -75 1581 -75 
Q 975 -75 572 641 
Q 231 1244 231 2094 
z
M 844 2016 
Q 844 1141 1059 588 
Q 1238 122 1591 122 
Q 1759 122 1940 273 
Q 2122 425 2216 781 
Q 2359 1319 2359 2297 
Q 2359 3022 2209 3506 
Q 2097 3866 1919 4016 
Q 1791 4119 1609 4119 
Q 1397 4119 1231 3928 
Q 1006 3669 925 3112 
Q 844 2556 844 2016 
z
" transform="scale(0.015625)"/>
        <path id="TimesNewRomanPSMT-2c" d="M 344 -1066 
L 344 -928 
Q 666 -822 842 -598 
Q 1019 -375 1019 -125 
Q 1019 -66 991 -25 
Q 969 3 947 3 
Q 913 3 797 -59 
Q 741 -88 678 -88 
Q 525 -88 434 3 
Q 344 94 344 253 
Q 344 406 461 515 
Q 578 625 747 625 
Q 953 625 1114 445 
Q 1275 266 1275 -31 
Q 1275 -353 1051 -629 
Q 828 -906 344 -1066 
z
" transform="scale(0.015625)"/>
        <path id="TimesNewRomanPSMT-20" transform="scale(0.015625)"/>
        <path id="TimesNewRomanPSMT-27" d="M 494 2509 
L 325 3434 
Q 253 3819 253 3953 
Q 253 4153 334 4243 
Q 416 4334 556 4334 
Q 697 4334 789 4242 
Q 881 4150 881 4000 
Q 881 3884 800 3431 
L 631 2509 
L 494 2509 
z
" transform="scale(0.015625)"/>
        <path id="TimesNewRomanPSMT-46" d="M 1309 4006 
L 1309 2341 
L 2081 2341 
Q 2347 2341 2470 2458 
Q 2594 2575 2634 2922 
L 2750 2922 
L 2750 1488 
L 2634 1488 
Q 2631 1734 2570 1850 
Q 2509 1966 2401 2023 
Q 2294 2081 2081 2081 
L 1309 2081 
L 1309 750 
Q 1309 428 1350 325 
Q 1381 247 1481 191 
Q 1619 116 1769 116 
L 1922 116 
L 1922 0 
L 103 0 
L 103 116 
L 253 116 
Q 516 116 634 269 
Q 709 369 709 750 
L 709 3488 
Q 709 3809 669 3913 
Q 638 3991 541 4047 
Q 406 4122 253 4122 
L 103 4122 
L 103 4238 
L 3256 4238 
L 3297 3306 
L 3188 3306 
Q 3106 3603 2998 3742 
Q 2891 3881 2733 3943 
Q 2575 4006 2244 4006 
L 1309 4006 
z
" transform="scale(0.015625)"/>
        <path id="TimesNewRomanPSMT-61" d="M 1822 413 
Q 1381 72 1269 19 
Q 1100 -59 909 -59 
Q 613 -59 420 144 
Q 228 347 228 678 
Q 228 888 322 1041 
Q 450 1253 767 1440 
Q 1084 1628 1822 1897 
L 1822 2009 
Q 1822 2438 1686 2597 
Q 1550 2756 1291 2756 
Q 1094 2756 978 2650 
Q 859 2544 859 2406 
L 866 2225 
Q 866 2081 792 2003 
Q 719 1925 600 1925 
Q 484 1925 411 2006 
Q 338 2088 338 2228 
Q 338 2497 613 2722 
Q 888 2947 1384 2947 
Q 1766 2947 2009 2819 
Q 2194 2722 2281 2516 
Q 2338 2381 2338 1966 
L 2338 994 
Q 2338 584 2353 492 
Q 2369 400 2405 369 
Q 2441 338 2488 338 
Q 2538 338 2575 359 
Q 2641 400 2828 588 
L 2828 413 
Q 2478 -56 2159 -56 
Q 2006 -56 1915 50 
Q 1825 156 1822 413 
z
M 1822 616 
L 1822 1706 
Q 1350 1519 1213 1441 
Q 966 1303 859 1153 
Q 753 1003 753 825 
Q 753 600 887 451 
Q 1022 303 1197 303 
Q 1434 303 1822 616 
z
" transform="scale(0.015625)"/>
        <path id="TimesNewRomanPSMT-6b" d="M 1047 4444 
L 1047 1594 
L 1775 2259 
Q 2006 2472 2044 2528 
Q 2069 2566 2069 2603 
Q 2069 2666 2017 2711 
Q 1966 2756 1847 2763 
L 1847 2863 
L 3091 2863 
L 3091 2763 
Q 2834 2756 2664 2684 
Q 2494 2613 2291 2428 
L 1556 1750 
L 2291 822 
Q 2597 438 2703 334 
Q 2853 188 2966 144 
Q 3044 113 3238 113 
L 3238 0 
L 1847 0 
L 1847 113 
Q 1966 116 2008 148 
Q 2050 181 2050 241 
Q 2050 313 1925 472 
L 1047 1594 
L 1047 644 
Q 1047 366 1086 278 
Q 1125 191 1197 153 
Q 1269 116 1509 113 
L 1509 0 
L 53 0 
L 53 113 
Q 272 113 381 166 
Q 447 200 481 272 
Q 528 375 528 628 
L 528 3234 
Q 528 3731 506 3842 
Q 484 3953 434 3995 
Q 384 4038 303 4038 
Q 238 4038 106 3984 
L 53 4094 
L 903 4444 
L 1047 4444 
z
" transform="scale(0.015625)"/>
        <path id="TimesNewRomanPSMT-65" d="M 681 1784 
Q 678 1147 991 784 
Q 1303 422 1725 422 
Q 2006 422 2214 576 
Q 2422 731 2563 1106 
L 2659 1044 
Q 2594 616 2278 264 
Q 1963 -88 1488 -88 
Q 972 -88 605 314 
Q 238 716 238 1394 
Q 238 2128 614 2539 
Q 991 2950 1559 2950 
Q 2041 2950 2350 2633 
Q 2659 2316 2659 1784 
L 681 1784 
z
M 681 1966 
L 2006 1966 
Q 1991 2241 1941 2353 
Q 1863 2528 1708 2628 
Q 1553 2728 1384 2728 
Q 1125 2728 920 2526 
Q 716 2325 681 1966 
z
" transform="scale(0.015625)"/>
        <path id="TimesNewRomanPSMT-42" d="M 2956 2163 
Q 3397 2069 3616 1863 
Q 3919 1575 3919 1159 
Q 3919 844 3719 555 
Q 3519 266 3170 133 
Q 2822 0 2106 0 
L 106 0 
L 106 116 
L 266 116 
Q 531 116 647 284 
Q 719 394 719 750 
L 719 3488 
Q 719 3881 628 3984 
Q 506 4122 266 4122 
L 106 4122 
L 106 4238 
L 1938 4238 
Q 2450 4238 2759 4163 
Q 3228 4050 3475 3764 
Q 3722 3478 3722 3106 
Q 3722 2788 3528 2536 
Q 3334 2284 2956 2163 
z
M 1319 2331 
Q 1434 2309 1582 2298 
Q 1731 2288 1909 2288 
Q 2366 2288 2595 2386 
Q 2825 2484 2947 2687 
Q 3069 2891 3069 3131 
Q 3069 3503 2766 3765 
Q 2463 4028 1881 4028 
Q 1569 4028 1319 3959 
L 1319 2331 
z
M 1319 306 
Q 1681 222 2034 222 
Q 2600 222 2897 476 
Q 3194 731 3194 1106 
Q 3194 1353 3059 1581 
Q 2925 1809 2622 1940 
Q 2319 2072 1872 2072 
Q 1678 2072 1540 2065 
Q 1403 2059 1319 2044 
L 1319 306 
z
" transform="scale(0.015625)"/>
        <path id="TimesNewRomanPSMT-72" d="M 1038 2947 
L 1038 2303 
Q 1397 2947 1775 2947 
Q 1947 2947 2059 2842 
Q 2172 2738 2172 2600 
Q 2172 2478 2090 2393 
Q 2009 2309 1897 2309 
Q 1788 2309 1652 2417 
Q 1516 2525 1450 2525 
Q 1394 2525 1328 2463 
Q 1188 2334 1038 2041 
L 1038 669 
Q 1038 431 1097 309 
Q 1138 225 1241 169 
Q 1344 113 1538 113 
L 1538 0 
L 72 0 
L 72 113 
Q 291 113 397 181 
Q 475 231 506 341 
Q 522 394 522 644 
L 522 1753 
Q 522 2253 501 2348 
Q 481 2444 426 2487 
Q 372 2531 291 2531 
Q 194 2531 72 2484 
L 41 2597 
L 906 2947 
L 1038 2947 
z
" transform="scale(0.015625)"/>
        <path id="TimesNewRomanPSMT-69" d="M 928 4444 
Q 1059 4444 1151 4351 
Q 1244 4259 1244 4128 
Q 1244 3997 1151 3903 
Q 1059 3809 928 3809 
Q 797 3809 703 3903 
Q 609 3997 609 4128 
Q 609 4259 701 4351 
Q 794 4444 928 4444 
z
M 1188 2947 
L 1188 647 
Q 1188 378 1227 289 
Q 1266 200 1342 156 
Q 1419 113 1622 113 
L 1622 0 
L 231 0 
L 231 113 
Q 441 113 512 153 
Q 584 194 626 287 
Q 669 381 669 647 
L 669 1750 
Q 669 2216 641 2353 
Q 619 2453 572 2492 
Q 525 2531 444 2531 
Q 356 2531 231 2484 
L 188 2597 
L 1050 2947 
L 1188 2947 
z
" transform="scale(0.015625)"/>
        <path id="TimesNewRomanPSMT-73" d="M 2050 2947 
L 2050 1972 
L 1947 1972 
Q 1828 2431 1642 2597 
Q 1456 2763 1169 2763 
Q 950 2763 815 2647 
Q 681 2531 681 2391 
Q 681 2216 781 2091 
Q 878 1963 1175 1819 
L 1631 1597 
Q 2266 1288 2266 781 
Q 2266 391 1970 151 
Q 1675 -88 1309 -88 
Q 1047 -88 709 6 
Q 606 38 541 38 
Q 469 38 428 -44 
L 325 -44 
L 325 978 
L 428 978 
Q 516 541 762 319 
Q 1009 97 1316 97 
Q 1531 97 1667 223 
Q 1803 350 1803 528 
Q 1803 744 1651 891 
Q 1500 1038 1047 1263 
Q 594 1488 453 1669 
Q 313 1847 313 2119 
Q 313 2472 555 2709 
Q 797 2947 1181 2947 
Q 1350 2947 1591 2875 
Q 1750 2828 1803 2828 
Q 1853 2828 1881 2850 
Q 1909 2872 1947 2947 
L 2050 2947 
z
" transform="scale(0.015625)"/>
        <path id="TimesNewRomanPSMT-62" d="M 984 2369 
Q 1400 2947 1881 2947 
Q 2322 2947 2650 2570 
Q 2978 2194 2978 1541 
Q 2978 778 2472 313 
Q 2038 -88 1503 -88 
Q 1253 -88 995 3 
Q 738 94 469 275 
L 469 3241 
Q 469 3728 445 3840 
Q 422 3953 372 3993 
Q 322 4034 247 4034 
Q 159 4034 28 3984 
L -16 4094 
L 844 4444 
L 984 4444 
L 984 2369 
z
M 984 2169 
L 984 456 
Q 1144 300 1314 220 
Q 1484 141 1663 141 
Q 1947 141 2192 453 
Q 2438 766 2438 1363 
Q 2438 1913 2192 2208 
Q 1947 2503 1634 2503 
Q 1469 2503 1303 2419 
Q 1178 2356 984 2169 
z
" transform="scale(0.015625)"/>
        <path id="TimesNewRomanPSMT-6e" d="M 1034 2341 
Q 1538 2947 1994 2947 
Q 2228 2947 2397 2830 
Q 2566 2713 2666 2444 
Q 2734 2256 2734 1869 
L 2734 647 
Q 2734 375 2778 278 
Q 2813 200 2889 156 
Q 2966 113 3172 113 
L 3172 0 
L 1756 0 
L 1756 113 
L 1816 113 
Q 2016 113 2095 173 
Q 2175 234 2206 353 
Q 2219 400 2219 647 
L 2219 1819 
Q 2219 2209 2117 2386 
Q 2016 2563 1775 2563 
Q 1403 2563 1034 2156 
L 1034 647 
Q 1034 356 1069 288 
Q 1113 197 1189 155 
Q 1266 113 1500 113 
L 1500 0 
L 84 0 
L 84 113 
L 147 113 
Q 366 113 442 223 
Q 519 334 519 647 
L 519 1709 
Q 519 2225 495 2337 
Q 472 2450 423 2490 
Q 375 2531 294 2531 
Q 206 2531 84 2484 
L 38 2597 
L 900 2947 
L 1034 2947 
L 1034 2341 
z
" transform="scale(0.015625)"/>
        <path id="TimesNewRomanPSMT-29" d="M 144 4313 
L 144 4444 
Q 619 4209 934 3891 
Q 1381 3434 1625 2820 
Q 1869 2206 1869 1541 
Q 1869 572 1392 -226 
Q 916 -1025 144 -1369 
L 144 -1253 
Q 528 -1038 776 -670 
Q 1025 -303 1145 264 
Q 1266 831 1266 1447 
Q 1266 2113 1163 2663 
Q 1084 3094 967 3353 
Q 850 3613 656 3853 
Q 463 4094 144 4313 
z
" transform="scale(0.015625)"/>
       </defs>
       <use xlink:href="#TimesNewRomanPSMT-28"/>
       <use xlink:href="#TimesNewRomanPSMT-30" x="33.300781"/>
       <use xlink:href="#TimesNewRomanPSMT-2c" x="83.300781"/>
       <use xlink:href="#TimesNewRomanPSMT-20" x="108.300781"/>
       <use xlink:href="#TimesNewRomanPSMT-27" x="133.300781"/>
       <use xlink:href="#TimesNewRomanPSMT-46" x="151.318359"/>
       <use xlink:href="#TimesNewRomanPSMT-61" x="206.933594"/>
       <use xlink:href="#TimesNewRomanPSMT-6b" x="251.318359"/>
       <use xlink:href="#TimesNewRomanPSMT-65" x="301.318359"/>
       <use xlink:href="#TimesNewRomanPSMT-42" x="345.703125"/>
       <use xlink:href="#TimesNewRomanPSMT-72" x="412.402344"/>
       <use xlink:href="#TimesNewRomanPSMT-69" x="445.703125"/>
       <use xlink:href="#TimesNewRomanPSMT-73" x="473.486328"/>
       <use xlink:href="#TimesNewRomanPSMT-62" x="512.402344"/>
       <use xlink:href="#TimesNewRomanPSMT-61" x="562.402344"/>
       <use xlink:href="#TimesNewRomanPSMT-6e" x="606.787109"/>
       <use xlink:href="#TimesNewRomanPSMT-65" x="656.787109"/>
       <use xlink:href="#TimesNewRomanPSMT-27" x="701.171875"/>
       <use xlink:href="#TimesNewRomanPSMT-29" x="719.189453"/>
      </g>
     </g>
    </g>
    <g id="xtick_2">
     <g id="line2d_2">
      <g>
       <use xlink:href="#m195c7f2757" x="324.004236" y="508.934375" style="stroke: #000000; stroke-width: 5"/>
      </g>
     </g>
     <g id="text_2">
      <!-- (0, 'FakeKyiv') -->
      <g transform="translate(129.974157 577.56875) scale(0.65 -0.65)">
       <defs>
        <path id="TimesNewRomanPSMT-4b" d="M 1913 2350 
L 3475 797 
Q 3859 413 4131 273 
Q 4403 134 4675 116 
L 4675 0 
L 2659 0 
L 2659 116 
Q 2841 116 2920 177 
Q 3000 238 3000 313 
Q 3000 388 2970 447 
Q 2941 506 2775 669 
L 1313 2116 
L 1313 750 
Q 1313 428 1353 325 
Q 1384 247 1484 191 
Q 1619 116 1769 116 
L 1913 116 
L 1913 0 
L 106 0 
L 106 116 
L 256 116 
Q 519 116 638 269 
Q 713 369 713 750 
L 713 3488 
Q 713 3809 672 3916 
Q 641 3991 544 4047 
Q 406 4122 256 4122 
L 106 4122 
L 106 4238 
L 1913 4238 
L 1913 4122 
L 1769 4122 
Q 1622 4122 1484 4050 
Q 1388 4000 1350 3900 
Q 1313 3800 1313 3488 
L 1313 2191 
Q 1375 2250 1741 2588 
Q 2669 3438 2863 3722 
Q 2947 3847 2947 3941 
Q 2947 4013 2881 4067 
Q 2816 4122 2659 4122 
L 2563 4122 
L 2563 4238 
L 4119 4238 
L 4119 4122 
Q 3981 4119 3868 4084 
Q 3756 4050 3593 3951 
Q 3431 3853 3194 3634 
Q 3125 3572 2559 2994 
L 1913 2350 
z
" transform="scale(0.015625)"/>
        <path id="TimesNewRomanPSMT-79" d="M 38 2863 
L 1372 2863 
L 1372 2747 
L 1306 2747 
Q 1166 2747 1095 2686 
Q 1025 2625 1025 2534 
Q 1025 2413 1128 2197 
L 1825 753 
L 2466 2334 
Q 2519 2463 2519 2588 
Q 2519 2644 2497 2672 
Q 2472 2706 2419 2726 
Q 2366 2747 2231 2747 
L 2231 2863 
L 3163 2863 
L 3163 2747 
Q 3047 2734 2984 2696 
Q 2922 2659 2847 2556 
Q 2819 2513 2741 2316 
L 1575 -541 
Q 1406 -956 1132 -1168 
Q 859 -1381 606 -1381 
Q 422 -1381 303 -1275 
Q 184 -1169 184 -1031 
Q 184 -900 270 -820 
Q 356 -741 506 -741 
Q 609 -741 788 -809 
Q 913 -856 944 -856 
Q 1038 -856 1148 -759 
Q 1259 -663 1372 -384 
L 1575 113 
L 547 2272 
Q 500 2369 397 2513 
Q 319 2622 269 2659 
Q 197 2709 38 2747 
L 38 2863 
z
" transform="scale(0.015625)"/>
        <path id="TimesNewRomanPSMT-76" d="M 53 2863 
L 1400 2863 
L 1400 2747 
L 1313 2747 
Q 1191 2747 1127 2687 
Q 1063 2628 1063 2528 
Q 1063 2419 1128 2269 
L 1794 688 
L 2463 2328 
Q 2534 2503 2534 2594 
Q 2534 2638 2509 2666 
Q 2475 2713 2422 2730 
Q 2369 2747 2206 2747 
L 2206 2863 
L 3141 2863 
L 3141 2747 
Q 2978 2734 2916 2681 
Q 2806 2588 2719 2369 
L 1703 -88 
L 1575 -88 
L 553 2328 
Q 484 2497 421 2570 
Q 359 2644 263 2694 
Q 209 2722 53 2747 
L 53 2863 
z
" transform="scale(0.015625)"/>
       </defs>
       <use xlink:href="#TimesNewRomanPSMT-28"/>
       <use xlink:href="#TimesNewRomanPSMT-30" x="33.300781"/>
       <use xlink:href="#TimesNewRomanPSMT-2c" x="83.300781"/>
       <use xlink:href="#TimesNewRomanPSMT-20" x="108.300781"/>
       <use xlink:href="#TimesNewRomanPSMT-27" x="133.300781"/>
       <use xlink:href="#TimesNewRomanPSMT-46" x="151.318359"/>
       <use xlink:href="#TimesNewRomanPSMT-61" x="206.933594"/>
       <use xlink:href="#TimesNewRomanPSMT-6b" x="251.318359"/>
       <use xlink:href="#TimesNewRomanPSMT-65" x="301.318359"/>
       <use xlink:href="#TimesNewRomanPSMT-4b" x="345.703125"/>
       <use xlink:href="#TimesNewRomanPSMT-79" x="417.919922"/>
       <use xlink:href="#TimesNewRomanPSMT-69" x="467.919922"/>
       <use xlink:href="#TimesNewRomanPSMT-76" x="495.703125"/>
       <use xlink:href="#TimesNewRomanPSMT-27" x="545.703125"/>
       <use xlink:href="#TimesNewRomanPSMT-29" x="563.720703"/>
      </g>
     </g>
    </g>
    <g id="xtick_3">
     <g id="line2d_3">
      <g>
       <use xlink:href="#m195c7f2757" x="396.245971" y="508.934375" style="stroke: #000000; stroke-width: 5"/>
      </g>
     </g>
     <g id="text_3">
      <!-- (0, 'FakeTorino') -->
      <g transform="translate(181.040112 577.56875) scale(0.65 -0.65)">
       <defs>
        <path id="TimesNewRomanPSMT-54" d="M 3703 4238 
L 3750 3244 
L 3631 3244 
Q 3597 3506 3538 3619 
Q 3441 3800 3280 3886 
Q 3119 3972 2856 3972 
L 2259 3972 
L 2259 734 
Q 2259 344 2344 247 
Q 2463 116 2709 116 
L 2856 116 
L 2856 0 
L 1059 0 
L 1059 116 
L 1209 116 
Q 1478 116 1591 278 
Q 1659 378 1659 734 
L 1659 3972 
L 1150 3972 
Q 853 3972 728 3928 
Q 566 3869 450 3700 
Q 334 3531 313 3244 
L 194 3244 
L 244 4238 
L 3703 4238 
z
" transform="scale(0.015625)"/>
        <path id="TimesNewRomanPSMT-6f" d="M 1600 2947 
Q 2250 2947 2644 2453 
Q 2978 2031 2978 1484 
Q 2978 1100 2793 706 
Q 2609 313 2286 112 
Q 1963 -88 1566 -88 
Q 919 -88 538 428 
Q 216 863 216 1403 
Q 216 1797 411 2186 
Q 606 2575 925 2761 
Q 1244 2947 1600 2947 
z
M 1503 2744 
Q 1338 2744 1170 2645 
Q 1003 2547 900 2300 
Q 797 2053 797 1666 
Q 797 1041 1045 587 
Q 1294 134 1700 134 
Q 2003 134 2200 384 
Q 2397 634 2397 1244 
Q 2397 2006 2069 2444 
Q 1847 2744 1503 2744 
z
" transform="scale(0.015625)"/>
       </defs>
       <use xlink:href="#TimesNewRomanPSMT-28"/>
       <use xlink:href="#TimesNewRomanPSMT-30" x="33.300781"/>
       <use xlink:href="#TimesNewRomanPSMT-2c" x="83.300781"/>
       <use xlink:href="#TimesNewRomanPSMT-20" x="108.300781"/>
       <use xlink:href="#TimesNewRomanPSMT-27" x="133.300781"/>
       <use xlink:href="#TimesNewRomanPSMT-46" x="151.318359"/>
       <use xlink:href="#TimesNewRomanPSMT-61" x="206.933594"/>
       <use xlink:href="#TimesNewRomanPSMT-6b" x="251.318359"/>
       <use xlink:href="#TimesNewRomanPSMT-65" x="301.318359"/>
       <use xlink:href="#TimesNewRomanPSMT-54" x="345.703125"/>
       <use xlink:href="#TimesNewRomanPSMT-6f" x="399.787109"/>
       <use xlink:href="#TimesNewRomanPSMT-72" x="449.787109"/>
       <use xlink:href="#TimesNewRomanPSMT-69" x="483.087891"/>
       <use xlink:href="#TimesNewRomanPSMT-6e" x="510.871094"/>
       <use xlink:href="#TimesNewRomanPSMT-6f" x="560.871094"/>
       <use xlink:href="#TimesNewRomanPSMT-27" x="610.871094"/>
       <use xlink:href="#TimesNewRomanPSMT-29" x="628.888672"/>
      </g>
     </g>
    </g>
    <g id="xtick_4">
     <g id="line2d_4">
      <g>
       <use xlink:href="#m195c7f2757" x="468.487707" y="508.934375" style="stroke: #000000; stroke-width: 5"/>
      </g>
     </g>
     <g id="text_4">
      <!-- (1, 'FakeBrisbane') -->
      <g transform="translate(223.925207 577.56875) scale(0.65 -0.65)">
       <defs>
        <path id="TimesNewRomanPSMT-31" d="M 750 3822 
L 1781 4325 
L 1884 4325 
L 1884 747 
Q 1884 391 1914 303 
Q 1944 216 2037 169 
Q 2131 122 2419 116 
L 2419 0 
L 825 0 
L 825 116 
Q 1125 122 1212 167 
Q 1300 213 1334 289 
Q 1369 366 1369 747 
L 1369 3034 
Q 1369 3497 1338 3628 
Q 1316 3728 1258 3775 
Q 1200 3822 1119 3822 
Q 1003 3822 797 3725 
L 750 3822 
z
" transform="scale(0.015625)"/>
       </defs>
       <use xlink:href="#TimesNewRomanPSMT-28"/>
       <use xlink:href="#TimesNewRomanPSMT-31" x="33.300781"/>
       <use xlink:href="#TimesNewRomanPSMT-2c" x="83.300781"/>
       <use xlink:href="#TimesNewRomanPSMT-20" x="108.300781"/>
       <use xlink:href="#TimesNewRomanPSMT-27" x="133.300781"/>
       <use xlink:href="#TimesNewRomanPSMT-46" x="151.318359"/>
       <use xlink:href="#TimesNewRomanPSMT-61" x="206.933594"/>
       <use xlink:href="#TimesNewRomanPSMT-6b" x="251.318359"/>
       <use xlink:href="#TimesNewRomanPSMT-65" x="301.318359"/>
       <use xlink:href="#TimesNewRomanPSMT-42" x="345.703125"/>
       <use xlink:href="#TimesNewRomanPSMT-72" x="412.402344"/>
       <use xlink:href="#TimesNewRomanPSMT-69" x="445.703125"/>
       <use xlink:href="#TimesNewRomanPSMT-73" x="473.486328"/>
       <use xlink:href="#TimesNewRomanPSMT-62" x="512.402344"/>
       <use xlink:href="#TimesNewRomanPSMT-61" x="562.402344"/>
       <use xlink:href="#TimesNewRomanPSMT-6e" x="606.787109"/>
       <use xlink:href="#TimesNewRomanPSMT-65" x="656.787109"/>
       <use xlink:href="#TimesNewRomanPSMT-27" x="701.171875"/>
       <use xlink:href="#TimesNewRomanPSMT-29" x="719.189453"/>
      </g>
     </g>
    </g>
    <g id="xtick_5">
     <g id="line2d_5">
      <g>
       <use xlink:href="#m195c7f2757" x="540.729442" y="508.934375" style="stroke: #000000; stroke-width: 5"/>
      </g>
     </g>
     <g id="text_5">
      <!-- (1, 'FakeKyiv') -->
      <g transform="translate(346.699364 577.56875) scale(0.65 -0.65)">
       <use xlink:href="#TimesNewRomanPSMT-28"/>
       <use xlink:href="#TimesNewRomanPSMT-31" x="33.300781"/>
       <use xlink:href="#TimesNewRomanPSMT-2c" x="83.300781"/>
       <use xlink:href="#TimesNewRomanPSMT-20" x="108.300781"/>
       <use xlink:href="#TimesNewRomanPSMT-27" x="133.300781"/>
       <use xlink:href="#TimesNewRomanPSMT-46" x="151.318359"/>
       <use xlink:href="#TimesNewRomanPSMT-61" x="206.933594"/>
       <use xlink:href="#TimesNewRomanPSMT-6b" x="251.318359"/>
       <use xlink:href="#TimesNewRomanPSMT-65" x="301.318359"/>
       <use xlink:href="#TimesNewRomanPSMT-4b" x="345.703125"/>
       <use xlink:href="#TimesNewRomanPSMT-79" x="417.919922"/>
       <use xlink:href="#TimesNewRomanPSMT-69" x="467.919922"/>
       <use xlink:href="#TimesNewRomanPSMT-76" x="495.703125"/>
       <use xlink:href="#TimesNewRomanPSMT-27" x="545.703125"/>
       <use xlink:href="#TimesNewRomanPSMT-29" x="563.720703"/>
      </g>
     </g>
    </g>
    <g id="xtick_6">
     <g id="line2d_6">
      <g>
       <use xlink:href="#m195c7f2757" x="612.971178" y="508.934375" style="stroke: #000000; stroke-width: 5"/>
      </g>
     </g>
     <g id="text_6">
      <!-- (1, 'FakeTorino') -->
      <g transform="translate(397.765318 577.56875) scale(0.65 -0.65)">
       <use xlink:href="#TimesNewRomanPSMT-28"/>
       <use xlink:href="#TimesNewRomanPSMT-31" x="33.300781"/>
       <use xlink:href="#TimesNewRomanPSMT-2c" x="83.300781"/>
       <use xlink:href="#TimesNewRomanPSMT-20" x="108.300781"/>
       <use xlink:href="#TimesNewRomanPSMT-27" x="133.300781"/>
       <use xlink:href="#TimesNewRomanPSMT-46" x="151.318359"/>
       <use xlink:href="#TimesNewRomanPSMT-61" x="206.933594"/>
       <use xlink:href="#TimesNewRomanPSMT-6b" x="251.318359"/>
       <use xlink:href="#TimesNewRomanPSMT-65" x="301.318359"/>
       <use xlink:href="#TimesNewRomanPSMT-54" x="345.703125"/>
       <use xlink:href="#TimesNewRomanPSMT-6f" x="399.787109"/>
       <use xlink:href="#TimesNewRomanPSMT-72" x="449.787109"/>
       <use xlink:href="#TimesNewRomanPSMT-69" x="483.087891"/>
       <use xlink:href="#TimesNewRomanPSMT-6e" x="510.871094"/>
       <use xlink:href="#TimesNewRomanPSMT-6f" x="560.871094"/>
       <use xlink:href="#TimesNewRomanPSMT-27" x="610.871094"/>
       <use xlink:href="#TimesNewRomanPSMT-29" x="628.888672"/>
      </g>
     </g>
    </g>
    <g id="xtick_7">
     <g id="line2d_7">
      <g>
       <use xlink:href="#m195c7f2757" x="685.212913" y="508.934375" style="stroke: #000000; stroke-width: 5"/>
      </g>
     </g>
     <g id="text_7">
      <!-- (2, 'FakeBrisbane') -->
      <g transform="translate(440.650413 577.56875) scale(0.65 -0.65)">
       <defs>
        <path id="TimesNewRomanPSMT-32" d="M 2934 816 
L 2638 0 
L 138 0 
L 138 116 
Q 1241 1122 1691 1759 
Q 2141 2397 2141 2925 
Q 2141 3328 1894 3587 
Q 1647 3847 1303 3847 
Q 991 3847 742 3664 
Q 494 3481 375 3128 
L 259 3128 
Q 338 3706 661 4015 
Q 984 4325 1469 4325 
Q 1984 4325 2329 3994 
Q 2675 3663 2675 3213 
Q 2675 2891 2525 2569 
Q 2294 2063 1775 1497 
Q 997 647 803 472 
L 1909 472 
Q 2247 472 2383 497 
Q 2519 522 2628 598 
Q 2738 675 2819 816 
L 2934 816 
z
" transform="scale(0.015625)"/>
       </defs>
       <use xlink:href="#TimesNewRomanPSMT-28"/>
       <use xlink:href="#TimesNewRomanPSMT-32" x="33.300781"/>
       <use xlink:href="#TimesNewRomanPSMT-2c" x="83.300781"/>
       <use xlink:href="#TimesNewRomanPSMT-20" x="108.300781"/>
       <use xlink:href="#TimesNewRomanPSMT-27" x="133.300781"/>
       <use xlink:href="#TimesNewRomanPSMT-46" x="151.318359"/>
       <use xlink:href="#TimesNewRomanPSMT-61" x="206.933594"/>
       <use xlink:href="#TimesNewRomanPSMT-6b" x="251.318359"/>
       <use xlink:href="#TimesNewRomanPSMT-65" x="301.318359"/>
       <use xlink:href="#TimesNewRomanPSMT-42" x="345.703125"/>
       <use xlink:href="#TimesNewRomanPSMT-72" x="412.402344"/>
       <use xlink:href="#TimesNewRomanPSMT-69" x="445.703125"/>
       <use xlink:href="#TimesNewRomanPSMT-73" x="473.486328"/>
       <use xlink:href="#TimesNewRomanPSMT-62" x="512.402344"/>
       <use xlink:href="#TimesNewRomanPSMT-61" x="562.402344"/>
       <use xlink:href="#TimesNewRomanPSMT-6e" x="606.787109"/>
       <use xlink:href="#TimesNewRomanPSMT-65" x="656.787109"/>
       <use xlink:href="#TimesNewRomanPSMT-27" x="701.171875"/>
       <use xlink:href="#TimesNewRomanPSMT-29" x="719.189453"/>
      </g>
     </g>
    </g>
    <g id="xtick_8">
     <g id="line2d_8">
      <g>
       <use xlink:href="#m195c7f2757" x="757.454649" y="508.934375" style="stroke: #000000; stroke-width: 5"/>
      </g>
     </g>
     <g id="text_8">
      <!-- (2, 'FakeKyiv') -->
      <g transform="translate(563.424571 577.56875) scale(0.65 -0.65)">
       <use xlink:href="#TimesNewRomanPSMT-28"/>
       <use xlink:href="#TimesNewRomanPSMT-32" x="33.300781"/>
       <use xlink:href="#TimesNewRomanPSMT-2c" x="83.300781"/>
       <use xlink:href="#TimesNewRomanPSMT-20" x="108.300781"/>
       <use xlink:href="#TimesNewRomanPSMT-27" x="133.300781"/>
       <use xlink:href="#TimesNewRomanPSMT-46" x="151.318359"/>
       <use xlink:href="#TimesNewRomanPSMT-61" x="206.933594"/>
       <use xlink:href="#TimesNewRomanPSMT-6b" x="251.318359"/>
       <use xlink:href="#TimesNewRomanPSMT-65" x="301.318359"/>
       <use xlink:href="#TimesNewRomanPSMT-4b" x="345.703125"/>
       <use xlink:href="#TimesNewRomanPSMT-79" x="417.919922"/>
       <use xlink:href="#TimesNewRomanPSMT-69" x="467.919922"/>
       <use xlink:href="#TimesNewRomanPSMT-76" x="495.703125"/>
       <use xlink:href="#TimesNewRomanPSMT-27" x="545.703125"/>
       <use xlink:href="#TimesNewRomanPSMT-29" x="563.720703"/>
      </g>
     </g>
    </g>
    <g id="xtick_9">
     <g id="line2d_9">
      <g>
       <use xlink:href="#m195c7f2757" x="829.696384" y="508.934375" style="stroke: #000000; stroke-width: 5"/>
      </g>
     </g>
     <g id="text_9">
      <!-- (2, 'FakeTorino') -->
      <g transform="translate(614.490525 577.56875) scale(0.65 -0.65)">
       <use xlink:href="#TimesNewRomanPSMT-28"/>
       <use xlink:href="#TimesNewRomanPSMT-32" x="33.300781"/>
       <use xlink:href="#TimesNewRomanPSMT-2c" x="83.300781"/>
       <use xlink:href="#TimesNewRomanPSMT-20" x="108.300781"/>
       <use xlink:href="#TimesNewRomanPSMT-27" x="133.300781"/>
       <use xlink:href="#TimesNewRomanPSMT-46" x="151.318359"/>
       <use xlink:href="#TimesNewRomanPSMT-61" x="206.933594"/>
       <use xlink:href="#TimesNewRomanPSMT-6b" x="251.318359"/>
       <use xlink:href="#TimesNewRomanPSMT-65" x="301.318359"/>
       <use xlink:href="#TimesNewRomanPSMT-54" x="345.703125"/>
       <use xlink:href="#TimesNewRomanPSMT-6f" x="399.787109"/>
       <use xlink:href="#TimesNewRomanPSMT-72" x="449.787109"/>
       <use xlink:href="#TimesNewRomanPSMT-69" x="483.087891"/>
       <use xlink:href="#TimesNewRomanPSMT-6e" x="510.871094"/>
       <use xlink:href="#TimesNewRomanPSMT-6f" x="560.871094"/>
       <use xlink:href="#TimesNewRomanPSMT-27" x="610.871094"/>
       <use xlink:href="#TimesNewRomanPSMT-29" x="628.888672"/>
      </g>
     </g>
    </g>
    <g id="text_10">
     <!-- #qubit -->
     <g transform="translate(457.67163 640.728906) scale(0.65 -0.65)">
      <defs>
       <path id="TimesNewRomanPSMT-23" d="M 359 -88 
L 650 1334 
L 116 1334 
L 116 1591 
L 700 1591 
L 916 2663 
L 116 2663 
L 116 2913 
L 975 2913 
L 1259 4334 
L 1519 4334 
L 1234 2913 
L 2288 2913 
L 2591 4334 
L 2850 4334 
L 2553 2913 
L 3084 2913 
L 3084 2663 
L 2506 2663 
L 2288 1591 
L 3084 1591 
L 3084 1334 
L 2234 1334 
L 1944 -88 
L 1691 -88 
L 1975 1334 
L 916 1334 
L 619 -88 
L 359 -88 
z
M 963 1591 
L 2022 1591 
L 2247 2663 
L 1181 2663 
L 963 1591 
z
" transform="scale(0.015625)"/>
       <path id="TimesNewRomanPSMT-71" d="M 2734 2947 
L 2734 -734 
Q 2734 -1009 2771 -1087 
Q 2809 -1166 2889 -1209 
Q 2969 -1253 3200 -1253 
L 3200 -1369 
L 1756 -1369 
L 1756 -1253 
L 1816 -1253 
Q 1991 -1253 2081 -1203 
Q 2144 -1169 2181 -1080 
Q 2219 -991 2219 -734 
L 2219 497 
Q 1934 159 1721 35 
Q 1509 -88 1281 -88 
Q 866 -88 539 290 
Q 213 669 213 1303 
Q 213 2031 644 2489 
Q 1075 2947 1684 2947 
Q 1863 2947 2013 2897 
Q 2163 2847 2281 2747 
Q 2463 2834 2628 2947 
L 2734 2947 
z
M 2219 694 
L 2219 2038 
Q 2219 2272 2158 2406 
Q 2097 2541 1940 2634 
Q 1784 2728 1588 2728 
Q 1238 2728 988 2431 
Q 738 2134 738 1531 
Q 738 953 992 653 
Q 1247 353 1606 353 
Q 1791 353 1934 433 
Q 2078 513 2219 694 
z
" transform="scale(0.015625)"/>
       <path id="TimesNewRomanPSMT-75" d="M 2709 2863 
L 2709 1128 
Q 2709 631 2732 520 
Q 2756 409 2807 365 
Q 2859 322 2928 322 
Q 3025 322 3147 375 
L 3191 266 
L 2334 -88 
L 2194 -88 
L 2194 519 
Q 1825 119 1631 15 
Q 1438 -88 1222 -88 
Q 981 -88 804 51 
Q 628 191 559 409 
Q 491 628 491 1028 
L 491 2306 
Q 491 2509 447 2587 
Q 403 2666 317 2708 
Q 231 2750 6 2747 
L 6 2863 
L 1009 2863 
L 1009 947 
Q 1009 547 1148 422 
Q 1288 297 1484 297 
Q 1619 297 1789 381 
Q 1959 466 2194 703 
L 2194 2325 
Q 2194 2569 2105 2655 
Q 2016 2741 1734 2747 
L 1734 2863 
L 2709 2863 
z
" transform="scale(0.015625)"/>
       <path id="TimesNewRomanPSMT-74" d="M 1031 3803 
L 1031 2863 
L 1700 2863 
L 1700 2644 
L 1031 2644 
L 1031 788 
Q 1031 509 1111 412 
Q 1191 316 1316 316 
Q 1419 316 1516 380 
Q 1613 444 1666 569 
L 1788 569 
Q 1678 263 1478 108 
Q 1278 -47 1066 -47 
Q 922 -47 784 33 
Q 647 113 581 261 
Q 516 409 516 719 
L 516 2644 
L 63 2644 
L 63 2747 
Q 234 2816 414 2980 
Q 594 3144 734 3369 
Q 806 3488 934 3803 
L 1031 3803 
z
" transform="scale(0.015625)"/>
      </defs>
      <use xlink:href="#TimesNewRomanPSMT-23"/>
      <use xlink:href="#TimesNewRomanPSMT-71" x="50"/>
      <use xlink:href="#TimesNewRomanPSMT-75" x="100"/>
      <use xlink:href="#TimesNewRomanPSMT-62" x="150"/>
      <use xlink:href="#TimesNewRomanPSMT-69" x="200"/>
      <use xlink:href="#TimesNewRomanPSMT-74" x="227.783203"/>
     </g>
    </g>
   </g>
   <g id="matplotlib.axis_2">
    <g id="ytick_1">
     <g id="line2d_10">
      <path d="M 191.079442 282.134377 
L 890.379442 282.134377 
" clip-path="url(#p7f8c957ca0)" style="fill: none; stroke-dasharray: 3.7,1.6; stroke-dashoffset: 0; stroke: #808080"/>
     </g>
     <g id="line2d_11">
      <defs>
       <path id="m8d53d86dec" d="M 0 0 
L -20 0 
" style="stroke: #000000; stroke-width: 5"/>
      </defs>
      <g>
       <use xlink:href="#m8d53d86dec" x="191.079442" y="282.134377" style="stroke: #000000; stroke-width: 5"/>
      </g>
     </g>
     <g id="text_11">
      <!-- 0.5 -->
      <g transform="translate(86.329442 304.701565) scale(0.65 -0.65)">
       <defs>
        <path id="TimesNewRomanPSMT-2e" d="M 800 606 
Q 947 606 1047 504 
Q 1147 403 1147 259 
Q 1147 116 1045 14 
Q 944 -88 800 -88 
Q 656 -88 554 14 
Q 453 116 453 259 
Q 453 406 554 506 
Q 656 606 800 606 
z
" transform="scale(0.015625)"/>
        <path id="TimesNewRomanPSMT-35" d="M 2778 4238 
L 2534 3706 
L 1259 3706 
L 981 3138 
Q 1809 3016 2294 2522 
Q 2709 2097 2709 1522 
Q 2709 1188 2573 903 
Q 2438 619 2231 419 
Q 2025 219 1772 97 
Q 1413 -75 1034 -75 
Q 653 -75 479 54 
Q 306 184 306 341 
Q 306 428 378 495 
Q 450 563 559 563 
Q 641 563 702 538 
Q 763 513 909 409 
Q 1144 247 1384 247 
Q 1750 247 2026 523 
Q 2303 800 2303 1197 
Q 2303 1581 2056 1914 
Q 1809 2247 1375 2428 
Q 1034 2569 447 2591 
L 1259 4238 
L 2778 4238 
z
" transform="scale(0.015625)"/>
       </defs>
       <use xlink:href="#TimesNewRomanPSMT-30"/>
       <use xlink:href="#TimesNewRomanPSMT-2e" x="50"/>
       <use xlink:href="#TimesNewRomanPSMT-35" x="75"/>
      </g>
     </g>
    </g>
    <g id="ytick_2">
     <g id="line2d_12">
      <path d="M 191.079442 55.334375 
L 890.379442 55.334375 
" clip-path="url(#p7f8c957ca0)" style="fill: none; stroke-dasharray: 3.7,1.6; stroke-dashoffset: 0; stroke: #808080"/>
     </g>
     <g id="line2d_13">
      <g>
       <use xlink:href="#m8d53d86dec" x="191.079442" y="55.334375" style="stroke: #000000; stroke-width: 5"/>
      </g>
     </g>
     <g id="text_12">
      <!-- 1.0 -->
      <g transform="translate(86.329442 77.901563) scale(0.65 -0.65)">
       <use xlink:href="#TimesNewRomanPSMT-31"/>
       <use xlink:href="#TimesNewRomanPSMT-2e" x="50"/>
       <use xlink:href="#TimesNewRomanPSMT-30" x="75"/>
      </g>
     </g>
    </g>
    <g id="text_13">
     <!-- depth -->
     <g transform="translate(68.425536 354.340234) rotate(-90) scale(0.65 -0.65)">
      <defs>
       <path id="TimesNewRomanPSMT-64" d="M 2222 322 
Q 2013 103 1813 7 
Q 1613 -88 1381 -88 
Q 913 -88 563 304 
Q 213 697 213 1313 
Q 213 1928 600 2439 
Q 988 2950 1597 2950 
Q 1975 2950 2222 2709 
L 2222 3238 
Q 2222 3728 2198 3840 
Q 2175 3953 2125 3993 
Q 2075 4034 2000 4034 
Q 1919 4034 1784 3984 
L 1744 4094 
L 2597 4444 
L 2738 4444 
L 2738 1134 
Q 2738 631 2761 520 
Q 2784 409 2836 365 
Q 2888 322 2956 322 
Q 3041 322 3181 375 
L 3216 266 
L 2366 -88 
L 2222 -88 
L 2222 322 
z
M 2222 541 
L 2222 2016 
Q 2203 2228 2109 2403 
Q 2016 2578 1861 2667 
Q 1706 2756 1559 2756 
Q 1284 2756 1069 2509 
Q 784 2184 784 1559 
Q 784 928 1059 592 
Q 1334 256 1672 256 
Q 1956 256 2222 541 
z
" transform="scale(0.015625)"/>
       <path id="TimesNewRomanPSMT-70" d="M -6 2578 
L 875 2934 
L 994 2934 
L 994 2266 
Q 1216 2644 1439 2795 
Q 1663 2947 1909 2947 
Q 2341 2947 2628 2609 
Q 2981 2197 2981 1534 
Q 2981 794 2556 309 
Q 2206 -88 1675 -88 
Q 1444 -88 1275 -22 
Q 1150 25 994 166 
L 994 -706 
Q 994 -1000 1030 -1079 
Q 1066 -1159 1155 -1206 
Q 1244 -1253 1478 -1253 
L 1478 -1369 
L -22 -1369 
L -22 -1253 
L 56 -1253 
Q 228 -1256 350 -1188 
Q 409 -1153 442 -1076 
Q 475 -1000 475 -688 
L 475 2019 
Q 475 2297 450 2372 
Q 425 2447 370 2484 
Q 316 2522 222 2522 
Q 147 2522 31 2478 
L -6 2578 
z
M 994 2081 
L 994 1013 
Q 994 666 1022 556 
Q 1066 375 1236 237 
Q 1406 100 1666 100 
Q 1978 100 2172 344 
Q 2425 663 2425 1241 
Q 2425 1897 2138 2250 
Q 1938 2494 1663 2494 
Q 1513 2494 1366 2419 
Q 1253 2363 994 2081 
z
" transform="scale(0.015625)"/>
       <path id="TimesNewRomanPSMT-68" d="M 1041 4444 
L 1041 2350 
Q 1388 2731 1591 2839 
Q 1794 2947 1997 2947 
Q 2241 2947 2416 2812 
Q 2591 2678 2675 2391 
Q 2734 2191 2734 1659 
L 2734 647 
Q 2734 375 2778 275 
Q 2809 200 2884 156 
Q 2959 113 3159 113 
L 3159 0 
L 1753 0 
L 1753 113 
L 1819 113 
Q 2019 113 2097 173 
Q 2175 234 2206 353 
Q 2216 403 2216 647 
L 2216 1659 
Q 2216 2128 2167 2275 
Q 2119 2422 2012 2495 
Q 1906 2569 1756 2569 
Q 1603 2569 1437 2487 
Q 1272 2406 1041 2159 
L 1041 647 
Q 1041 353 1073 281 
Q 1106 209 1195 161 
Q 1284 113 1503 113 
L 1503 0 
L 84 0 
L 84 113 
Q 275 113 384 172 
Q 447 203 484 290 
Q 522 378 522 647 
L 522 3238 
Q 522 3728 498 3840 
Q 475 3953 426 3993 
Q 378 4034 297 4034 
Q 231 4034 84 3984 
L 41 4094 
L 897 4444 
L 1041 4444 
z
" transform="scale(0.015625)"/>
      </defs>
      <use xlink:href="#TimesNewRomanPSMT-64"/>
      <use xlink:href="#TimesNewRomanPSMT-65" x="50"/>
      <use xlink:href="#TimesNewRomanPSMT-70" x="94.384766"/>
      <use xlink:href="#TimesNewRomanPSMT-74" x="144.384766"/>
      <use xlink:href="#TimesNewRomanPSMT-68" x="172.167969"/>
     </g>
    </g>
    <g id="text_14">
     <!-- 1e8 -->
     <g transform="translate(191.079442 52.334375) scale(0.65 -0.65)">
      <defs>
       <path id="TimesNewRomanPSMT-38" d="M 1228 2134 
Q 725 2547 579 2797 
Q 434 3047 434 3316 
Q 434 3728 753 4026 
Q 1072 4325 1600 4325 
Q 2113 4325 2425 4047 
Q 2738 3769 2738 3413 
Q 2738 3175 2569 2928 
Q 2400 2681 1866 2347 
Q 2416 1922 2594 1678 
Q 2831 1359 2831 1006 
Q 2831 559 2490 242 
Q 2150 -75 1597 -75 
Q 994 -75 656 303 
Q 388 606 388 966 
Q 388 1247 577 1523 
Q 766 1800 1228 2134 
z
M 1719 2469 
Q 2094 2806 2194 3001 
Q 2294 3197 2294 3444 
Q 2294 3772 2109 3958 
Q 1925 4144 1606 4144 
Q 1288 4144 1088 3959 
Q 888 3775 888 3528 
Q 888 3366 970 3203 
Q 1053 3041 1206 2894 
L 1719 2469 
z
M 1375 2016 
Q 1116 1797 991 1539 
Q 866 1281 866 981 
Q 866 578 1086 336 
Q 1306 94 1647 94 
Q 1984 94 2187 284 
Q 2391 475 2391 747 
Q 2391 972 2272 1150 
Q 2050 1481 1375 2016 
z
" transform="scale(0.015625)"/>
      </defs>
      <use xlink:href="#TimesNewRomanPSMT-31"/>
      <use xlink:href="#TimesNewRomanPSMT-65" x="50"/>
      <use xlink:href="#TimesNewRomanPSMT-38" x="94.384766"/>
     </g>
    </g>
   </g>
   <g id="patch_21">
    <path d="M 191.079442 508.934375 
L 191.079442 55.334375 
" style="fill: none; stroke: #000000; stroke-width: 5; stroke-linejoin: miter; stroke-linecap: square"/>
   </g>
   <g id="patch_22">
    <path d="M 890.379442 508.934375 
L 890.379442 55.334375 
" style="fill: none; stroke: #000000; stroke-width: 5; stroke-linejoin: miter; stroke-linecap: square"/>
   </g>
   <g id="patch_23">
    <path d="M 191.079442 508.934375 
L 890.379442 508.934375 
" style="fill: none; stroke: #000000; stroke-width: 5; stroke-linejoin: miter; stroke-linecap: square"/>
   </g>
   <g id="patch_24">
    <path d="M 191.079442 55.334375 
L 890.379442 55.334375 
" style="fill: none; stroke: #000000; stroke-width: 5; stroke-linejoin: miter; stroke-linecap: square"/>
   </g>
  </g>
 </g>
 <defs>
  <clipPath id="p7f8c957ca0">
   <rect x="191.079442" y="55.334375" width="699.3" height="453.6"/>
  </clipPath>
 </defs>
</svg>
