<?xml version="1.0" encoding="utf-8" standalone="no"?>
<!DOCTYPE svg PUBLIC "-//W3C//DTD SVG 1.1//EN"
  "http://www.w3.org/Graphics/SVG/1.1/DTD/svg11.dtd">
<svg xmlns:xlink="http://www.w3.org/1999/xlink" width="813.15pt" height="432.602281pt" viewBox="0 0 813.15 432.602281" xmlns="http://www.w3.org/2000/svg" version="1.1">
 <metadata>
  <rdf:RDF xmlns:dc="http://purl.org/dc/elements/1.1/" xmlns:cc="http://creativecommons.org/ns#" xmlns:rdf="http://www.w3.org/1999/02/22-rdf-syntax-ns#">
   <cc:Work>
    <dc:type rdf:resource="http://purl.org/dc/dcmitype/StillImage"/>
    <dc:date>2024-07-27T11:56:26.000284</dc:date>
    <dc:format>image/svg+xml</dc:format>
    <dc:creator>
     <cc:Agent>
      <dc:title>Matplotlib v3.7.5, https://matplotlib.org/</dc:title>
     </cc:Agent>
    </dc:creator>
   </cc:Work>
  </rdf:RDF>
 </metadata>
 <defs>
  <style type="text/css">*{stroke-linejoin: round; stroke-linecap: butt}</style>
 </defs>
 <g id="figure_1">
  <g id="patch_1">
   <path d="M 0 432.602281 
L 813.15 432.602281 
L 813.15 0 
L 0 0 
z
" style="fill: #ffffff"/>
  </g>
  <g id="axes_1">
   <g id="patch_2">
    <path d="M 144.45 342.864 
L 805.95 342.864 
L 805.95 7.2 
L 144.45 7.2 
z
" style="fill: #ffffff"/>
   </g>
   <g id="PathCollection_1">
    <defs>
     <path id="md31f1a88e1" d="M 0 17.5 
C 4.641054 17.5 9.092648 15.65609 12.374369 12.374369 
C 15.65609 9.092648 17.5 4.641054 17.5 0 
C 17.5 -4.641054 15.65609 -9.092648 12.374369 -12.374369 
C 9.092648 -15.65609 4.641054 -17.5 0 -17.5 
C -4.641054 -17.5 -9.092648 -15.65609 -12.374369 -12.374369 
C -15.65609 -9.092648 -17.5 -4.641054 -17.5 0 
C -17.5 4.641054 -15.65609 9.092648 -12.374369 12.374369 
C -9.092648 15.65609 -4.641054 17.5 0 17.5 
z
" style="stroke: #000000; stroke-width: 2"/>
    </defs>
    <g clip-path="url(#p3fa4ce76cb)">
     <use xlink:href="#md31f1a88e1" x="174.518182" y="296.04975" style="fill: #7cbeec; stroke: #000000; stroke-width: 2"/>
    </g>
   </g>
   <g id="PathCollection_2">
    <defs>
     <path id="m78a9a941e5" d="M 0 17.5 
C 4.641054 17.5 9.092648 15.65609 12.374369 12.374369 
C 15.65609 9.092648 17.5 4.641054 17.5 0 
C 17.5 -4.641054 15.65609 -9.092648 12.374369 -12.374369 
C 9.092648 -15.65609 4.641054 -17.5 0 -17.5 
C -4.641054 -17.5 -9.092648 -15.65609 -12.374369 -12.374369 
C -15.65609 -9.092648 -17.5 -4.641054 -17.5 0 
C -17.5 4.641054 -15.65609 9.092648 -12.374369 12.374369 
C -9.092648 15.65609 -4.641054 17.5 0 17.5 
z
" style="stroke: #000000; stroke-width: 2"/>
    </defs>
    <g clip-path="url(#p3fa4ce76cb)">
     <use xlink:href="#m78a9a941e5" x="368.177658" y="280.873969" style="fill: #7eb57e; stroke: #000000; stroke-width: 2"/>
    </g>
   </g>
   <g id="PathCollection_3">
    <defs>
     <path id="mf50b8f2be0" d="M 0 17.5 
C 4.641054 17.5 9.092648 15.65609 12.374369 12.374369 
C 15.65609 9.092648 17.5 4.641054 17.5 0 
C 17.5 -4.641054 15.65609 -9.092648 12.374369 -12.374369 
C 9.092648 -15.65609 4.641054 -17.5 0 -17.5 
C -4.641054 -17.5 -9.092648 -15.65609 -12.374369 -12.374369 
C -15.65609 -9.092648 -17.5 -4.641054 -17.5 0 
C -17.5 4.641054 -15.65609 9.092648 -12.374369 12.374369 
C -9.092648 15.65609 -4.641054 17.5 0 17.5 
z
" style="stroke: #000000; stroke-width: 2"/>
    </defs>
    <g clip-path="url(#p3fa4ce76cb)">
     <use xlink:href="#mf50b8f2be0" x="561.837134" y="131.284125" style="fill: #ff6f45; stroke: #000000; stroke-width: 2"/>
    </g>
   </g>
   <g id="PathCollection_4">
    <defs>
     <path id="mfe4951795b" d="M 0 17.5 
C 4.641054 17.5 9.092648 15.65609 12.374369 12.374369 
C 15.65609 9.092648 17.5 4.641054 17.5 0 
C 17.5 -4.641054 15.65609 -9.092648 12.374369 -12.374369 
C 9.092648 -15.65609 4.641054 -17.5 0 -17.5 
C -4.641054 -17.5 -9.092648 -15.65609 -12.374369 -12.374369 
C -15.65609 -9.092648 -17.5 -4.641054 -17.5 0 
C -17.5 4.641054 -15.65609 9.092648 -12.374369 12.374369 
C -9.092648 15.65609 -4.641054 17.5 0 17.5 
z
" style="stroke: #000000; stroke-width: 2"/>
    </defs>
    <g clip-path="url(#p3fa4ce76cb)">
     <use xlink:href="#mfe4951795b" x="775.881818" y="53.23725" style="fill: #3274a1; stroke: #000000; stroke-width: 2"/>
    </g>
   </g>
   <g id="matplotlib.axis_1">
    <g id="xtick_1">
     <g id="line2d_1">
      <defs>
       <path id="m7a667823a9" d="M 0 0 
L 0 20 
" style="stroke: #000000; stroke-width: 5"/>
      </defs>
      <g>
       <use xlink:href="#m7a667823a9" x="164.325578" y="342.864" style="stroke: #000000; stroke-width: 5"/>
      </g>
     </g>
     <g id="text_1">
      <!-- 0 -->
      <g transform="translate(148.075578 411.498375) scale(0.65 -0.65)">
       <defs>
        <path id="TimesNewRomanPSMT-30" d="M 231 2094 
Q 231 2819 450 3342 
Q 669 3866 1031 4122 
Q 1313 4325 1613 4325 
Q 2100 4325 2488 3828 
Q 2972 3213 2972 2159 
Q 2972 1422 2759 906 
Q 2547 391 2217 158 
Q 1888 -75 1581 -75 
Q 975 -75 572 641 
Q 231 1244 231 2094 
z
M 844 2016 
Q 844 1141 1059 588 
Q 1238 122 1591 122 
Q 1759 122 1940 273 
Q 2122 425 2216 781 
Q 2359 1319 2359 2297 
Q 2359 3022 2209 3506 
Q 2097 3866 1919 4016 
Q 1791 4119 1609 4119 
Q 1397 4119 1231 3928 
Q 1006 3669 925 3112 
Q 844 2556 844 2016 
z
" transform="scale(0.015625)"/>
       </defs>
       <use xlink:href="#TimesNewRomanPSMT-30"/>
      </g>
     </g>
    </g>
    <g id="xtick_2">
     <g id="line2d_2">
      <g>
       <use xlink:href="#m7a667823a9" x="368.177658" y="342.864" style="stroke: #000000; stroke-width: 5"/>
      </g>
     </g>
     <g id="text_2">
      <!-- 1 -->
      <g transform="translate(351.927658 411.498375) scale(0.65 -0.65)">
       <defs>
        <path id="TimesNewRomanPSMT-31" d="M 750 3822 
L 1781 4325 
L 1884 4325 
L 1884 747 
Q 1884 391 1914 303 
Q 1944 216 2037 169 
Q 2131 122 2419 116 
L 2419 0 
L 825 0 
L 825 116 
Q 1125 122 1212 167 
Q 1300 213 1334 289 
Q 1369 366 1369 747 
L 1369 3034 
Q 1369 3497 1338 3628 
Q 1316 3728 1258 3775 
Q 1200 3822 1119 3822 
Q 1003 3822 797 3725 
L 750 3822 
z
" transform="scale(0.015625)"/>
       </defs>
       <use xlink:href="#TimesNewRomanPSMT-31"/>
      </g>
     </g>
    </g>
    <g id="xtick_3">
     <g id="line2d_3">
      <g>
       <use xlink:href="#m7a667823a9" x="572.029738" y="342.864" style="stroke: #000000; stroke-width: 5"/>
      </g>
     </g>
     <g id="text_3">
      <!-- 2 -->
      <g transform="translate(555.779738 411.498375) scale(0.65 -0.65)">
       <defs>
        <path id="TimesNewRomanPSMT-32" d="M 2934 816 
L 2638 0 
L 138 0 
L 138 116 
Q 1241 1122 1691 1759 
Q 2141 2397 2141 2925 
Q 2141 3328 1894 3587 
Q 1647 3847 1303 3847 
Q 991 3847 742 3664 
Q 494 3481 375 3128 
L 259 3128 
Q 338 3706 661 4015 
Q 984 4325 1469 4325 
Q 1984 4325 2329 3994 
Q 2675 3663 2675 3213 
Q 2675 2891 2525 2569 
Q 2294 2063 1775 1497 
Q 997 647 803 472 
L 1909 472 
Q 2247 472 2383 497 
Q 2519 522 2628 598 
Q 2738 675 2819 816 
L 2934 816 
z
" transform="scale(0.015625)"/>
       </defs>
       <use xlink:href="#TimesNewRomanPSMT-32"/>
      </g>
     </g>
    </g>
    <g id="xtick_4">
     <g id="line2d_4">
      <g>
       <use xlink:href="#m7a667823a9" x="775.881818" y="342.864" style="stroke: #000000; stroke-width: 5"/>
      </g>
     </g>
     <g id="text_4">
      <!-- 3 -->
      <g transform="translate(759.631818 411.498375) scale(0.65 -0.65)">
       <defs>
        <path id="TimesNewRomanPSMT-33" d="M 325 3431 
Q 506 3859 782 4092 
Q 1059 4325 1472 4325 
Q 1981 4325 2253 3994 
Q 2459 3747 2459 3466 
Q 2459 3003 1878 2509 
Q 2269 2356 2469 2072 
Q 2669 1788 2669 1403 
Q 2669 853 2319 450 
Q 1863 -75 997 -75 
Q 569 -75 414 31 
Q 259 138 259 259 
Q 259 350 332 419 
Q 406 488 509 488 
Q 588 488 669 463 
Q 722 447 909 348 
Q 1097 250 1169 231 
Q 1284 197 1416 197 
Q 1734 197 1970 444 
Q 2206 691 2206 1028 
Q 2206 1275 2097 1509 
Q 2016 1684 1919 1775 
Q 1784 1900 1550 2001 
Q 1316 2103 1072 2103 
L 972 2103 
L 972 2197 
Q 1219 2228 1467 2375 
Q 1716 2522 1828 2728 
Q 1941 2934 1941 3181 
Q 1941 3503 1739 3701 
Q 1538 3900 1238 3900 
Q 753 3900 428 3381 
L 325 3431 
z
" transform="scale(0.015625)"/>
       </defs>
       <use xlink:href="#TimesNewRomanPSMT-33"/>
      </g>
     </g>
    </g>
   </g>
   <g id="matplotlib.axis_2">
    <g id="ytick_1">
     <g id="line2d_5">
      <path d="M 144.45 230.976 
L 805.95 230.976 
" clip-path="url(#p3fa4ce76cb)" style="fill: none; stroke-dasharray: 2,2; stroke-dashoffset: 0; stroke: #808080"/>
     </g>
     <g id="line2d_6">
      <defs>
       <path id="m5506d7ac36" d="M 0 0 
L -20 0 
" style="stroke: #000000; stroke-width: 5"/>
      </defs>
      <g>
       <use xlink:href="#m5506d7ac36" x="144.45" y="230.976" style="stroke: #000000; stroke-width: 5"/>
      </g>
     </g>
     <g id="text_5">
      <!-- 0.05 -->
      <g transform="translate(7.2 253.543187) scale(0.65 -0.65)">
       <defs>
        <path id="TimesNewRomanPSMT-2e" d="M 800 606 
Q 947 606 1047 504 
Q 1147 403 1147 259 
Q 1147 116 1045 14 
Q 944 -88 800 -88 
Q 656 -88 554 14 
Q 453 116 453 259 
Q 453 406 554 506 
Q 656 606 800 606 
z
" transform="scale(0.015625)"/>
        <path id="TimesNewRomanPSMT-35" d="M 2778 4238 
L 2534 3706 
L 1259 3706 
L 981 3138 
Q 1809 3016 2294 2522 
Q 2709 2097 2709 1522 
Q 2709 1188 2573 903 
Q 2438 619 2231 419 
Q 2025 219 1772 97 
Q 1413 -75 1034 -75 
Q 653 -75 479 54 
Q 306 184 306 341 
Q 306 428 378 495 
Q 450 563 559 563 
Q 641 563 702 538 
Q 763 513 909 409 
Q 1144 247 1384 247 
Q 1750 247 2026 523 
Q 2303 800 2303 1197 
Q 2303 1581 2056 1914 
Q 1809 2247 1375 2428 
Q 1034 2569 447 2591 
L 1259 4238 
L 2778 4238 
z
" transform="scale(0.015625)"/>
       </defs>
       <use xlink:href="#TimesNewRomanPSMT-30"/>
       <use xlink:href="#TimesNewRomanPSMT-2e" x="50"/>
       <use xlink:href="#TimesNewRomanPSMT-30" x="75"/>
       <use xlink:href="#TimesNewRomanPSMT-35" x="125"/>
      </g>
     </g>
    </g>
    <g id="ytick_2">
     <g id="line2d_7">
      <path d="M 144.45 44.496 
L 805.95 44.496 
" clip-path="url(#p3fa4ce76cb)" style="fill: none; stroke-dasharray: 2,2; stroke-dashoffset: 0; stroke: #808080"/>
     </g>
     <g id="line2d_8">
      <g>
       <use xlink:href="#m5506d7ac36" x="144.45" y="44.496" style="stroke: #000000; stroke-width: 5"/>
      </g>
     </g>
     <g id="text_6">
      <!-- 0.10 -->
      <g transform="translate(7.2 67.063187) scale(0.65 -0.65)">
       <use xlink:href="#TimesNewRomanPSMT-30"/>
       <use xlink:href="#TimesNewRomanPSMT-2e" x="50"/>
       <use xlink:href="#TimesNewRomanPSMT-31" x="75"/>
       <use xlink:href="#TimesNewRomanPSMT-30" x="125"/>
      </g>
     </g>
    </g>
    <g id="ytick_3">
     <g id="line2d_9">
      <defs>
       <path id="mee18b85616" d="M 0 0 
L -10 0 
" style="stroke: #000000; stroke-width: 3"/>
      </defs>
      <g>
       <use xlink:href="#mee18b85616" x="144.45" y="324.216" style="stroke: #000000; stroke-width: 3"/>
      </g>
     </g>
    </g>
    <g id="ytick_4">
     <g id="line2d_10">
      <g>
       <use xlink:href="#mee18b85616" x="144.45" y="277.596" style="stroke: #000000; stroke-width: 3"/>
      </g>
     </g>
    </g>
    <g id="ytick_5">
     <g id="line2d_11">
      <g>
       <use xlink:href="#mee18b85616" x="144.45" y="184.356" style="stroke: #000000; stroke-width: 3"/>
      </g>
     </g>
    </g>
    <g id="ytick_6">
     <g id="line2d_12">
      <g>
       <use xlink:href="#mee18b85616" x="144.45" y="137.736" style="stroke: #000000; stroke-width: 3"/>
      </g>
     </g>
    </g>
    <g id="ytick_7">
     <g id="line2d_13">
      <g>
       <use xlink:href="#mee18b85616" x="144.45" y="91.116" style="stroke: #000000; stroke-width: 3"/>
      </g>
     </g>
    </g>
   </g>
   <g id="line2d_14">
    <path d="M 174.518182 296.04975 
L 368.177658 280.873969 
L 561.837134 131.284125 
L 775.881818 53.23725 
" clip-path="url(#p3fa4ce76cb)" style="fill: none; stroke-dasharray: 15,9; stroke-dashoffset: 0; stroke: #000000; stroke-width: 3"/>
   </g>
   <g id="patch_3">
    <path d="M 144.45 342.864 
L 144.45 7.2 
" style="fill: none; stroke: #000000; stroke-width: 5; stroke-linejoin: miter; stroke-linecap: square"/>
   </g>
   <g id="patch_4">
    <path d="M 805.95 342.864 
L 805.95 7.2 
" style="fill: none; stroke: #000000; stroke-width: 5; stroke-linejoin: miter; stroke-linecap: square"/>
   </g>
   <g id="patch_5">
    <path d="M 144.45 342.864 
L 805.95 342.864 
" style="fill: none; stroke: #000000; stroke-width: 5; stroke-linejoin: miter; stroke-linecap: square"/>
   </g>
   <g id="patch_6">
    <path d="M 144.45 7.2 
L 805.95 7.2 
" style="fill: none; stroke: #000000; stroke-width: 5; stroke-linejoin: miter; stroke-linecap: square"/>
   </g>
  </g>
 </g>
 <defs>
  <clipPath id="p3fa4ce76cb">
   <rect x="144.45" y="7.2" width="661.5" height="335.664"/>
  </clipPath>
 </defs>
</svg>
