<?xml version="1.0" encoding="utf-8" standalone="no"?>
<!DOCTYPE svg PUBLIC "-//W3C//DTD SVG 1.1//EN"
  "http://www.w3.org/Graphics/SVG/1.1/DTD/svg11.dtd">
<svg xmlns:xlink="http://www.w3.org/1999/xlink" width="753.352513pt" height="264.711597pt" viewBox="0 0 753.352513 264.711597" xmlns="http://www.w3.org/2000/svg" version="1.1">
 <metadata>
  <rdf:RDF xmlns:dc="http://purl.org/dc/elements/1.1/" xmlns:cc="http://creativecommons.org/ns#" xmlns:rdf="http://www.w3.org/1999/02/22-rdf-syntax-ns#">
   <cc:Work>
    <dc:type rdf:resource="http://purl.org/dc/dcmitype/StillImage"/>
    <dc:date>2024-05-19T17:45:50.762054</dc:date>
    <dc:format>image/svg+xml</dc:format>
    <dc:creator>
     <cc:Agent>
      <dc:title>Matplotlib v3.7.5, https://matplotlib.org/</dc:title>
     </cc:Agent>
    </dc:creator>
   </cc:Work>
  </rdf:RDF>
 </metadata>
 <defs>
  <style type="text/css">*{stroke-linejoin: round; stroke-linecap: butt}</style>
 </defs>
 <g id="figure_1">
  <g id="patch_1">
   <path d="M 0 264.711597 
L 753.352513 264.711597 
L 753.352513 0 
L 0 0 
z
" style="fill: #ffffff"/>
  </g>
  <g id="axes_1">
   <g id="line2d_1">
    <path d="M 87.925722 44.2832 
L 741.517113 44.2832 
" clip-path="url(#p43e45e61fe)" style="fill: none; stroke: #000000; stroke-width: 2; stroke-linecap: square"/>
   </g>
   <g id="line2d_2">
    <path d="M 87.925722 90.637199 
L 741.517113 90.637199 
" clip-path="url(#p43e45e61fe)" style="fill: none; stroke: #000000; stroke-width: 2; stroke-linecap: square"/>
   </g>
   <g id="line2d_3">
    <path d="M 87.925722 136.991198 
L 741.517113 136.991198 
" clip-path="url(#p43e45e61fe)" style="fill: none; stroke: #000000; stroke-width: 2; stroke-linecap: square"/>
   </g>
   <g id="line2d_4">
    <path d="M 87.925722 183.345198 
L 741.517113 183.345198 
" clip-path="url(#p43e45e61fe)" style="fill: none; stroke: #000000; stroke-width: 2; stroke-linecap: square"/>
   </g>
   <g id="line2d_5">
    <path d="M 97.196522 234.334597 
L 101.831922 225.063797 
" clip-path="url(#p43e45e61fe)" style="fill: none; stroke: #778899; stroke-width: 1.5; stroke-linecap: square"/>
   </g>
   <g id="line2d_6">
    <path d="M 87.925722 228.192692 
L 741.517113 228.192692 
" clip-path="url(#p43e45e61fe)" style="fill: none; stroke: #778899; stroke-width: 2; stroke-linecap: square"/>
   </g>
   <g id="line2d_7">
    <path d="M 87.925722 231.205702 
L 741.517113 231.205702 
" clip-path="url(#p43e45e61fe)" style="fill: none; stroke: #778899; stroke-width: 2; stroke-linecap: square"/>
   </g>
   <g id="patch_2">
    <path d="M 570.470855 219.153662 
L 582.522895 219.153662 
L 576.496875 227.845037 
z
" clip-path="url(#p43e45e61fe)" style="fill: #778899"/>
   </g>
   <g id="patch_3">
    <path d="M 616.824855 219.153662 
L 628.876895 219.153662 
L 622.850875 227.845037 
z
" clip-path="url(#p43e45e61fe)" style="fill: #778899"/>
   </g>
   <g id="patch_4">
    <path d="M 663.178854 219.153662 
L 675.230894 219.153662 
L 669.204874 227.845037 
z
" clip-path="url(#p43e45e61fe)" style="fill: #778899"/>
   </g>
   <g id="patch_5">
    <path d="M 709.532853 219.153662 
L 721.584893 219.153662 
L 715.558873 227.845037 
z
" clip-path="url(#p43e45e61fe)" style="fill: #778899"/>
   </g>
   <g id="patch_6">
    <path d="M 83.290322 21.1062 
L -1075.559663 21.1062 
L -1075.559663 299.230196 
L 83.290322 299.230196 
z
" clip-path="url(#p43e45e61fe)" style="fill: #ffffff; stroke: #ffffff; stroke-width: 1.5; stroke-linejoin: miter"/>
   </g>
   <g id="line2d_8">
    <path d="M 578.00338 44.2832 
L 578.00338 219.153662 
" clip-path="url(#p43e45e61fe)" style="fill: none; stroke: #778899; stroke-width: 2; stroke-linecap: square"/>
   </g>
   <g id="line2d_9">
    <path d="M 574.99037 44.2832 
L 574.99037 219.153662 
" clip-path="url(#p43e45e61fe)" style="fill: none; stroke: #778899; stroke-width: 2; stroke-linecap: square"/>
   </g>
   <g id="line2d_10">
    <path d="M 624.35738 90.637199 
L 624.35738 219.153662 
" clip-path="url(#p43e45e61fe)" style="fill: none; stroke: #778899; stroke-width: 2; stroke-linecap: square"/>
   </g>
   <g id="line2d_11">
    <path d="M 621.34437 90.637199 
L 621.34437 219.153662 
" clip-path="url(#p43e45e61fe)" style="fill: none; stroke: #778899; stroke-width: 2; stroke-linecap: square"/>
   </g>
   <g id="line2d_12">
    <path d="M 670.711379 136.991198 
L 670.711379 219.153662 
" clip-path="url(#p43e45e61fe)" style="fill: none; stroke: #778899; stroke-width: 2; stroke-linecap: square"/>
   </g>
   <g id="line2d_13">
    <path d="M 667.698369 136.991198 
L 667.698369 219.153662 
" clip-path="url(#p43e45e61fe)" style="fill: none; stroke: #778899; stroke-width: 2; stroke-linecap: square"/>
   </g>
   <g id="line2d_14">
    <path d="M 717.065378 183.345198 
L 717.065378 219.153662 
" clip-path="url(#p43e45e61fe)" style="fill: none; stroke: #778899; stroke-width: 2; stroke-linecap: square"/>
   </g>
   <g id="line2d_15">
    <path d="M 714.052368 183.345198 
L 714.052368 219.153662 
" clip-path="url(#p43e45e61fe)" style="fill: none; stroke: #778899; stroke-width: 2; stroke-linecap: square"/>
   </g>
   <g id="patch_7">
    <path d="M 150.271851 67.460199 
L 168.349911 67.460199 
L 168.349911 21.1062 
L 150.271851 21.1062 
z
" clip-path="url(#p43e45e61fe)" style="fill: #a8a8a8; opacity: 0.6"/>
   </g>
   <g id="patch_8">
    <path d="M 150.271851 113.814199 
L 168.349911 113.814199 
L 168.349911 67.460199 
L 150.271851 67.460199 
z
" clip-path="url(#p43e45e61fe)" style="fill: #a8a8a8; opacity: 0.6"/>
   </g>
   <g id="patch_9">
    <path d="M 150.271851 160.168198 
L 168.349911 160.168198 
L 168.349911 113.814199 
L 150.271851 113.814199 
z
" clip-path="url(#p43e45e61fe)" style="fill: #a8a8a8; opacity: 0.6"/>
   </g>
   <g id="patch_10">
    <path d="M 150.271851 206.522197 
L 168.349911 206.522197 
L 168.349911 160.168198 
L 150.271851 160.168198 
z
" clip-path="url(#p43e45e61fe)" style="fill: #a8a8a8; opacity: 0.6"/>
   </g>
   <g id="patch_11">
    <path d="M 335.687848 67.460199 
L 353.765908 67.460199 
L 353.765908 21.1062 
L 335.687848 21.1062 
z
" clip-path="url(#p43e45e61fe)" style="fill: #a8a8a8; opacity: 0.6"/>
   </g>
   <g id="patch_12">
    <path d="M 335.687848 113.814199 
L 353.765908 113.814199 
L 353.765908 67.460199 
L 335.687848 67.460199 
z
" clip-path="url(#p43e45e61fe)" style="fill: #a8a8a8; opacity: 0.6"/>
   </g>
   <g id="patch_13">
    <path d="M 335.687848 160.168198 
L 353.765908 160.168198 
L 353.765908 113.814199 
L 335.687848 113.814199 
z
" clip-path="url(#p43e45e61fe)" style="fill: #a8a8a8; opacity: 0.6"/>
   </g>
   <g id="patch_14">
    <path d="M 335.687848 206.522197 
L 353.765908 206.522197 
L 353.765908 160.168198 
L 335.687848 160.168198 
z
" clip-path="url(#p43e45e61fe)" style="fill: #a8a8a8; opacity: 0.6"/>
   </g>
   <g id="patch_15">
    <path d="M 521.103846 67.460199 
L 539.181906 67.460199 
L 539.181906 21.1062 
L 521.103846 21.1062 
z
" clip-path="url(#p43e45e61fe)" style="fill: #a8a8a8; opacity: 0.6"/>
   </g>
   <g id="patch_16">
    <path d="M 521.103846 113.814199 
L 539.181906 113.814199 
L 539.181906 67.460199 
L 521.103846 67.460199 
z
" clip-path="url(#p43e45e61fe)" style="fill: #a8a8a8; opacity: 0.6"/>
   </g>
   <g id="patch_17">
    <path d="M 521.103846 160.168198 
L 539.181906 160.168198 
L 539.181906 113.814199 
L 521.103846 113.814199 
z
" clip-path="url(#p43e45e61fe)" style="fill: #a8a8a8; opacity: 0.6"/>
   </g>
   <g id="patch_18">
    <path d="M 521.103846 206.522197 
L 539.181906 206.522197 
L 539.181906 160.168198 
L 521.103846 160.168198 
z
" clip-path="url(#p43e45e61fe)" style="fill: #a8a8a8; opacity: 0.6"/>
   </g>
   <g id="patch_19">
    <path d="M 97.891832 59.348249 
L 128.021931 59.348249 
L 128.021931 29.21815 
L 97.891832 29.21815 
z
" clip-path="url(#p43e45e61fe)" style="fill: #fa4d56; stroke: #fa4d56; stroke-width: 1.5; stroke-linejoin: miter"/>
   </g>
   <g id="patch_20">
    <path d="M 97.891832 105.702249 
L 128.021931 105.702249 
L 128.021931 75.572149 
L 97.891832 75.572149 
z
" clip-path="url(#p43e45e61fe)" style="fill: #fa4d56; stroke: #fa4d56; stroke-width: 1.5; stroke-linejoin: miter"/>
   </g>
   <g id="patch_21">
    <path d="M 97.891832 152.056248 
L 128.021931 152.056248 
L 128.021931 121.926148 
L 97.891832 121.926148 
z
" clip-path="url(#p43e45e61fe)" style="fill: #fa4d56; stroke: #fa4d56; stroke-width: 1.5; stroke-linejoin: miter"/>
   </g>
   <g id="patch_22">
    <path d="M 97.891832 198.410247 
L 128.021931 198.410247 
L 128.021931 168.280148 
L 97.891832 168.280148 
z
" clip-path="url(#p43e45e61fe)" style="fill: #fa4d56; stroke: #fa4d56; stroke-width: 1.5; stroke-linejoin: miter"/>
   </g>
   <g id="patch_23">
    <path d="M 198.48001 198.410247 
L 259.203749 198.410247 
L 259.203749 29.21815 
L 198.48001 29.21815 
z
" clip-path="url(#p43e45e61fe)" style="fill: #9f1853; stroke: #9f1853; stroke-width: 1.5; stroke-linejoin: miter"/>
   </g>
   <g id="patch_24">
    <path d="M 283.307829 59.348249 
L 313.437929 59.348249 
L 313.437929 29.21815 
L 283.307829 29.21815 
z
" clip-path="url(#p43e45e61fe)" style="fill: #9f1853; stroke: #9f1853; stroke-width: 1.5; stroke-linejoin: miter"/>
   </g>
   <g id="patch_25">
    <path d="M 283.307829 105.702249 
L 313.437929 105.702249 
L 313.437929 75.572149 
L 283.307829 75.572149 
z
" clip-path="url(#p43e45e61fe)" style="fill: #9f1853; stroke: #9f1853; stroke-width: 1.5; stroke-linejoin: miter"/>
   </g>
   <g id="patch_26">
    <path d="M 283.307829 152.056248 
L 313.437929 152.056248 
L 313.437929 121.926148 
L 283.307829 121.926148 
z
" clip-path="url(#p43e45e61fe)" style="fill: #9f1853; stroke: #9f1853; stroke-width: 1.5; stroke-linejoin: miter"/>
   </g>
   <g id="patch_27">
    <path d="M 283.307829 198.410247 
L 313.437929 198.410247 
L 313.437929 168.280148 
L 283.307829 168.280148 
z
" clip-path="url(#p43e45e61fe)" style="fill: #9f1853; stroke: #9f1853; stroke-width: 1.5; stroke-linejoin: miter"/>
   </g>
   <g id="patch_28">
    <path d="M 383.896008 198.410247 
L 444.619747 198.410247 
L 444.619747 29.21815 
L 383.896008 29.21815 
z
" clip-path="url(#p43e45e61fe)" style="fill: #9f1853; stroke: #9f1853; stroke-width: 1.5; stroke-linejoin: miter"/>
   </g>
   <g id="patch_29">
    <path d="M 468.723827 59.348249 
L 498.853926 59.348249 
L 498.853926 29.21815 
L 468.723827 29.21815 
z
" clip-path="url(#p43e45e61fe)" style="fill: #9f1853; stroke: #9f1853; stroke-width: 1.5; stroke-linejoin: miter"/>
   </g>
   <g id="patch_30">
    <path d="M 468.723827 105.702249 
L 498.853926 105.702249 
L 498.853926 75.572149 
L 468.723827 75.572149 
z
" clip-path="url(#p43e45e61fe)" style="fill: #9f1853; stroke: #9f1853; stroke-width: 1.5; stroke-linejoin: miter"/>
   </g>
   <g id="patch_31">
    <path d="M 468.723827 152.056248 
L 498.853926 152.056248 
L 498.853926 121.926148 
L 468.723827 121.926148 
z
" clip-path="url(#p43e45e61fe)" style="fill: #9f1853; stroke: #9f1853; stroke-width: 1.5; stroke-linejoin: miter"/>
   </g>
   <g id="patch_32">
    <path d="M 468.723827 198.410247 
L 498.853926 198.410247 
L 498.853926 168.280148 
L 468.723827 168.280148 
z
" clip-path="url(#p43e45e61fe)" style="fill: #9f1853; stroke: #9f1853; stroke-width: 1.5; stroke-linejoin: miter"/>
   </g>
   <g id="patch_33">
    <path d="M 561.431825 59.348249 
L 591.561925 59.348249 
L 591.561925 29.21815 
L 561.431825 29.21815 
z
" clip-path="url(#p43e45e61fe)" style="fill: #a8a8a8; stroke: #a8a8a8; stroke-width: 1.5; stroke-linejoin: miter"/>
   </g>
   <g id="patch_34">
    <path d="M 587.04241 48.802714 
C 587.04241 46.006937 585.930607 43.322808 583.953694 41.345895 
C 581.976781 39.368982 579.292652 38.25718 576.496875 38.25718 
C 573.701098 38.25718 571.016969 39.368982 569.040056 41.345895 
C 567.063143 43.322808 565.95134 46.006937 565.95134 48.802714 
" clip-path="url(#p43e45e61fe)" style="fill: none; stroke: #000000; stroke-width: 2; stroke-linejoin: miter"/>
   </g>
   <g id="line2d_16">
    <path d="M 576.496875 48.802714 
L 587.04241 38.25718 
" clip-path="url(#p43e45e61fe)" style="fill: none; stroke: #000000; stroke-width: 2; stroke-linecap: square"/>
   </g>
   <g id="patch_35">
    <path d="M 607.785825 105.702249 
L 637.915924 105.702249 
L 637.915924 75.572149 
L 607.785825 75.572149 
z
" clip-path="url(#p43e45e61fe)" style="fill: #a8a8a8; stroke: #a8a8a8; stroke-width: 1.5; stroke-linejoin: miter"/>
   </g>
   <g id="patch_36">
    <path d="M 633.396409 95.156714 
C 633.396409 92.360937 632.284607 89.676808 630.307694 87.699895 
C 628.330781 85.722982 625.646652 84.611179 622.850875 84.611179 
C 620.055098 84.611179 617.370968 85.722982 615.394055 87.699895 
C 613.417142 89.676808 612.30534 92.360937 612.30534 95.156714 
" clip-path="url(#p43e45e61fe)" style="fill: none; stroke: #000000; stroke-width: 2; stroke-linejoin: miter"/>
   </g>
   <g id="line2d_17">
    <path d="M 622.850875 95.156714 
L 633.396409 84.611179 
" clip-path="url(#p43e45e61fe)" style="fill: none; stroke: #000000; stroke-width: 2; stroke-linecap: square"/>
   </g>
   <g id="patch_37">
    <path d="M 654.139824 152.056248 
L 684.269924 152.056248 
L 684.269924 121.926148 
L 654.139824 121.926148 
z
" clip-path="url(#p43e45e61fe)" style="fill: #a8a8a8; stroke: #a8a8a8; stroke-width: 1.5; stroke-linejoin: miter"/>
   </g>
   <g id="patch_38">
    <path d="M 679.750409 141.510713 
C 679.750409 138.714936 678.638606 136.030807 676.661693 134.053894 
C 674.68478 132.076981 672.000651 130.965178 669.204874 130.965178 
C 666.409097 130.965178 663.724968 132.076981 661.748055 134.053894 
C 659.771142 136.030807 658.659339 138.714936 658.659339 141.510713 
" clip-path="url(#p43e45e61fe)" style="fill: none; stroke: #000000; stroke-width: 2; stroke-linejoin: miter"/>
   </g>
   <g id="line2d_18">
    <path d="M 669.204874 141.510713 
L 679.750409 130.965178 
" clip-path="url(#p43e45e61fe)" style="fill: none; stroke: #000000; stroke-width: 2; stroke-linecap: square"/>
   </g>
   <g id="patch_39">
    <path d="M 700.493824 198.410247 
L 730.623923 198.410247 
L 730.623923 168.280148 
L 700.493824 168.280148 
z
" clip-path="url(#p43e45e61fe)" style="fill: #a8a8a8; stroke: #a8a8a8; stroke-width: 1.5; stroke-linejoin: miter"/>
   </g>
   <g id="patch_40">
    <path d="M 726.104408 187.864713 
C 726.104408 185.068936 724.992606 182.384806 723.015693 180.407893 
C 721.03878 178.43098 718.35465 177.319178 715.558873 177.319178 
C 712.763096 177.319178 710.078967 178.43098 708.102054 180.407893 
C 706.125141 182.384806 705.013338 185.068936 705.013338 187.864713 
" clip-path="url(#p43e45e61fe)" style="fill: none; stroke: #000000; stroke-width: 2; stroke-linejoin: miter"/>
   </g>
   <g id="line2d_19">
    <path d="M 715.558873 187.864713 
L 726.104408 177.319178 
" clip-path="url(#p43e45e61fe)" style="fill: none; stroke: #000000; stroke-width: 2; stroke-linecap: square"/>
   </g>
   <g id="text_1">
    <g clip-path="url(#p43e45e61fe)">
     <!-- ${q}_{0}$ -->
     <g transform="translate(60.617422 48.734176) scale(0.1625 -0.1625)">
      <defs>
       <path id="DejaVuSans-Oblique-71" d="M 2669 525 
Q 2438 222 2123 65 
Q 1809 -91 1428 -91 
Q 897 -91 595 267 
Q 294 625 294 1253 
Q 294 1759 480 2231 
Q 666 2703 1013 3078 
Q 1238 3322 1530 3453 
Q 1822 3584 2144 3584 
Q 2531 3584 2781 3431 
Q 3031 3278 3144 2969 
L 3244 3494 
L 3822 3494 
L 2888 -1319 
L 2309 -1319 
L 2669 525 
z
M 891 1338 
Q 891 875 1084 633 
Q 1278 391 1644 391 
Q 2188 391 2572 911 
Q 2956 1431 2956 2175 
Q 2956 2625 2757 2864 
Q 2559 3103 2188 3103 
Q 1916 3103 1684 2976 
Q 1453 2850 1281 2606 
Q 1100 2350 995 2006 
Q 891 1663 891 1338 
z
" transform="scale(0.015625)"/>
       <path id="DejaVuSans-30" d="M 2034 4250 
Q 1547 4250 1301 3770 
Q 1056 3291 1056 2328 
Q 1056 1369 1301 889 
Q 1547 409 2034 409 
Q 2525 409 2770 889 
Q 3016 1369 3016 2328 
Q 3016 3291 2770 3770 
Q 2525 4250 2034 4250 
z
M 2034 4750 
Q 2819 4750 3233 4129 
Q 3647 3509 3647 2328 
Q 3647 1150 3233 529 
Q 2819 -91 2034 -91 
Q 1250 -91 836 529 
Q 422 1150 422 2328 
Q 422 3509 836 4129 
Q 1250 4750 2034 4750 
z
" transform="scale(0.015625)"/>
      </defs>
      <use xlink:href="#DejaVuSans-Oblique-71"/>
      <use xlink:href="#DejaVuSans-30" transform="translate(63.476562 -16.40625) scale(0.7)"/>
     </g>
    </g>
   </g>
   <g id="text_2">
    <g clip-path="url(#p43e45e61fe)">
     <!-- ${q}_{1}$ -->
     <g transform="translate(60.617422 95.088175) scale(0.1625 -0.1625)">
      <defs>
       <path id="DejaVuSans-31" d="M 794 531 
L 1825 531 
L 1825 4091 
L 703 3866 
L 703 4441 
L 1819 4666 
L 2450 4666 
L 2450 531 
L 3481 531 
L 3481 0 
L 794 0 
L 794 531 
z
" transform="scale(0.015625)"/>
      </defs>
      <use xlink:href="#DejaVuSans-Oblique-71"/>
      <use xlink:href="#DejaVuSans-31" transform="translate(63.476562 -16.40625) scale(0.7)"/>
     </g>
    </g>
   </g>
   <g id="text_3">
    <g clip-path="url(#p43e45e61fe)">
     <!-- ${q}_{2}$ -->
     <g transform="translate(60.617422 141.442175) scale(0.1625 -0.1625)">
      <defs>
       <path id="DejaVuSans-32" d="M 1228 531 
L 3431 531 
L 3431 0 
L 469 0 
L 469 531 
Q 828 903 1448 1529 
Q 2069 2156 2228 2338 
Q 2531 2678 2651 2914 
Q 2772 3150 2772 3378 
Q 2772 3750 2511 3984 
Q 2250 4219 1831 4219 
Q 1534 4219 1204 4116 
Q 875 4013 500 3803 
L 500 4441 
Q 881 4594 1212 4672 
Q 1544 4750 1819 4750 
Q 2544 4750 2975 4387 
Q 3406 4025 3406 3419 
Q 3406 3131 3298 2873 
Q 3191 2616 2906 2266 
Q 2828 2175 2409 1742 
Q 1991 1309 1228 531 
z
" transform="scale(0.015625)"/>
      </defs>
      <use xlink:href="#DejaVuSans-Oblique-71"/>
      <use xlink:href="#DejaVuSans-32" transform="translate(63.476562 -16.40625) scale(0.7)"/>
     </g>
    </g>
   </g>
   <g id="text_4">
    <g clip-path="url(#p43e45e61fe)">
     <!-- ${q}_{3}$ -->
     <g transform="translate(60.617422 187.796174) scale(0.1625 -0.1625)">
      <defs>
       <path id="DejaVuSans-33" d="M 2597 2516 
Q 3050 2419 3304 2112 
Q 3559 1806 3559 1356 
Q 3559 666 3084 287 
Q 2609 -91 1734 -91 
Q 1441 -91 1130 -33 
Q 819 25 488 141 
L 488 750 
Q 750 597 1062 519 
Q 1375 441 1716 441 
Q 2309 441 2620 675 
Q 2931 909 2931 1356 
Q 2931 1769 2642 2001 
Q 2353 2234 1838 2234 
L 1294 2234 
L 1294 2753 
L 1863 2753 
Q 2328 2753 2575 2939 
Q 2822 3125 2822 3475 
Q 2822 3834 2567 4026 
Q 2313 4219 1838 4219 
Q 1578 4219 1281 4162 
Q 984 4106 628 3988 
L 628 4550 
Q 988 4650 1302 4700 
Q 1616 4750 1894 4750 
Q 2613 4750 3031 4423 
Q 3450 4097 3450 3541 
Q 3450 3153 3228 2886 
Q 3006 2619 2597 2516 
z
" transform="scale(0.015625)"/>
      </defs>
      <use xlink:href="#DejaVuSans-Oblique-71"/>
      <use xlink:href="#DejaVuSans-33" transform="translate(63.476562 -16.40625) scale(0.7)"/>
     </g>
    </g>
   </g>
   <g id="text_5">
    <g clip-path="url(#p43e45e61fe)">
     <!-- 4 -->
     <g transform="translate(92.561122 222.900922) scale(0.104 -0.104)">
      <defs>
       <path id="DejaVuSans-34" d="M 2419 4116 
L 825 1625 
L 2419 1625 
L 2419 4116 
z
M 2253 4666 
L 3047 4666 
L 3047 1625 
L 3713 1625 
L 3713 1100 
L 3047 1100 
L 3047 0 
L 2419 0 
L 2419 1100 
L 313 1100 
L 313 1709 
L 2253 4666 
z
" transform="scale(0.015625)"/>
      </defs>
      <use xlink:href="#DejaVuSans-34"/>
     </g>
    </g>
   </g>
   <g id="text_6">
    <g clip-path="url(#p43e45e61fe)">
     <!-- meas -->
     <g transform="translate(34.404141 234.183181) scale(0.1625 -0.1625)">
      <defs>
       <path id="DejaVuSans-6d" d="M 3328 2828 
Q 3544 3216 3844 3400 
Q 4144 3584 4550 3584 
Q 5097 3584 5394 3201 
Q 5691 2819 5691 2113 
L 5691 0 
L 5113 0 
L 5113 2094 
Q 5113 2597 4934 2840 
Q 4756 3084 4391 3084 
Q 3944 3084 3684 2787 
Q 3425 2491 3425 1978 
L 3425 0 
L 2847 0 
L 2847 2094 
Q 2847 2600 2669 2842 
Q 2491 3084 2119 3084 
Q 1678 3084 1418 2786 
Q 1159 2488 1159 1978 
L 1159 0 
L 581 0 
L 581 3500 
L 1159 3500 
L 1159 2956 
Q 1356 3278 1631 3431 
Q 1906 3584 2284 3584 
Q 2666 3584 2933 3390 
Q 3200 3197 3328 2828 
z
" transform="scale(0.015625)"/>
       <path id="DejaVuSans-65" d="M 3597 1894 
L 3597 1613 
L 953 1613 
Q 991 1019 1311 708 
Q 1631 397 2203 397 
Q 2534 397 2845 478 
Q 3156 559 3463 722 
L 3463 178 
Q 3153 47 2828 -22 
Q 2503 -91 2169 -91 
Q 1331 -91 842 396 
Q 353 884 353 1716 
Q 353 2575 817 3079 
Q 1281 3584 2069 3584 
Q 2775 3584 3186 3129 
Q 3597 2675 3597 1894 
z
M 3022 2063 
Q 3016 2534 2758 2815 
Q 2500 3097 2075 3097 
Q 1594 3097 1305 2825 
Q 1016 2553 972 2059 
L 3022 2063 
z
" transform="scale(0.015625)"/>
       <path id="DejaVuSans-61" d="M 2194 1759 
Q 1497 1759 1228 1600 
Q 959 1441 959 1056 
Q 959 750 1161 570 
Q 1363 391 1709 391 
Q 2188 391 2477 730 
Q 2766 1069 2766 1631 
L 2766 1759 
L 2194 1759 
z
M 3341 1997 
L 3341 0 
L 2766 0 
L 2766 531 
Q 2569 213 2275 61 
Q 1981 -91 1556 -91 
Q 1019 -91 701 211 
Q 384 513 384 1019 
Q 384 1609 779 1909 
Q 1175 2209 1959 2209 
L 2766 2209 
L 2766 2266 
Q 2766 2663 2505 2880 
Q 2244 3097 1772 3097 
Q 1472 3097 1187 3025 
Q 903 2953 641 2809 
L 641 3341 
Q 956 3463 1253 3523 
Q 1550 3584 1831 3584 
Q 2591 3584 2966 3190 
Q 3341 2797 3341 1997 
z
" transform="scale(0.015625)"/>
       <path id="DejaVuSans-73" d="M 2834 3397 
L 2834 2853 
Q 2591 2978 2328 3040 
Q 2066 3103 1784 3103 
Q 1356 3103 1142 2972 
Q 928 2841 928 2578 
Q 928 2378 1081 2264 
Q 1234 2150 1697 2047 
L 1894 2003 
Q 2506 1872 2764 1633 
Q 3022 1394 3022 966 
Q 3022 478 2636 193 
Q 2250 -91 1575 -91 
Q 1294 -91 989 -36 
Q 684 19 347 128 
L 347 722 
Q 666 556 975 473 
Q 1284 391 1588 391 
Q 1994 391 2212 530 
Q 2431 669 2431 922 
Q 2431 1156 2273 1281 
Q 2116 1406 1581 1522 
L 1381 1569 
Q 847 1681 609 1914 
Q 372 2147 372 2553 
Q 372 3047 722 3315 
Q 1072 3584 1716 3584 
Q 2034 3584 2315 3537 
Q 2597 3491 2834 3397 
z
" transform="scale(0.015625)"/>
      </defs>
      <use xlink:href="#DejaVuSans-6d"/>
      <use xlink:href="#DejaVuSans-65" x="97.412109"/>
      <use xlink:href="#DejaVuSans-61" x="158.935547"/>
      <use xlink:href="#DejaVuSans-73" x="220.214844"/>
     </g>
    </g>
   </g>
   <g id="text_7">
    <g clip-path="url(#p43e45e61fe)">
     <!-- H -->
     <g transform="translate(108.068678 47.870387) scale(0.13 -0.13)">
      <defs>
       <path id="DejaVuSans-48" d="M 628 4666 
L 1259 4666 
L 1259 2753 
L 3553 2753 
L 3553 4666 
L 4184 4666 
L 4184 0 
L 3553 0 
L 3553 2222 
L 1259 2222 
L 1259 0 
L 628 0 
L 628 4666 
z
" transform="scale(0.015625)"/>
      </defs>
      <use xlink:href="#DejaVuSans-48"/>
     </g>
    </g>
   </g>
   <g id="text_8">
    <g clip-path="url(#p43e45e61fe)">
     <!-- H -->
     <g transform="translate(108.068678 94.224386) scale(0.13 -0.13)">
      <use xlink:href="#DejaVuSans-48"/>
     </g>
    </g>
   </g>
   <g id="text_9">
    <g clip-path="url(#p43e45e61fe)">
     <!-- H -->
     <g transform="translate(108.068678 140.578386) scale(0.13 -0.13)">
      <use xlink:href="#DejaVuSans-48"/>
     </g>
    </g>
   </g>
   <g id="text_10">
    <g clip-path="url(#p43e45e61fe)">
     <!-- H -->
     <g transform="translate(108.068678 186.932385) scale(0.13 -0.13)">
      <use xlink:href="#DejaVuSans-48"/>
     </g>
    </g>
   </g>
   <g id="line2d_20">
    <path d="M 159.310881 21.1062 
L 159.310881 67.460199 
" clip-path="url(#p43e45e61fe)" style="fill: none; stroke-dasharray: 3.7,1.6; stroke-dashoffset: 0; stroke: #000000"/>
   </g>
   <g id="line2d_21">
    <path d="M 159.310881 67.460199 
L 159.310881 113.814199 
" clip-path="url(#p43e45e61fe)" style="fill: none; stroke-dasharray: 3.7,1.6; stroke-dashoffset: 0; stroke: #000000"/>
   </g>
   <g id="line2d_22">
    <path d="M 159.310881 113.814199 
L 159.310881 160.168198 
" clip-path="url(#p43e45e61fe)" style="fill: none; stroke-dasharray: 3.7,1.6; stroke-dashoffset: 0; stroke: #000000"/>
   </g>
   <g id="line2d_23">
    <path d="M 159.310881 160.168198 
L 159.310881 206.522197 
" clip-path="url(#p43e45e61fe)" style="fill: none; stroke-dasharray: 3.7,1.6; stroke-dashoffset: 0; stroke: #000000"/>
   </g>
   <g id="text_11">
    <g clip-path="url(#p43e45e61fe)">
     <!-- 0 -->
     <g style="fill: #ffffff" transform="translate(201.72479 47.870387) scale(0.13 -0.13)">
      <use xlink:href="#DejaVuSans-30"/>
     </g>
    </g>
   </g>
   <g id="text_12">
    <g clip-path="url(#p43e45e61fe)">
     <!-- 1 -->
     <g style="fill: #ffffff" transform="translate(201.72479 94.224386) scale(0.13 -0.13)">
      <use xlink:href="#DejaVuSans-31"/>
     </g>
    </g>
   </g>
   <g id="text_13">
    <g clip-path="url(#p43e45e61fe)">
     <!-- 2 -->
     <g style="fill: #ffffff" transform="translate(201.72479 140.578386) scale(0.13 -0.13)">
      <use xlink:href="#DejaVuSans-32"/>
     </g>
    </g>
   </g>
   <g id="text_14">
    <g clip-path="url(#p43e45e61fe)">
     <!-- 3 -->
     <g style="fill: #ffffff" transform="translate(201.72479 186.932385) scale(0.13 -0.13)">
      <use xlink:href="#DejaVuSans-33"/>
     </g>
    </g>
   </g>
   <g id="text_15">
    <g clip-path="url(#p43e45e61fe)">
     <!-- Unitary -->
     <g style="fill: #ffffff" transform="translate(210.207695 117.401386) scale(0.13 -0.13)">
      <defs>
       <path id="DejaVuSans-55" d="M 556 4666 
L 1191 4666 
L 1191 1831 
Q 1191 1081 1462 751 
Q 1734 422 2344 422 
Q 2950 422 3222 751 
Q 3494 1081 3494 1831 
L 3494 4666 
L 4128 4666 
L 4128 1753 
Q 4128 841 3676 375 
Q 3225 -91 2344 -91 
Q 1459 -91 1007 375 
Q 556 841 556 1753 
L 556 4666 
z
" transform="scale(0.015625)"/>
       <path id="DejaVuSans-6e" d="M 3513 2113 
L 3513 0 
L 2938 0 
L 2938 2094 
Q 2938 2591 2744 2837 
Q 2550 3084 2163 3084 
Q 1697 3084 1428 2787 
Q 1159 2491 1159 1978 
L 1159 0 
L 581 0 
L 581 3500 
L 1159 3500 
L 1159 2956 
Q 1366 3272 1645 3428 
Q 1925 3584 2291 3584 
Q 2894 3584 3203 3211 
Q 3513 2838 3513 2113 
z
" transform="scale(0.015625)"/>
       <path id="DejaVuSans-69" d="M 603 3500 
L 1178 3500 
L 1178 0 
L 603 0 
L 603 3500 
z
M 603 4863 
L 1178 4863 
L 1178 4134 
L 603 4134 
L 603 4863 
z
" transform="scale(0.015625)"/>
       <path id="DejaVuSans-74" d="M 1172 4494 
L 1172 3500 
L 2356 3500 
L 2356 3053 
L 1172 3053 
L 1172 1153 
Q 1172 725 1289 603 
Q 1406 481 1766 481 
L 2356 481 
L 2356 0 
L 1766 0 
Q 1100 0 847 248 
Q 594 497 594 1153 
L 594 3053 
L 172 3053 
L 172 3500 
L 594 3500 
L 594 4494 
L 1172 4494 
z
" transform="scale(0.015625)"/>
       <path id="DejaVuSans-72" d="M 2631 2963 
Q 2534 3019 2420 3045 
Q 2306 3072 2169 3072 
Q 1681 3072 1420 2755 
Q 1159 2438 1159 1844 
L 1159 0 
L 581 0 
L 581 3500 
L 1159 3500 
L 1159 2956 
Q 1341 3275 1631 3429 
Q 1922 3584 2338 3584 
Q 2397 3584 2469 3576 
Q 2541 3569 2628 3553 
L 2631 2963 
z
" transform="scale(0.015625)"/>
       <path id="DejaVuSans-79" d="M 2059 -325 
Q 1816 -950 1584 -1140 
Q 1353 -1331 966 -1331 
L 506 -1331 
L 506 -850 
L 844 -850 
Q 1081 -850 1212 -737 
Q 1344 -625 1503 -206 
L 1606 56 
L 191 3500 
L 800 3500 
L 1894 763 
L 2988 3500 
L 3597 3500 
L 2059 -325 
z
" transform="scale(0.015625)"/>
      </defs>
      <use xlink:href="#DejaVuSans-55"/>
      <use xlink:href="#DejaVuSans-6e" x="73.193359"/>
      <use xlink:href="#DejaVuSans-69" x="136.572266"/>
      <use xlink:href="#DejaVuSans-74" x="164.355469"/>
      <use xlink:href="#DejaVuSans-61" x="203.564453"/>
      <use xlink:href="#DejaVuSans-72" x="264.84375"/>
      <use xlink:href="#DejaVuSans-79" x="305.957031"/>
     </g>
    </g>
   </g>
   <g id="text_16">
    <g clip-path="url(#p43e45e61fe)">
     <!-- $\pi$/3 -->
     <g style="fill: #ffffff" transform="translate(292.052879 55.529729) scale(0.08 -0.08)">
      <defs>
       <path id="DejaVuSans-Oblique-3c0" d="M 584 3500 
L 3938 3500 
L 3825 2925 
L 3384 2925 
L 2966 775 
Q 2922 550 2981 450 
Q 3038 353 3209 353 
Q 3256 353 3325 363 
Q 3397 369 3419 372 
L 3338 -44 
Q 3222 -84 3103 -103 
Q 2981 -122 2866 -122 
Q 2491 -122 2388 81 
Q 2284 288 2391 838 
L 2797 2925 
L 1506 2925 
L 938 0 
L 350 0 
L 919 2925 
L 472 2925 
L 584 3500 
z
" transform="scale(0.015625)"/>
       <path id="DejaVuSans-2f" d="M 1625 4666 
L 2156 4666 
L 531 -594 
L 0 -594 
L 1625 4666 
z
" transform="scale(0.015625)"/>
      </defs>
      <use xlink:href="#DejaVuSans-Oblique-3c0" transform="translate(0 0.78125)"/>
      <use xlink:href="#DejaVuSans-2f" transform="translate(60.205078 0.78125)"/>
      <use xlink:href="#DejaVuSans-33" transform="translate(93.896484 0.78125)"/>
     </g>
    </g>
   </g>
   <g id="text_17">
    <g clip-path="url(#p43e45e61fe)">
     <!-- $\mathrm{R_X}$ -->
     <g style="fill: #ffffff" transform="translate(290.442879 43.350872) scale(0.13 -0.13)">
      <defs>
       <path id="DejaVuSans-52" d="M 2841 2188 
Q 3044 2119 3236 1894 
Q 3428 1669 3622 1275 
L 4263 0 
L 3584 0 
L 2988 1197 
Q 2756 1666 2539 1819 
Q 2322 1972 1947 1972 
L 1259 1972 
L 1259 0 
L 628 0 
L 628 4666 
L 2053 4666 
Q 2853 4666 3247 4331 
Q 3641 3997 3641 3322 
Q 3641 2881 3436 2590 
Q 3231 2300 2841 2188 
z
M 1259 4147 
L 1259 2491 
L 2053 2491 
Q 2509 2491 2742 2702 
Q 2975 2913 2975 3322 
Q 2975 3731 2742 3939 
Q 2509 4147 2053 4147 
L 1259 4147 
z
" transform="scale(0.015625)"/>
       <path id="DejaVuSans-58" d="M 403 4666 
L 1081 4666 
L 2241 2931 
L 3406 4666 
L 4084 4666 
L 2584 2425 
L 4184 0 
L 3506 0 
L 2194 1984 
L 872 0 
L 191 0 
L 1856 2491 
L 403 4666 
z
" transform="scale(0.015625)"/>
      </defs>
      <use xlink:href="#DejaVuSans-52" transform="translate(0 0.09375)"/>
      <use xlink:href="#DejaVuSans-58" transform="translate(70.439453 -16.3125) scale(0.7)"/>
     </g>
    </g>
   </g>
   <g id="text_18">
    <g clip-path="url(#p43e45e61fe)">
     <!-- $\pi$/3 -->
     <g style="fill: #ffffff" transform="translate(292.052879 101.883729) scale(0.08 -0.08)">
      <use xlink:href="#DejaVuSans-Oblique-3c0" transform="translate(0 0.78125)"/>
      <use xlink:href="#DejaVuSans-2f" transform="translate(60.205078 0.78125)"/>
      <use xlink:href="#DejaVuSans-33" transform="translate(93.896484 0.78125)"/>
     </g>
    </g>
   </g>
   <g id="text_19">
    <g clip-path="url(#p43e45e61fe)">
     <!-- $\mathrm{R_X}$ -->
     <g style="fill: #ffffff" transform="translate(290.442879 89.704871) scale(0.13 -0.13)">
      <use xlink:href="#DejaVuSans-52" transform="translate(0 0.09375)"/>
      <use xlink:href="#DejaVuSans-58" transform="translate(70.439453 -16.3125) scale(0.7)"/>
     </g>
    </g>
   </g>
   <g id="text_20">
    <g clip-path="url(#p43e45e61fe)">
     <!-- $\pi$/3 -->
     <g style="fill: #ffffff" transform="translate(292.052879 148.237728) scale(0.08 -0.08)">
      <use xlink:href="#DejaVuSans-Oblique-3c0" transform="translate(0 0.78125)"/>
      <use xlink:href="#DejaVuSans-2f" transform="translate(60.205078 0.78125)"/>
      <use xlink:href="#DejaVuSans-33" transform="translate(93.896484 0.78125)"/>
     </g>
    </g>
   </g>
   <g id="text_21">
    <g clip-path="url(#p43e45e61fe)">
     <!-- $\mathrm{R_X}$ -->
     <g style="fill: #ffffff" transform="translate(290.442879 136.058871) scale(0.13 -0.13)">
      <use xlink:href="#DejaVuSans-52" transform="translate(0 0.09375)"/>
      <use xlink:href="#DejaVuSans-58" transform="translate(70.439453 -16.3125) scale(0.7)"/>
     </g>
    </g>
   </g>
   <g id="text_22">
    <g clip-path="url(#p43e45e61fe)">
     <!-- $\pi$/3 -->
     <g style="fill: #ffffff" transform="translate(292.052879 194.591728) scale(0.08 -0.08)">
      <use xlink:href="#DejaVuSans-Oblique-3c0" transform="translate(0 0.78125)"/>
      <use xlink:href="#DejaVuSans-2f" transform="translate(60.205078 0.78125)"/>
      <use xlink:href="#DejaVuSans-33" transform="translate(93.896484 0.78125)"/>
     </g>
    </g>
   </g>
   <g id="text_23">
    <g clip-path="url(#p43e45e61fe)">
     <!-- $\mathrm{R_X}$ -->
     <g style="fill: #ffffff" transform="translate(290.442879 182.41287) scale(0.13 -0.13)">
      <use xlink:href="#DejaVuSans-52" transform="translate(0 0.09375)"/>
      <use xlink:href="#DejaVuSans-58" transform="translate(70.439453 -16.3125) scale(0.7)"/>
     </g>
    </g>
   </g>
   <g id="line2d_24">
    <path d="M 344.726878 21.1062 
L 344.726878 67.460199 
" clip-path="url(#p43e45e61fe)" style="fill: none; stroke-dasharray: 3.7,1.6; stroke-dashoffset: 0; stroke: #000000"/>
   </g>
   <g id="line2d_25">
    <path d="M 344.726878 67.460199 
L 344.726878 113.814199 
" clip-path="url(#p43e45e61fe)" style="fill: none; stroke-dasharray: 3.7,1.6; stroke-dashoffset: 0; stroke: #000000"/>
   </g>
   <g id="line2d_26">
    <path d="M 344.726878 113.814199 
L 344.726878 160.168198 
" clip-path="url(#p43e45e61fe)" style="fill: none; stroke-dasharray: 3.7,1.6; stroke-dashoffset: 0; stroke: #000000"/>
   </g>
   <g id="line2d_27">
    <path d="M 344.726878 160.168198 
L 344.726878 206.522197 
" clip-path="url(#p43e45e61fe)" style="fill: none; stroke-dasharray: 3.7,1.6; stroke-dashoffset: 0; stroke: #000000"/>
   </g>
   <g id="text_24">
    <g clip-path="url(#p43e45e61fe)">
     <!-- 0 -->
     <g style="fill: #ffffff" transform="translate(387.140788 47.870387) scale(0.13 -0.13)">
      <use xlink:href="#DejaVuSans-30"/>
     </g>
    </g>
   </g>
   <g id="text_25">
    <g clip-path="url(#p43e45e61fe)">
     <!-- 1 -->
     <g style="fill: #ffffff" transform="translate(387.140788 94.224386) scale(0.13 -0.13)">
      <use xlink:href="#DejaVuSans-31"/>
     </g>
    </g>
   </g>
   <g id="text_26">
    <g clip-path="url(#p43e45e61fe)">
     <!-- 2 -->
     <g style="fill: #ffffff" transform="translate(387.140788 140.578386) scale(0.13 -0.13)">
      <use xlink:href="#DejaVuSans-32"/>
     </g>
    </g>
   </g>
   <g id="text_27">
    <g clip-path="url(#p43e45e61fe)">
     <!-- 3 -->
     <g style="fill: #ffffff" transform="translate(387.140788 186.932385) scale(0.13 -0.13)">
      <use xlink:href="#DejaVuSans-33"/>
     </g>
    </g>
   </g>
   <g id="text_28">
    <g clip-path="url(#p43e45e61fe)">
     <!-- Unitary -->
     <g style="fill: #ffffff" transform="translate(395.623692 117.401386) scale(0.13 -0.13)">
      <use xlink:href="#DejaVuSans-55"/>
      <use xlink:href="#DejaVuSans-6e" x="73.193359"/>
      <use xlink:href="#DejaVuSans-69" x="136.572266"/>
      <use xlink:href="#DejaVuSans-74" x="164.355469"/>
      <use xlink:href="#DejaVuSans-61" x="203.564453"/>
      <use xlink:href="#DejaVuSans-72" x="264.84375"/>
      <use xlink:href="#DejaVuSans-79" x="305.957031"/>
     </g>
    </g>
   </g>
   <g id="text_29">
    <g clip-path="url(#p43e45e61fe)">
     <!-- $\pi$/3 -->
     <g style="fill: #ffffff" transform="translate(477.468876 55.529729) scale(0.08 -0.08)">
      <use xlink:href="#DejaVuSans-Oblique-3c0" transform="translate(0 0.78125)"/>
      <use xlink:href="#DejaVuSans-2f" transform="translate(60.205078 0.78125)"/>
      <use xlink:href="#DejaVuSans-33" transform="translate(93.896484 0.78125)"/>
     </g>
    </g>
   </g>
   <g id="text_30">
    <g clip-path="url(#p43e45e61fe)">
     <!-- $\mathrm{R_X}$ -->
     <g style="fill: #ffffff" transform="translate(475.858876 43.350872) scale(0.13 -0.13)">
      <use xlink:href="#DejaVuSans-52" transform="translate(0 0.09375)"/>
      <use xlink:href="#DejaVuSans-58" transform="translate(70.439453 -16.3125) scale(0.7)"/>
     </g>
    </g>
   </g>
   <g id="text_31">
    <g clip-path="url(#p43e45e61fe)">
     <!-- $\pi$/3 -->
     <g style="fill: #ffffff" transform="translate(477.468876 101.883729) scale(0.08 -0.08)">
      <use xlink:href="#DejaVuSans-Oblique-3c0" transform="translate(0 0.78125)"/>
      <use xlink:href="#DejaVuSans-2f" transform="translate(60.205078 0.78125)"/>
      <use xlink:href="#DejaVuSans-33" transform="translate(93.896484 0.78125)"/>
     </g>
    </g>
   </g>
   <g id="text_32">
    <g clip-path="url(#p43e45e61fe)">
     <!-- $\mathrm{R_X}$ -->
     <g style="fill: #ffffff" transform="translate(475.858876 89.704871) scale(0.13 -0.13)">
      <use xlink:href="#DejaVuSans-52" transform="translate(0 0.09375)"/>
      <use xlink:href="#DejaVuSans-58" transform="translate(70.439453 -16.3125) scale(0.7)"/>
     </g>
    </g>
   </g>
   <g id="text_33">
    <g clip-path="url(#p43e45e61fe)">
     <!-- $\pi$/3 -->
     <g style="fill: #ffffff" transform="translate(477.468876 148.237728) scale(0.08 -0.08)">
      <use xlink:href="#DejaVuSans-Oblique-3c0" transform="translate(0 0.78125)"/>
      <use xlink:href="#DejaVuSans-2f" transform="translate(60.205078 0.78125)"/>
      <use xlink:href="#DejaVuSans-33" transform="translate(93.896484 0.78125)"/>
     </g>
    </g>
   </g>
   <g id="text_34">
    <g clip-path="url(#p43e45e61fe)">
     <!-- $\mathrm{R_X}$ -->
     <g style="fill: #ffffff" transform="translate(475.858876 136.058871) scale(0.13 -0.13)">
      <use xlink:href="#DejaVuSans-52" transform="translate(0 0.09375)"/>
      <use xlink:href="#DejaVuSans-58" transform="translate(70.439453 -16.3125) scale(0.7)"/>
     </g>
    </g>
   </g>
   <g id="text_35">
    <g clip-path="url(#p43e45e61fe)">
     <!-- $\pi$/3 -->
     <g style="fill: #ffffff" transform="translate(477.468876 194.591728) scale(0.08 -0.08)">
      <use xlink:href="#DejaVuSans-Oblique-3c0" transform="translate(0 0.78125)"/>
      <use xlink:href="#DejaVuSans-2f" transform="translate(60.205078 0.78125)"/>
      <use xlink:href="#DejaVuSans-33" transform="translate(93.896484 0.78125)"/>
     </g>
    </g>
   </g>
   <g id="text_36">
    <g clip-path="url(#p43e45e61fe)">
     <!-- $\mathrm{R_X}$ -->
     <g style="fill: #ffffff" transform="translate(475.858876 182.41287) scale(0.13 -0.13)">
      <use xlink:href="#DejaVuSans-52" transform="translate(0 0.09375)"/>
      <use xlink:href="#DejaVuSans-58" transform="translate(70.439453 -16.3125) scale(0.7)"/>
     </g>
    </g>
   </g>
   <g id="line2d_28">
    <path d="M 530.142876 21.1062 
L 530.142876 67.460199 
" clip-path="url(#p43e45e61fe)" style="fill: none; stroke-dasharray: 3.7,1.6; stroke-dashoffset: 0; stroke: #000000"/>
   </g>
   <g id="line2d_29">
    <path d="M 530.142876 67.460199 
L 530.142876 113.814199 
" clip-path="url(#p43e45e61fe)" style="fill: none; stroke-dasharray: 3.7,1.6; stroke-dashoffset: 0; stroke: #000000"/>
   </g>
   <g id="line2d_30">
    <path d="M 530.142876 113.814199 
L 530.142876 160.168198 
" clip-path="url(#p43e45e61fe)" style="fill: none; stroke-dasharray: 3.7,1.6; stroke-dashoffset: 0; stroke: #000000"/>
   </g>
   <g id="line2d_31">
    <path d="M 530.142876 160.168198 
L 530.142876 206.522197 
" clip-path="url(#p43e45e61fe)" style="fill: none; stroke-dasharray: 3.7,1.6; stroke-dashoffset: 0; stroke: #000000"/>
   </g>
   <g id="text_37">
    <g clip-path="url(#p43e45e61fe)">
     <!-- 0 -->
     <g transform="translate(588.085375 222.900922) scale(0.104 -0.104)">
      <use xlink:href="#DejaVuSans-30"/>
     </g>
    </g>
   </g>
   <g id="text_38">
    <g clip-path="url(#p43e45e61fe)">
     <!-- 1 -->
     <g transform="translate(634.439374 222.900922) scale(0.104 -0.104)">
      <use xlink:href="#DejaVuSans-31"/>
     </g>
    </g>
   </g>
   <g id="text_39">
    <g clip-path="url(#p43e45e61fe)">
     <!-- 2 -->
     <g transform="translate(680.793374 222.900922) scale(0.104 -0.104)">
      <use xlink:href="#DejaVuSans-32"/>
     </g>
    </g>
   </g>
   <g id="text_40">
    <g clip-path="url(#p43e45e61fe)">
     <!-- 3 -->
     <g transform="translate(727.147373 222.900922) scale(0.104 -0.104)">
      <use xlink:href="#DejaVuSans-33"/>
     </g>
    </g>
   </g>
  </g>
 </g>
 <defs>
  <clipPath id="p43e45e61fe">
   <rect x="7.2" y="7.2" width="738.952513" height="250.311597"/>
  </clipPath>
 </defs>
</svg>
